<?xml version="1.0" encoding="UTF-8"?>
<svg version="1.1" xmlns="http://www.w3.org/2000/svg" width="186" height="85">
<path d="M0 0 C1.68536865 0.0012085 1.68536865 0.0012085 3.40478516 0.00244141 C11.6079056 0.06071681 19.7588535 0.43365109 27.9375 1.0625 C28.99445068 1.14089111 30.05140137 1.21928223 31.14038086 1.30004883 C32.12272705 1.38407959 33.10507324 1.46811035 34.1171875 1.5546875 C34.97812012 1.62800293 35.83905273 1.70131836 36.72607422 1.77685547 C39.17057514 2.20649503 40.87495211 3.05046463 43.0625 4.1875 C45.22471572 4.36104626 47.39380972 4.45441912 49.5625 4.5 C59.39663206 5.00282681 68.60260395 7.58482809 78.0625 10.1875 C78.3925 11.5075 78.7225 12.8275 79.0625 14.1875 C78.47082031 14.043125 77.87914062 13.89875 77.26953125 13.75 C73.13720059 12.77927306 69.3395238 11.91156298 65.0625 12.1875 C67.0425 12.5175 69.0225 12.8475 71.0625 13.1875 C71.0625 13.8475 71.0625 14.5075 71.0625 15.1875 C73.39464148 16.39378008 75.55892139 17.3529738 78.0625 18.1875 C78.2790625 19.3321875 78.2790625 19.3321875 78.5 20.5 C79.0257594 23.26922908 79.0257594 23.26922908 80.0625 26.1875 C80.28942934 29.24589724 80.24766135 32.30903321 80.25 35.375 C80.26224609 36.20064453 80.27449219 37.02628906 80.28710938 37.87695312 C80.3000176 43.3371336 79.57818164 47.94177655 78.0625 53.1875 C77.8315564 54.25266846 77.8315564 54.25266846 77.59594727 55.33935547 C77.0625 57.1875 77.0625 57.1875 75.4765625 58.39453125 C72.17204089 59.47999709 68.88205521 59.62926156 65.4375 59.875 C52.00121667 61.08239172 39.09046722 65.20440484 26.20727539 69.03686523 C19.92662771 70.85393939 13.89208148 71.89278819 7.375 72.375 C6.33899658 72.45395508 5.30299316 72.53291016 4.2355957 72.61425781 C-69.42009878 77.47935623 -69.42009878 77.47935623 -83.9375 65.1875 C-83.0625 61.3125 -83.0625 61.3125 -81.9375 60.1875 C-83.9175 59.1975 -85.8975 58.2075 -87.9375 57.1875 C-87.6075 56.1975 -87.2775 55.2075 -86.9375 54.1875 C-86.77995296 52.23072445 -86.77995296 52.23072445 -86.8125 50.1875 C-86.80992188 49.506875 -86.80734375 48.82625 -86.8046875 48.125 C-86.87118874 45.96875219 -86.87118874 45.96875219 -87.9375 43.1875 C-85.64731436 38.94227784 -82.7553557 35.09695746 -79.9375 31.1875 C-79.45925781 30.48367187 -78.98101562 29.77984375 -78.48828125 29.0546875 C-74.23646271 23.36005966 -68.25027595 21.09236884 -61.9375 18.1875 C-59.93272789 17.19497846 -57.93737892 16.18510058 -55.94262695 15.17260742 C-53.2266102 13.79647944 -50.49898057 12.44446186 -47.76953125 11.09521484 C-46.17635457 10.30584506 -44.58775801 9.5072444 -43 8.70703125 C-29.28312587 2.07312635 -15.08565462 -0.01131028 0 0 Z " fill="#39393F" transform="translate(96.9375,8.8125)"/>
<path d="M0 0 C1.68536865 0.0012085 1.68536865 0.0012085 3.40478516 0.00244141 C11.6079056 0.06071681 19.7588535 0.43365109 27.9375 1.0625 C28.99445068 1.14089111 30.05140137 1.21928223 31.14038086 1.30004883 C32.12272705 1.38407959 33.10507324 1.46811035 34.1171875 1.5546875 C34.97812012 1.62800293 35.83905273 1.70131836 36.72607422 1.77685547 C39.17057514 2.20649503 40.87495211 3.05046463 43.0625 4.1875 C45.22471572 4.36104626 47.39380972 4.45441912 49.5625 4.5 C59.39663206 5.00282681 68.60260395 7.58482809 78.0625 10.1875 C78.3925 11.5075 78.7225 12.8275 79.0625 14.1875 C78.47082031 14.043125 77.87914062 13.89875 77.26953125 13.75 C73.13720059 12.77927306 69.3395238 11.91156298 65.0625 12.1875 C67.0425 12.5175 69.0225 12.8475 71.0625 13.1875 C71.0625 13.8475 71.0625 14.5075 71.0625 15.1875 C73.39464148 16.39378008 75.55892139 17.3529738 78.0625 18.1875 C78.0625 20.1675 78.0625 22.1475 78.0625 24.1875 C77.258125 24.001875 76.45375 23.81625 75.625 23.625 C74.779375 23.480625 73.93375 23.33625 73.0625 23.1875 C72.7325 23.5175 72.4025 23.8475 72.0625 24.1875 C70.06291636 24.22830783 68.06204746 24.23004356 66.0625 24.1875 C66.0625 23.5275 66.0625 22.8675 66.0625 22.1875 C63.7525 22.5175 61.4425 22.8475 59.0625 23.1875 C58.7325 24.8375 58.4025 26.4875 58.0625 28.1875 C56.0825 27.8575 54.1025 27.5275 52.0625 27.1875 C50.26019832 31.01739106 49.86627759 33.96871808 50.0625 38.1875 C49.0725 38.084375 48.0825 37.98125 47.0625 37.875 C42.81261429 37.83189771 40.30452565 39.63937529 36.95703125 42.09375 C35.0625 43.1875 35.0625 43.1875 31.0625 43.1875 C30.66417969 41.81464844 30.66417969 41.81464844 30.2578125 40.4140625 C29.90460938 39.22554687 29.55140625 38.03703125 29.1875 36.8125 C28.83945313 35.62914062 28.49140625 34.44578125 28.1328125 33.2265625 C27.28562581 30.12258442 27.28562581 30.12258442 25.0625 28.1875 C22.52059998 27.9374227 22.52059998 27.9374227 20.0625 28.1875 C19.5675 28.6825 19.5675 28.6825 19.0625 29.1875 C21.3725 30.1775 23.6825 31.1675 26.0625 32.1875 C26.0625 33.1775 26.0625 34.1675 26.0625 35.1875 C25.4025 34.5275 24.7425 33.8675 24.0625 33.1875 C22.07428687 32.78985737 20.07305661 32.44974651 18.0625 32.1875 C18.0625 32.8475 18.0625 33.5075 18.0625 34.1875 C16.7425 34.5175 15.4225 34.8475 14.0625 35.1875 C13.4025 37.4975 12.7425 39.8075 12.0625 42.1875 C11.38703125 42.30867188 10.7115625 42.42984375 10.015625 42.5546875 C8.67757812 42.80605469 8.67757812 42.80605469 7.3125 43.0625 C6.43078125 43.22492187 5.5490625 43.38734375 4.640625 43.5546875 C2.07692292 44.08289841 2.07692292 44.08289841 -0.04296875 45.2421875 C-3.02034144 46.72780439 -5.67493389 46.42477754 -8.9375 46.1875 C-10.4225 45.1975 -10.4225 45.1975 -11.9375 44.1875 C-9.72770692 41.36810883 -7.53687954 38.65691056 -4.9375 36.1875 C-5.46859375 36.66832031 -5.9996875 37.14914063 -6.546875 37.64453125 C-9.53215402 39.57130447 -11.66100016 39.6833424 -15.1875 39.875 C-16.26515625 39.94074219 -17.3428125 40.00648437 -18.453125 40.07421875 C-19.68289062 40.13029297 -19.68289062 40.13029297 -20.9375 40.1875 C-20.9375 39.5275 -20.9375 38.8675 -20.9375 38.1875 C-21.9275 38.1875 -22.9175 38.1875 -23.9375 38.1875 C-23.9375 37.5275 -23.9375 36.8675 -23.9375 36.1875 C-22.0625 34.4375 -22.0625 34.4375 -18.9375 33.1875 C-15.51366507 33.52726988 -12.2554836 34.29196656 -8.9375 35.1875 C-10.5875 34.8575 -12.2375 34.5275 -13.9375 34.1875 C-13.4425 33.445 -12.9475 32.7025 -12.4375 31.9375 C-10.61826525 29.12431812 -10.61826525 29.12431812 -10.9375 25.1875 C-12.9175 25.1875 -14.8975 25.1875 -16.9375 25.1875 C-17.4325 24.1975 -17.4325 24.1975 -17.9375 23.1875 C-21.70791256 22.99079446 -25.47883763 22.80671574 -29.25 22.625 C-30.32185547 22.56892578 -31.39371094 22.51285156 -32.49804688 22.45507812 C-34.04008789 22.38256836 -34.04008789 22.38256836 -35.61328125 22.30859375 C-36.56114502 22.2614624 -37.50900879 22.21433105 -38.4855957 22.16577148 C-41.07683025 22.06293867 -41.07683025 22.06293867 -43.9375 23.1875 C-45.57992818 23.38492042 -47.22658385 23.54868601 -48.875 23.6875 C-51.36121568 23.8974971 -53.64592047 24.10611643 -56.05078125 24.77734375 C-58.985293 25.41528109 -61.20376627 24.24371531 -63.9375 23.1875 C-64.2675 24.1775 -64.5975 25.1675 -64.9375 26.1875 C-65.55625 26.414375 -66.175 26.64125 -66.8125 26.875 C-70.21504033 28.97656903 -70.80224708 32.48932762 -71.9375 36.1875 C-75.4025 36.6825 -75.4025 36.6825 -78.9375 37.1875 C-79.5975 39.1675 -80.2575 41.1475 -80.9375 43.1875 C-82.2575 42.8575 -83.5775 42.5275 -84.9375 42.1875 C-85.2675 42.8475 -85.5975 43.5075 -85.9375 44.1875 C-86.5975 43.8575 -87.2575 43.5275 -87.9375 43.1875 C-85.32445173 39.14854976 -82.65605277 35.1557904 -79.9375 31.1875 C-79.46054688 30.47980469 -78.98359375 29.77210937 -78.4921875 29.04296875 C-74.2138111 23.36835574 -68.25547378 21.09476066 -61.9375 18.1875 C-59.93272789 17.19497846 -57.93737892 16.18510058 -55.94262695 15.17260742 C-53.2266102 13.79647944 -50.49898057 12.44446186 -47.76953125 11.09521484 C-46.17635457 10.30584506 -44.58775801 9.5072444 -43 8.70703125 C-29.28312587 2.07312635 -15.08565462 -0.01131028 0 0 Z " fill="#5C5D60" transform="translate(96.9375,8.8125)"/>
<path d="M0 0 C1.98 0.33 3.96 0.66 6 1 C7.364255 5.092765 7.18423053 8.90122953 7.1875 13.1875 C7.19974609 14.01314453 7.21199219 14.83878906 7.22460938 15.68945312 C7.2375176 21.1496336 6.51568164 25.75427655 5 31 C4.7690564 32.06516846 4.7690564 32.06516846 4.53344727 33.15185547 C4 35 4 35 2.4140625 36.20703125 C-0.89045911 37.29249709 -4.18044479 37.44176156 -7.625 37.6875 C-21.06128333 38.89489172 -33.97203278 43.01690484 -46.85522461 46.84936523 C-53.13587229 48.66643939 -59.17041852 49.70528819 -65.6875 50.1875 C-67.24150513 50.30593262 -67.24150513 50.30593262 -68.8269043 50.42675781 C-142.48259878 55.29185623 -142.48259878 55.29185623 -157 43 C-156.875 41.125 -156.875 41.125 -156 39 C-150.94196888 36.66348427 -146.73427077 36.93970869 -141.359375 37.4609375 C-139.64266275 37.60469365 -137.92594712 37.74840953 -136.20922852 37.89208984 C-135.3168045 37.97142761 -134.42438049 38.05076538 -133.50491333 38.13250732 C-120.20484962 39.30320406 -106.91972355 40.32268711 -93.5625 40.375 C-92.4993457 40.38837402 -91.43619141 40.40174805 -90.34082031 40.41552734 C-89.38401367 40.4098877 -88.42720703 40.40424805 -87.44140625 40.3984375 C-86.62357666 40.39505371 -85.80574707 40.39166992 -84.96313477 40.38818359 C-84.31530029 40.26008301 -83.66746582 40.13198242 -83 40 C-82.34 39.01 -81.68 38.02 -81 37 C-79.35 37.33 -77.7 37.66 -76 38 C-76 38.33 -76 38.66 -76 39 C-73.54101345 39.08076963 -71.08466258 39.14037143 -68.625 39.1875 C-67.92632812 39.21263672 -67.22765625 39.23777344 -66.5078125 39.26367188 C-64.23252323 39.32978561 -64.23252323 39.32978561 -61 39 C-60.34 38.01 -59.68 37.02 -59 36 C-58.01 36 -57.02 36 -56 36 C-55.505 35.01 -55.505 35.01 -55 34 C-58.465 34.495 -58.465 34.495 -62 35 C-61.67 32.36 -61.34 29.72 -61 27 C-59.35 27 -57.7 27 -56 27 C-56 28.65 -56 30.3 -56 32 C-55.34 31.34 -54.68 30.68 -54 30 C-53.01 30.99 -52.02 31.98 -51 33 C-50.67 31.68 -50.34 30.36 -50 29 C-48.68 30.32 -47.36 31.64 -46 33 C-47.75 38.75 -47.75 38.75 -50 41 C-43.74014169 34.28210328 -36.61154777 32.96188602 -28 31 C-26.66546203 30.58720794 -25.33181417 30.17149723 -24 29.75 C-17.92250809 28.20349536 -11.23235241 28.85392924 -5 29 C-5.08378906 28.30132812 -5.16757813 27.60265625 -5.25390625 26.8828125 C-5.40666016 25.51769531 -5.40666016 25.51769531 -5.5625 24.125 C-5.66691406 23.22007813 -5.77132812 22.31515625 -5.87890625 21.3828125 C-6 19 -6 19 -5 17 C-4.34 17 -3.68 17 -3 17 C-3.0309375 15.7934375 -3.0309375 15.7934375 -3.0625 14.5625 C-3 12 -3 12 -2 11 C-2.061875 10.236875 -2.12375 9.47375 -2.1875 8.6875 C-2 6 -2 6 0 3.6875 C0.99 2.8521875 0.99 2.8521875 2 2 C1.34 2 0.68 2 0 2 C0 1.34 0 0.68 0 0 Z " fill="#010101" transform="translate(170,31)"/>
<path d="M0 0 C2.64 0 5.28 0 8 0 C8 0.66 8 1.32 8 2 C9.11375 1.814375 10.2275 1.62875 11.375 1.4375 C15 1 15 1 17 2 C16 5 16 5 14 6 C14 7.98 14 9.96 14 12 C13.34 12 12.68 12 12 12 C12 13.65 12 15.3 12 17 C11.34 17 10.68 17 10 17 C10 20.96 10 24.92 10 29 C6.89938164 30.03353945 5.33158173 29.95447768 2.125 29.75 C-4.17496951 29.6726048 -9.91329344 30.90734275 -16 32.375 C-17.38034424 32.70709473 -17.38034424 32.70709473 -18.78857422 33.04589844 C-26.41977536 34.92073894 -26.41977536 34.92073894 -32.5 39.6875 C-33.7375 40.8321875 -33.7375 40.8321875 -35 42 C-37.3125 41.8125 -37.3125 41.8125 -39 41 C-38.21625 40.79375 -37.4325 40.5875 -36.625 40.375 C-33.69083714 39.19323388 -33.69083714 39.19323388 -32.6875 35.875 C-32.460625 34.92625 -32.23375 33.9775 -32 33 C-33.485 32.01 -33.485 32.01 -35 31 C-35.33 32.32 -35.66 33.64 -36 35 C-36.33 34.34 -36.66 33.68 -37 33 C-37.66 34.32 -38.32 35.64 -39 37 C-39.33 35.35 -39.66 33.7 -40 32 C-40.99 32.495 -40.99 32.495 -42 33 C-41.67 31.02 -41.34 29.04 -41 27 C-42.65 27 -44.3 27 -46 27 C-46.33 29.64 -46.66 32.28 -47 35 C-46.34 35 -45.68 35 -45 35 C-44.67 34.01 -44.34 33.02 -44 32 C-44 32.66 -44 33.32 -44 34 C-42.68 34 -41.36 34 -40 34 C-41 37 -41 37 -42.91796875 38.67578125 C-47.391672 40.59794272 -51.50196893 40.32008708 -56.3125 40.1875 C-57.70952148 40.16719727 -57.70952148 40.16719727 -59.13476562 40.14648438 C-61.42377646 40.11126882 -63.71158458 40.06202099 -66 40 C-65.01 39.01 -65.01 39.01 -64 38 C-65.485 38.495 -65.485 38.495 -67 39 C-67 39.66 -67 40.32 -67 41 C-84.5855569 41.65020546 -101.91943252 40.57615073 -119.4375 39.125 C-120.52063477 39.03786743 -121.60376953 38.95073486 -122.71972656 38.86096191 C-125.83365983 38.60771325 -128.94618786 38.34162955 -132.05859375 38.0703125 C-133.47421852 37.95452347 -133.47421852 37.95452347 -134.91844177 37.83639526 C-136.23003014 37.71652756 -136.23003014 37.71652756 -137.56811523 37.59423828 C-138.3305101 37.52761993 -139.09290497 37.46100159 -139.87840271 37.3923645 C-142 37 -142 37 -146 35 C-145.34 31.37 -144.68 27.74 -144 24 C-141.70986347 27.4352048 -141.82157027 28.985331 -142 33 C-138.94152152 33.54372951 -136.11227195 34 -133 34 C-133.495 34.495 -133.495 34.495 -134 35 C-116.0348384 36.78687662 -116.0348384 36.78687662 -98 37 C-98.99 36.01 -99.98 35.02 -101 34 C-95.29295003 35.81587953 -95.29295003 35.81587953 -93.328125 37.05078125 C-89.79509983 38.49125963 -86.25560258 38.32844059 -82.5 38.3125 C-81.36111328 38.33666992 -81.36111328 38.33666992 -80.19921875 38.36132812 C-76.7749838 38.36432658 -74.43905776 38.26357017 -71.46875 36.48046875 C-70.9840625 35.99191406 -70.499375 35.50335938 -70 35 C-70.33 35.99 -70.66 36.98 -71 38 C-67.18315774 36.44499019 -64.80804268 33.96404505 -62 31 C-62.60183749 28.97954558 -63.27306096 26.97888961 -64 25 C-64.66 24.67 -65.32 24.34 -66 24 C-65.41992188 23.87882812 -64.83984375 23.75765625 -64.2421875 23.6328125 C-59.7126873 22.66113754 -55.38933575 21.49636446 -51 20 C-49.33911955 19.63893903 -47.67381019 19.29537827 -46 19 C-45.62875 17.5459375 -45.62875 17.5459375 -45.25 16.0625 C-44.8375 15.051875 -44.425 14.04125 -44 13 C-41.875 12.125 -41.875 12.125 -40 12 C-40 11.34 -40 10.68 -40 10 C-38.02 10 -36.04 10 -34 10 C-35.64079242 8.35920758 -37.77768765 8.39887658 -40 8 C-38 5 -38 5 -35.625 4.5 C-33 5 -33 5 -30.8125 7.0625 C-27.99146722 11.63451864 -27 15.64933492 -27 21 C-22.05556977 18.9682815 -22.05556977 18.9682815 -17.4375 16.3125 C-14.45477552 14.70641759 -12.33819708 14.76710253 -9 15 C-8.814375 13.39125 -8.814375 13.39125 -8.625 11.75 C-8.10356064 8.62136385 -7.59911746 6.66519576 -6 4 C-4.02 4.33 -2.04 4.66 0 5 C0 3.35 0 1.7 0 0 Z " fill="#333131" transform="translate(155,31)"/>
<path d="M0 0 C13.32708253 -0.21255315 26.57989746 -0.16154398 39.875 0.875 C40.93130615 0.95347168 41.9876123 1.03194336 43.07592773 1.11279297 C44.05891846 1.19674316 45.04190918 1.28069336 46.0546875 1.3671875 C46.91562012 1.44050293 47.77655273 1.51381836 48.66357422 1.58935547 C51.10807514 2.01899503 52.81245211 2.86296463 55 4 C57.16221572 4.17354626 59.33130972 4.26691912 61.5 4.3125 C71.33413206 4.81532681 80.54010395 7.39732809 90 10 C90.495 11.98 90.495 11.98 91 14 C90.40832031 13.855625 89.81664062 13.71125 89.20703125 13.5625 C85.07470059 12.59177306 81.2770238 11.72406298 77 12 C79.97 12.495 79.97 12.495 83 13 C83 13.66 83 14.32 83 15 C85.33214148 16.20628008 87.49642139 17.1654738 90 18 C90 19.98 90 21.96 90 24 C89.195625 23.814375 88.39125 23.62875 87.5625 23.4375 C86.716875 23.293125 85.87125 23.14875 85 23 C84.505 23.495 84.505 23.495 84 24 C82.00041636 24.04080783 79.99954746 24.04254356 78 24 C78 23.34 78 22.68 78 22 C75.69 22.33 73.38 22.66 71 23 C70.505 25.475 70.505 25.475 70 28 C68.02 27.67 66.04 27.34 64 27 C62.19769832 30.82989106 61.80377759 33.78121808 62 38 C61.01 37.896875 60.02 37.79375 59 37.6875 C54.75011429 37.64439771 52.24202565 39.45187529 48.89453125 41.90625 C47 43 47 43 43 43 C42.49193553 41.27318563 41.99389533 39.54342021 41.5 37.8125 C41.2215625 36.84957031 40.943125 35.88664062 40.65625 34.89453125 C40.03322392 32.14654124 39.87697188 29.80401584 40 27 C42.31 27 44.62 27 47 27 C47 25.35 47 23.7 47 22 C50.3 22 53.6 22 57 22 C57 21.34 57 20.68 57 20 C52.71 20 48.42 20 44 20 C43.67 21.32 43.34 22.64 43 24 C39.26602153 25.69726294 36.07842654 26.23990744 32 26 C31.67 25.01 31.34 24.02 31 23 C30.01 22.34 29.02 21.68 28 21 C28.34193874 15.52898009 31.72295478 12.10038245 35 8 C36.00242401 6.66848812 37.00275315 5.33539376 38 4 C29.4205966 3.20289401 20.86024112 2.7345728 12.25 2.4375 C11.0640625 2.39431641 9.878125 2.35113281 8.65625 2.30664062 C5.77091324 2.20193082 2.88551158 2.09975479 0 2 C0 1.34 0 0.68 0 0 Z " fill="#868A90" transform="translate(85,9)"/>
<path d="M0 0 C0.66 0.33 1.32 0.66 2 1 C1.67 1.33 1.34 1.66 1 2 C9.15386763 3.06820358 17.18662167 3.06958983 25.3984375 2.95703125 C26.76460913 2.94497846 28.13079049 2.93398622 29.49697876 2.92399597 C35.25095881 2.88161294 41.00470605 2.8331561 46.75830078 2.75317383 C50.29706791 2.70465623 53.8355356 2.67566773 57.37459183 2.65942955 C59.36669595 2.64476491 61.35860641 2.60878627 63.35043335 2.57246399 C64.55914093 2.56893417 65.76784851 2.56540436 67.01318359 2.56176758 C68.07556244 2.54986893 69.13794128 2.53797028 70.23251343 2.52571106 C73.70799015 3.12133461 74.90132855 4.21165252 77 7 C77 7.99 77 8.98 77 10 C78.8161982 9.57811541 80.62794073 9.13700835 82.4375 8.6875 C83.44683594 8.44386719 84.45617187 8.20023438 85.49609375 7.94921875 C86.32238281 7.63597656 87.14867188 7.32273437 88 7 C88.33 6.01 88.66 5.02 89 4 C93.29 4 97.58 4 102 4 C102 4.66 102 5.32 102 6 C98.7 6 95.4 6 92 6 C92 7.65 92 9.3 92 11 C89.69 11 87.38 11 85 11 C84.67 11.99 84.34 12.98 84 14 C83.01 13.01 83.01 13.01 82 12 C79.45809998 11.7499227 79.45809998 11.7499227 77 12 C76.67 12.33 76.34 12.66 76 13 C78.31 13.99 80.62 14.98 83 16 C83 16.99 83 17.98 83 19 C82.01 18.01 82.01 18.01 81 17 C79.01178687 16.60235737 77.01055661 16.26224651 75 16 C75 16.66 75 17.32 75 18 C73.68 18.33 72.36 18.66 71 19 C70.01 22.465 70.01 22.465 69 26 C68.32453125 26.12117188 67.6490625 26.24234375 66.953125 26.3671875 C66.06109375 26.53476562 65.1690625 26.70234375 64.25 26.875 C63.36828125 27.03742187 62.4865625 27.19984375 61.578125 27.3671875 C59.01442292 27.89539841 59.01442292 27.89539841 56.89453125 29.0546875 C53.91715856 30.54030439 51.26256611 30.23727754 48 30 C47.01 29.34 46.02 28.68 45 28 C47.20979308 25.18060883 49.40062046 22.46941056 52 20 C51.46890625 20.48082031 50.9378125 20.96164063 50.390625 21.45703125 C47.40534598 23.38380447 45.27649984 23.4958424 41.75 23.6875 C40.67234375 23.75324219 39.5946875 23.81898437 38.484375 23.88671875 C37.66453125 23.92410156 36.8446875 23.96148437 36 24 C36 23.34 36 22.68 36 22 C35.01 22 34.02 22 33 22 C33 21.34 33 20.68 33 20 C34.875 18.25 34.875 18.25 38 17 C41.42383493 17.33976988 44.6820164 18.10446656 48 19 C46.35 18.67 44.7 18.34 43 18 C43.495 17.2575 43.99 16.515 44.5 15.75 C46.31923475 12.93681812 46.31923475 12.93681812 46 9 C44.02 9 42.04 9 40 9 C39.505 8.01 39.505 8.01 39 7 C35.22958744 6.80329446 31.45866237 6.61921574 27.6875 6.4375 C26.61564453 6.38142578 25.54378906 6.32535156 24.43945312 6.26757812 C22.89741211 6.19506836 22.89741211 6.19506836 21.32421875 6.12109375 C20.37635498 6.0739624 19.42849121 6.02683105 18.4519043 5.97827148 C15.86066975 5.87543867 15.86066975 5.87543867 13 7 C11.35757182 7.19742042 9.71091615 7.36118601 8.0625 7.5 C5.57628432 7.7099971 3.29157953 7.91861643 0.88671875 8.58984375 C-2.047793 9.22778109 -4.26626627 8.05621531 -7 7 C-7.33 7.99 -7.66 8.98 -8 10 C-8.61875 10.226875 -9.2375 10.45375 -9.875 10.6875 C-13.27754033 12.78906903 -13.86474708 16.30182762 -15 20 C-17.31 20.33 -19.62 20.66 -22 21 C-22.66 22.98 -23.32 24.96 -24 27 C-25.32 26.67 -26.64 26.34 -28 26 C-28.33 26.66 -28.66 27.32 -29 28 C-29.66 27.67 -30.32 27.34 -31 27 C-28.38695173 22.96104976 -25.71855277 18.9682904 -23 15 C-22.52304687 14.29230469 -22.04609375 13.58460937 -21.5546875 12.85546875 C-17.31824684 7.2364771 -11.3304204 4.75198626 -5 2 C-4.09378906 1.59394531 -3.18757813 1.18789063 -2.25390625 0.76953125 C-1.51011719 0.51558594 -0.76632813 0.26164062 0 0 Z " fill="#767477" transform="translate(40,25)"/>
<path d="M0 0 C15.93763155 -0.23716714 31.33936793 -0.26140743 47 3 C45.02 3.99 45.02 3.99 43 5 C43.68707031 5.08636719 44.37414062 5.17273438 45.08203125 5.26171875 C52.47830773 6.41507231 52.47830773 6.41507231 55.0625 9.3125 C55.95611016 11.87418247 56.49642686 14.33952953 57 17 C56.22914063 16.97679688 55.45828125 16.95359375 54.6640625 16.9296875 C53.15972656 16.90261719 53.15972656 16.90261719 51.625 16.875 C50.62726563 16.85179688 49.62953125 16.82859375 48.6015625 16.8046875 C45.83737827 16.72783152 45.83737827 16.72783152 44 19 C43.35232207 21.57061311 43.35232207 21.57061311 43 24 C39.17679443 25.42258812 36.08718695 26.24042276 32 26 C31.67 25.01 31.34 24.02 31 23 C30.01 22.34 29.02 21.68 28 21 C28.34193874 15.52898009 31.72295478 12.10038245 35 8 C36.00242401 6.66848812 37.00275315 5.33539376 38 4 C29.4205966 3.20289401 20.86024112 2.7345728 12.25 2.4375 C11.0640625 2.39431641 9.878125 2.35113281 8.65625 2.30664062 C5.77091324 2.20193082 2.88551158 2.09975479 0 2 C0 1.34 0 0.68 0 0 Z " fill="#929397" transform="translate(85,9)"/>
<path d="M0 0 C0.66 0.33 1.32 0.66 2 1 C1.67 1.33 1.34 1.66 1 2 C9.18918478 3.0518431 17.29156068 3.13028615 25.5390625 3.09765625 C26.91482491 3.09578668 28.290588 3.09436533 29.66635132 3.09336853 C33.25341696 3.08958572 36.84044086 3.07979262 40.42749023 3.06866455 C44.101394 3.05835835 47.77530464 3.05385136 51.44921875 3.04882812 C58.63283134 3.03816571 65.81640978 3.02114146 73 3 C73.495 4.485 73.495 4.485 74 6 C73.33991943 6.01981934 72.67983887 6.03963867 71.99975586 6.06005859 C68.97863636 6.15593352 65.95814992 6.26535753 62.9375 6.375 C61.89916016 6.4059375 60.86082031 6.436875 59.79101562 6.46875 C54.15608314 6.68341409 49.36075918 7.28911941 44 9 C41.0625 8.625 41.0625 8.625 39 8 C39 7.67 39 7.34 39 7 C35.22958744 6.80329446 31.45866237 6.61921574 27.6875 6.4375 C26.61564453 6.38142578 25.54378906 6.32535156 24.43945312 6.26757812 C22.89741211 6.19506836 22.89741211 6.19506836 21.32421875 6.12109375 C20.37635498 6.0739624 19.42849121 6.02683105 18.4519043 5.97827148 C15.86066975 5.87543867 15.86066975 5.87543867 13 7 C11.35757182 7.19742042 9.71091615 7.36118601 8.0625 7.5 C5.57628432 7.7099971 3.29157953 7.91861643 0.88671875 8.58984375 C-2.047793 9.22778109 -4.26626627 8.05621531 -7 7 C-7.33 7.99 -7.66 8.98 -8 10 C-8.61875 10.226875 -9.2375 10.45375 -9.875 10.6875 C-13.27754033 12.78906903 -13.86474708 16.30182762 -15 20 C-17.31 20.33 -19.62 20.66 -22 21 C-22.66 22.98 -23.32 24.96 -24 27 C-25.32 26.67 -26.64 26.34 -28 26 C-28.33 26.66 -28.66 27.32 -29 28 C-29.66 27.67 -30.32 27.34 -31 27 C-28.38695173 22.96104976 -25.71855277 18.9682904 -23 15 C-22.52304687 14.29230469 -22.04609375 13.58460937 -21.5546875 12.85546875 C-17.31824684 7.2364771 -11.3304204 4.75198626 -5 2 C-4.09378906 1.59394531 -3.18757813 1.18789063 -2.25390625 0.76953125 C-1.51011719 0.51558594 -0.76632813 0.26164062 0 0 Z " fill="#676974" transform="translate(40,25)"/>
<path d="M0 0 C0 0.99 0 1.98 0 3 C1.65 3 3.3 3 5 3 C3.87548273 5.9719385 2.77706209 8.33440687 1 11 C-1.55630493 11.36076355 -1.55630493 11.36076355 -4.82666016 11.34057617 C-6.04777496 11.34034958 -7.26888977 11.34012299 -8.52700806 11.33988953 C-9.86436323 11.32456852 -11.2017147 11.30892051 -12.5390625 11.29296875 C-13.90383438 11.28737422 -15.26861228 11.28310344 -16.63339233 11.28010559 C-20.22730107 11.2686454 -23.82084667 11.23916871 -27.41461182 11.20599365 C-31.0810454 11.17531771 -34.7475376 11.16160559 -38.4140625 11.14648438 C-45.60954064 11.11429964 -52.80471946 11.06308972 -60 11 C-60 10.34 -60 9.68 -60 9 C-58.88757935 8.96241577 -58.88757935 8.96241577 -57.75268555 8.92407227 C-54.39744672 8.80813868 -51.04249056 8.68540015 -47.6875 8.5625 C-45.93663086 8.50352539 -45.93663086 8.50352539 -44.15039062 8.44335938 C-43.03212891 8.40146484 -41.91386719 8.35957031 -40.76171875 8.31640625 C-39.73006592 8.27974854 -38.69841309 8.24309082 -37.63549805 8.20532227 C-34.89251742 8.09838758 -34.89251742 8.09838758 -32 7 C-31.67 6.34 -31.34 5.68 -31 5 C-30 3 -30 3 -27 2 C-25.23179863 1.82512294 -23.46026143 1.68264566 -21.6875 1.5625 C-0.49280623 -0.16426874 -0.49280623 -0.16426874 0 0 Z " fill="#2A2D39" transform="translate(111,18)"/>
<path d="M0 0 C2.3125 0.125 2.3125 0.125 5 1 C6.8125 4.0625 6.8125 4.0625 8 7 C5.6166139 10.14947449 3.44915025 12.9972676 0 15 C-0.99 14.67 -1.98 14.34 -3 14 C-3.33 14 -3.66 14 -4 14 C-4.33 14.33 -4.66 14.66 -5 15 C-15.01566006 15.79041286 -23.41917748 15.90326856 -32 10 C-31.875 8.125 -31.875 8.125 -31 6 C-26.5656229 3.96167141 -21.87078258 3.4299768 -17.0625 2.875 C-16.38509766 2.78863281 -15.70769531 2.70226563 -15.00976562 2.61328125 C-10.65258114 2.08690997 -6.38360228 1.70336526 -2 2 C-0.0625 4.5 -0.0625 4.5 1 7 C1.15149298 3.37114676 1.15149298 3.37114676 0 0 Z " fill="#090809" transform="translate(86,55)"/>
<path d="M0 0 C0.495 0.99 0.495 0.99 1 2 C2.11375 1.814375 3.2275 1.62875 4.375 1.4375 C8 1 8 1 10 2 C9 5 9 5 7 6 C7 7.98 7 9.96 7 12 C6.34 12 5.68 12 5 12 C5 13.65 5 15.3 5 17 C4.34 17 3.68 17 3 17 C3 20.96 3 24.92 3 29 C-0.10061836 30.03353945 -1.66841827 29.95447768 -4.875 29.75 C-11.17496951 29.6726048 -16.91329344 30.90734275 -23 32.375 C-24.38034424 32.70709473 -24.38034424 32.70709473 -25.78857422 33.04589844 C-33.41977536 34.92073894 -33.41977536 34.92073894 -39.5 39.6875 C-40.325 40.450625 -41.15 41.21375 -42 42 C-44.3125 41.8125 -44.3125 41.8125 -46 41 C-45.21625 40.79375 -44.4325 40.5875 -43.625 40.375 C-40.75063478 39.20753005 -40.75063478 39.20753005 -39.6875 36.1875 C-39.06945761 33.32203075 -38.82856667 30.91436667 -39 28 C-37.68 27.67 -36.36 27.34 -35 27 C-35.33 29.31 -35.66 31.62 -36 34 C-35.16807129 33.62862915 -35.16807129 33.62862915 -34.31933594 33.24975586 C-31.80132869 32.13371312 -29.27592804 31.03549049 -26.75 29.9375 C-25.44095703 29.35258789 -25.44095703 29.35258789 -24.10546875 28.75585938 C-23.26113281 28.39169922 -22.41679687 28.02753906 -21.546875 27.65234375 C-20.77182617 27.31195068 -19.99677734 26.97155762 -19.19824219 26.62084961 C-16.71037218 25.9182004 -15.40895758 26.15302587 -13 27 C-12.505 25.515 -12.505 25.515 -12 24 C-11.505 24.99 -11.505 24.99 -11 26 C-7.40986451 24.44750898 -6.14390738 23.28781476 -4.375 19.75 C-2.27120255 13.35445575 -1.21396694 6.61224544 0 0 Z " fill="#343531" transform="translate(162,31)"/>
<path d="M0 0 C2.22404138 0.09628412 4.44770892 0.16579903 6.67285156 0.23120117 C14.97885772 0.51168797 23.06527173 1.26252445 31.22753906 2.90893555 C29.85770404 6.0700933 29.23847527 6.90164474 26.22753906 8.90893555 C23.11816406 8.44799805 23.11816406 8.44799805 19.47753906 7.53393555 C12.92209435 5.90216901 7.1054518 5.58830571 0.41503906 6.40893555 C-3.05856217 6.7937199 -6.40433112 6.92692241 -9.89746094 6.84643555 C-14.51338625 6.78070243 -18.35474479 7.59998261 -22.77246094 8.90893555 C-22.77246094 8.24893555 -22.77246094 7.58893555 -22.77246094 6.90893555 C-22.11246094 6.57893555 -21.45246094 6.24893555 -20.77246094 5.90893555 C-26.29597683 6.28380371 -26.29597683 6.28380371 -31.27246094 8.40893555 C-34.75932658 10.50105493 -37.7385635 10.56707983 -41.77246094 10.90893555 C-39.31234897 8.05951293 -36.79138534 6.84107952 -33.33496094 5.40893555 C-32.3875 5.00674805 -31.44003906 4.60456055 -30.46386719 4.19018555 C-20.12145365 0.60043778 -10.87265755 -0.47517008 0 0 Z " fill="#929499" transform="translate(91.7724609375,10.091064453125)"/>
<path d="M0 0 C2.0839403 0.11443603 4.16716493 0.24195547 6.25 0.375 C7.41015625 0.44460938 8.5703125 0.51421875 9.765625 0.5859375 C13 1 13 1 15.015625 2.01953125 C17.84840125 3.41919038 20.35209821 3.24633835 23.5 3.3125 C33.33413206 3.81532681 42.54010395 6.39732809 52 9 C52.495 10.98 52.495 10.98 53 13 C52.40832031 12.855625 51.81664062 12.71125 51.20703125 12.5625 C47.07470059 11.59177306 43.2770238 10.72406298 39 11 C39.495 11.99 39.495 11.99 40 13 C38.68 13 37.36 13 36 13 C35.67 13.66 35.34 14.32 35 15 C30.64884653 17.71947092 25.97130992 17.96111992 21 17 C18.59181688 14.35099857 17.41607387 12.24364936 16.2890625 8.875 C15.08632608 6.70314636 15.08632608 6.70314636 12.1796875 6.171875 C11.08914062 6.03265625 9.99859375 5.8934375 8.875 5.75 C7.77929688 5.60046875 6.68359375 5.4509375 5.5546875 5.296875 C4.71164063 5.19890625 3.86859375 5.1009375 3 5 C3.66 4.34 4.32 3.68 5 3 C2.525 2.01 2.525 2.01 0 1 C0 0.67 0 0.34 0 0 Z " fill="#888D91" transform="translate(123,10)"/>
<path d="M0 0 C1.02158203 0.00966797 2.04316406 0.01933594 3.09570312 0.02929688 C4.67834961 0.06700195 4.67834961 0.06700195 6.29296875 0.10546875 C7.90461914 0.12577148 7.90461914 0.12577148 9.54882812 0.14648438 C12.1932233 0.18174298 14.83658623 0.23102509 17.48046875 0.29296875 C17.48046875 0.95296875 17.48046875 1.61296875 17.48046875 2.29296875 C16.36671875 2.64359375 15.25296875 2.99421875 14.10546875 3.35546875 C9.49603928 5.06870802 5.83841979 7.69362717 1.88671875 10.578125 C-1.13615354 12.73241223 -4.27420024 14.49767925 -7.51953125 16.29296875 C-7.84953125 16.62296875 -8.17953125 16.95296875 -8.51953125 17.29296875 C-10.53547707 17.52724653 -12.55800525 17.70632999 -14.58203125 17.85546875 C-16.23912109 17.98115234 -16.23912109 17.98115234 -17.9296875 18.109375 C-18.78433594 18.16996094 -19.63898438 18.23054688 -20.51953125 18.29296875 C-20.51953125 17.63296875 -20.51953125 16.97296875 -20.51953125 16.29296875 C-21.50953125 16.29296875 -22.49953125 16.29296875 -23.51953125 16.29296875 C-23.51953125 15.63296875 -23.51953125 14.97296875 -23.51953125 14.29296875 C-21.64453125 12.54296875 -21.64453125 12.54296875 -18.51953125 11.29296875 C-15.09569632 11.63273863 -11.83751485 12.39743531 -8.51953125 13.29296875 C-10.16953125 12.96296875 -11.81953125 12.63296875 -13.51953125 12.29296875 C-13.02453125 11.55046875 -12.52953125 10.80796875 -12.01953125 10.04296875 C-10.2002965 7.22978687 -10.2002965 7.22978687 -10.51953125 3.29296875 C-7.05496081 0.508988 -4.37490705 -0.07332246 0 0 Z " fill="#4E4D56" transform="translate(96.51953125,30.70703125)"/>
<path d="M0 0 C2.97 0.495 2.97 0.495 6 1 C7.36327078 5.08981234 7.22385809 8.90349523 7.25 13.1875 C7.270625 14.01314453 7.29125 14.83878906 7.3125 15.68945312 C7.34900921 21.48072604 6.41888242 25.72190461 4 31 C3.34 31.66 2.68 32.32 2 33 C1.01 33 0.02 33 -1 33 C-3 30 -3 30 -3 27 C-3.66 27 -4.32 27 -5 27 C-6.36952673 24.26094655 -6.12621361 22.02912668 -6 19 C-5.67 18.34 -5.34 17.68 -5 17 C-4.34 17 -3.68 17 -3 17 C-3.020625 16.195625 -3.04125 15.39125 -3.0625 14.5625 C-3 12 -3 12 -2 11 C-2.061875 10.236875 -2.12375 9.47375 -2.1875 8.6875 C-2 6 -2 6 0 3.6875 C0.99 2.8521875 0.99 2.8521875 2 2 C1.34 2 0.68 2 0 2 C0 1.34 0 0.68 0 0 Z " fill="#111110" transform="translate(170,31)"/>
<path d="M0 0 C-0.33 0.70125 -0.66 1.4025 -1 2.125 C-2.09044562 5.26003116 -2.15322643 7.70563182 -2 11 C-2.99 10.896875 -3.98 10.79375 -5 10.6875 C-9.24988571 10.64439771 -11.75797435 12.45187529 -15.10546875 14.90625 C-17 16 -17 16 -21 16 C-21.99 12.04 -22.98 8.08 -24 4 C-20.75490798 2.94025593 -17.50548769 1.90186871 -14.25 0.875 C-13.32960937 0.57207031 -12.40921875 0.26914062 -11.4609375 -0.04296875 C-10.57148438 -0.32011719 -9.68203125 -0.59726562 -8.765625 -0.8828125 C-7.94868164 -1.14465332 -7.13173828 -1.40649414 -6.29003906 -1.67626953 C-3.52171674 -2.06761232 -2.32979604 -1.46430956 0 0 Z " fill="#7D7E7F" transform="translate(149,36)"/>
<path d="M0 0 C4.0591893 0.05808061 6.60499706 0.48620953 9.75 3.25 C11.125 5.75 11.125 5.75 11.75 8.25 C11.42 9.24 11.09 10.23 10.75 11.25 C10.05132812 11.22679687 9.35265625 11.20359375 8.6328125 11.1796875 C7.72273438 11.16164063 6.81265625 11.14359375 5.875 11.125 C4.97007812 11.10179687 4.06515625 11.07859375 3.1328125 11.0546875 C0.56193006 11.00675164 0.56193006 11.00675164 -1.25 13.25 C-1.89767793 15.82061311 -1.89767793 15.82061311 -2.25 18.25 C-3.24 18.25 -4.23 18.25 -5.25 18.25 C-6.9 14.29 -8.55 10.33 -10.25 6.25 C-4.08108108 0.08108108 -4.08108108 0.08108108 0 0 Z " fill="#BCC5CF" transform="translate(130.25,14.75)"/>
<path d="M0 0 C0 1 0 2 0 3 C5.28 2.34 10.56 1.68 16 1 C15.01 2.32 14.02 3.64 13 5 C13.66 5.66 14.32 6.32 15 7 C15 9.66666667 15 12.33333333 15 15 C12.20127563 12.47211993 10.54226981 10.79588866 10 7 C9.01 7.33 8.02 7.66 7 8 C4.29116871 8.39229375 1.592808 8.74756965 -1.125 9.0625 C-1.88675537 9.15192871 -2.64851074 9.24135742 -3.43334961 9.33349609 C-8.65599958 9.91830813 -13.74132033 10.19122472 -19 10 C-15.96218242 6.6986609 -12.79842776 4.46004112 -8.9375 2.1875 C-7.37322266 1.24970703 -7.37322266 1.24970703 -5.77734375 0.29296875 C-3 -1 -3 -1 0 0 Z " fill="#48464B" transform="translate(73,48)"/>
<path d="M0 0 C2.29013653 3.4352048 2.17842973 4.985331 2 9 C5.05847848 9.54372951 7.88772805 10 11 10 C10.67 10.33 10.34 10.66 10 11 C27.9651616 12.78687662 27.9651616 12.78687662 46 13 C45.01 12.01 44.02 11.02 43 10 C48.70704997 11.81587953 48.70704997 11.81587953 50.671875 13.05078125 C54.20490017 14.49125963 57.74439742 14.32844059 61.5 14.3125 C62.63888672 14.33666992 62.63888672 14.33666992 63.80078125 14.36132812 C67.2250162 14.36432658 69.56094224 14.26357017 72.53125 12.48046875 C73.0159375 11.99191406 73.500625 11.50335938 74 11 C73.67 11.99 73.34 12.98 73 14 C74.32 14.99 75.64 15.98 77 17 C59.4144431 17.65020546 42.08056748 16.57615073 24.5625 15.125 C23.47936523 15.03786743 22.39623047 14.95073486 21.28027344 14.86096191 C18.16634017 14.60771325 15.05381214 14.34162955 11.94140625 14.0703125 C10.9976564 13.99311981 10.05390656 13.91592712 9.08155823 13.83639526 C8.20716599 13.75648346 7.33277374 13.67657166 6.43188477 13.59423828 C5.28829247 13.49431076 5.28829247 13.49431076 4.12159729 13.3923645 C2 13 2 13 -2 11 C-1.34 7.37 -0.68 3.74 0 0 Z " fill="#413E3D" transform="translate(11,55)"/>
<path d="M0 0 C1.21236328 0.01353516 1.21236328 0.01353516 2.44921875 0.02734375 C3.37154297 0.04474609 3.37154297 0.04474609 4.3125 0.0625 C3.4375 5.8125 3.4375 5.8125 2.3125 8.0625 C7.5925 8.0625 12.8725 8.0625 18.3125 8.0625 C18.3125 8.3925 18.3125 8.7225 18.3125 9.0625 C-0.1675 9.0625 -18.6475 9.0625 -37.6875 9.0625 C-37.6875 8.4025 -37.6875 7.7425 -37.6875 7.0625 C-36.94588623 7.03744385 -36.20427246 7.0123877 -35.44018555 6.98657227 C-32.08494672 6.87063868 -28.72999056 6.74790015 -25.375 6.625 C-23.62413086 6.56602539 -23.62413086 6.56602539 -21.83789062 6.50585938 C-20.71962891 6.46396484 -19.60136719 6.42207031 -18.44921875 6.37890625 C-17.41756592 6.34224854 -16.38591309 6.30559082 -15.32299805 6.26782227 C-12.58001742 6.16088758 -12.58001742 6.16088758 -9.6875 5.0625 C-9.3575 4.4025 -9.0275 3.7425 -8.6875 3.0625 C-6.88341097 -0.54567807 -3.60175697 -0.05219938 0 0 Z " fill="#212531" transform="translate(88.6875,19.9375)"/>
<path d="M0 0 C1.65 0 3.3 0 5 0 C5 1.65 5 3.3 5 5 C5.66 4.34 6.32 3.68 7 3 C7.99 3.99 8.98 4.98 10 6 C10.33 4.68 10.66 3.36 11 2 C12.32 3.32 13.64 4.64 15 6 C13.25 11.75 13.25 11.75 11 14 C11.66 14.33 12.32 14.66 13 15 C11.3125 16.625 11.3125 16.625 9 18 C4.96259703 17.09158433 2.72432545 15.02702828 0 12 C0.66 11.01 1.32 10.02 2 9 C2.99 9 3.98 9 5 9 C5.33 8.34 5.66 7.68 6 7 C3.69 7.33 1.38 7.66 -1 8 C-0.67 5.36 -0.34 2.72 0 0 Z " fill="#0C0C0C" transform="translate(109,58)"/>
<path d="M0 0 C0.99 0 1.98 0 3 0 C3 0.99 3 1.98 3 3 C3.66 3 4.32 3 5 3 C3.06375702 9.20477864 0.74390859 15.10825719 -2 21 C-3 19 -3 19 -2.0625 15.875 C-1.711875 14.92625 -1.36125 13.9775 -1 13 C-1.928125 13.515625 -2.85625 14.03125 -3.8125 14.5625 C-7 16 -7 16 -10 15 C-10.34833144 10.12335991 -9.41685712 7.22949995 -7 3 C-4.03 3.495 -4.03 3.495 -1 4 C-0.67 2.68 -0.34 1.36 0 0 Z " fill="#4F4F4A" transform="translate(156,32)"/>
<path d="M0 0 C2.8125 -0.25 2.8125 -0.25 6 0 C7.9375 1.6875 7.9375 1.6875 9 4 C8.6875 6.75 8.6875 6.75 8 9 C8.66 8.67 9.32 8.34 10 8 C10 9.65 10 11.3 10 13 C8.02 13.99 8.02 13.99 6 15 C5.67 14.67 5.34 14.34 5 14 C4.67 14.66 4.34 15.32 4 16 C3.34 16 2.68 16 2 16 C2 15.34 2 14.68 2 14 C0.02 14.33 -1.96 14.66 -4 15 C-3.34 13.68 -2.68 12.36 -2 11 C-1.67 11.66 -1.34 12.32 -1 13 C-0.67 12.67 -0.34 12.34 0 12 C-0.25245197 10.30247813 -0.57645775 8.61528455 -0.9375 6.9375 C-1.13214844 6.01839844 -1.32679687 5.09929688 -1.52734375 4.15234375 C-1.68332031 3.44207031 -1.83929688 2.73179688 -2 2 C-1.34 2 -0.68 2 0 2 C0 1.34 0 0.68 0 0 Z " fill="#242425" transform="translate(115,41)"/>
<path d="M0 0 C0.84965332 0.06533936 1.69930664 0.13067871 2.57470703 0.19799805 C4.26322781 0.33009978 5.95111494 0.47060925 7.63818359 0.62011719 C9.57466875 0.78214207 11.5158875 0.88607633 13.45703125 0.9765625 C14.39933594 1.02554688 15.34164062 1.07453125 16.3125 1.125 C17.10398437 1.16238281 17.89546875 1.19976562 18.7109375 1.23828125 C21.77019649 2.02724804 23.60018842 3.74360759 25.9375 5.8125 C12.85445093 6.18989565 -0.04507939 5.02868838 -13.0625 3.8125 C-9.4084064 -1.31517903 -5.69442067 -0.53291809 0 0 Z " fill="#030304" transform="translate(33.0625,63.1875)"/>
<path d="M0 0 C0.495 0.99 0.495 0.99 1 2 C2.98 2 4.96 2 7 2 C6 4 6 4 4.08569336 4.74609375 C3.26206299 4.97425781 2.43843262 5.20242187 1.58984375 5.4375 C0.68169922 5.69273438 -0.22644531 5.94796875 -1.16210938 6.2109375 C-2.11923828 6.47132812 -3.07636719 6.73171875 -4.0625 7 C-5.45758789 7.39058594 -5.45758789 7.39058594 -6.88085938 7.7890625 C-11.0555029 8.95080448 -15.21835575 10.05205492 -19.44921875 10.98828125 C-22.87680075 11.96489702 -24.33929629 12.67535579 -26.75 15.1875 C-28.359375 16.85546875 -28.359375 16.85546875 -30 18 C-32.203125 17.67578125 -32.203125 17.67578125 -34 17 C-33.21625 16.79375 -32.4325 16.5875 -31.625 16.375 C-28.75063478 15.20753005 -28.75063478 15.20753005 -27.6875 12.1875 C-27.06945761 9.32203075 -26.82856667 6.91436667 -27 4 C-25.68 3.67 -24.36 3.34 -23 3 C-23.33 5.31 -23.66 7.62 -24 10 C-23.44538086 9.75241943 -22.89076172 9.50483887 -22.31933594 9.24975586 C-19.80132869 8.13371312 -17.27592804 7.03549049 -14.75 5.9375 C-13.87730469 5.54755859 -13.00460938 5.15761719 -12.10546875 4.75585938 C-11.26113281 4.39169922 -10.41679687 4.02753906 -9.546875 3.65234375 C-8.77182617 3.31195068 -7.99677734 2.97155762 -7.19824219 2.62084961 C-4.71037218 1.9182004 -3.40895758 2.15302587 -1 3 C-0.67 2.01 -0.34 1.02 0 0 Z " fill="#656468" transform="translate(150,55)"/>
<path d="M0 0 C2.35171131 0.59861742 4.6859378 1.26924352 7 2 C7.33 2.66 7.66 3.32 8 4 C-0.90212957 7.55191619 -9.41562198 10.82225863 -19 12 C-19 10.68 -19 9.36 -19 8 C-16.69 8 -14.38 8 -12 8 C-12 6.35 -12 4.7 -12 3 C-10.95199219 2.92652344 -10.95199219 2.92652344 -9.8828125 2.8515625 C-8.97273437 2.77679687 -8.06265625 2.70203125 -7.125 2.625 C-6.22007812 2.55539063 -5.31515625 2.48578125 -4.3828125 2.4140625 C-1.82058097 2.20431868 -1.82058097 2.20431868 0 0 Z " fill="#A4A5AA" transform="translate(144,28)"/>
<path d="M0 0 C0.66 0.33 1.32 0.66 2 1 C2 1.66 2 2.32 2 3 C2.66 3.33 3.32 3.66 4 4 C2.02 4.99 2.02 4.99 0 6 C0 6.66 0 7.32 0 8 C-9.7174802 8.58304881 -16.62240048 8.51935969 -25 3 C-24.67 2.34 -24.34 1.68 -24 1 C-20.37 1 -16.74 1 -13 1 C-13 1.66 -13 2.32 -13 3 C-12.01 2.67 -11.02 2.34 -10 2 C-8.824375 2.309375 -8.824375 2.309375 -7.625 2.625 C-4.15956172 3.12006261 -2.86111365 1.8558575 0 0 Z " fill="#242225" transform="translate(79,62)"/>
<path d="M0 0 C24.27419355 -0.36290323 24.27419355 -0.36290323 29 2 C28.34 3.32 27.68 4.64 27 6 C23.99978513 5.85785272 20.99988211 5.71138304 18 5.5625 C17.16082031 5.52318359 16.32164063 5.48386719 15.45703125 5.44335938 C10.25986542 5.18148668 5.15542847 4.7100648 0 4 C0 2.68 0 1.36 0 0 Z " fill="#131212" transform="translate(25,58)"/>
<path d="M0 0 C7.61644202 1.24859705 13.38827536 4.07004031 20 8 C19.67 9.32 19.34 10.64 19 12 C14.94499259 12.34429308 11.04464768 12.51840611 7 12 C4.4375 9.375 4.4375 9.375 3 6 C2.4225 4.88625 1.845 3.7725 1.25 2.625 C0.8375 1.75875 0.425 0.8925 0 0 Z " fill="#262729" transform="translate(137,15)"/>
<path d="M0 0 C0.7139946 0.00045822 1.4279892 0.00091644 2.16362 0.00138855 C3.67411968 0.00440772 5.18461634 0.01228404 6.69506836 0.0246582 C8.99278971 0.04281914 11.29010524 0.04516839 13.58789062 0.04492188 C15.05859719 0.04984136 16.52930106 0.05567155 18 0.0625 C18.68145584 0.06361282 19.36291168 0.06472565 20.0650177 0.06587219 C24.04009201 0.10485527 27.79764733 0.47223955 31.69921875 1.23046875 C30.32938372 4.39162651 29.71015495 5.22317795 26.69921875 7.23046875 C24.4375 6.98828125 24.4375 6.98828125 22.01171875 6.35546875 C21.20347656 6.15179687 20.39523438 5.948125 19.5625 5.73828125 C18.94761719 5.57070313 18.33273438 5.403125 17.69921875 5.23046875 C19.01921875 4.57046875 20.33921875 3.91046875 21.69921875 3.23046875 C11.13921875 2.90046875 0.57921875 2.57046875 -10.30078125 2.23046875 C-6.71029105 -0.16319138 -4.14265992 -0.04329588 0 0 Z " fill="#79797F" transform="translate(91.30078125,11.76953125)"/>
<path d="M0 0 C-3 2 -3 2 -5 2 C-5 2.66 -5 3.32 -5 4 C-8.02734375 4.24414062 -8.02734375 4.24414062 -11.0546875 4.48828125 C-13.39519216 4.87393036 -13.39519216 4.87393036 -15 8 C-17.828125 9.1328125 -17.828125 9.1328125 -21.25 10.125 C-22.36890625 10.45757812 -23.4878125 10.79015625 -24.640625 11.1328125 C-27.75391253 11.9364751 -30.82137115 12.52802178 -34 13 C-32.11624056 8.90005298 -30.20127238 7.15904657 -25.96484375 5.546875 C-23.9189327 4.97743654 -21.98674313 4.70758156 -19.875 4.5 C-15.96203157 3.99510085 -14.23358006 3.09745733 -11 1 C-7.30324679 -0.04267398 -3.82798594 -0.08902293 0 0 Z " fill="#5D6571" transform="translate(74,15)"/>
<path d="M0 0 C4.84688192 0.78175515 9.3766367 2.39844278 14 4 C14.3125 6.25 14.3125 6.25 14 9 C11.9375 11.4375 11.9375 11.4375 9 13 C5.1875 12.25 5.1875 12.25 2 11 C2 8.03 2 5.06 2 2 C1.34 2 0.68 2 0 2 C0 1.34 0 0.68 0 0 Z " fill="#060606" transform="translate(10,53)"/>
<path d="M0 0 C0.66 0.33 1.32 0.66 2 1 C1.62875 1.515625 1.2575 2.03125 0.875 2.5625 C-0.40331649 6.12352451 0.79449265 8.5174232 2 12 C-0.31 12.33 -2.62 12.66 -5 13 C-5.66 14.98 -6.32 16.96 -7 19 C-8.32 18.67 -9.64 18.34 -11 18 C-11.33 18.66 -11.66 19.32 -12 20 C-12.66 19.67 -13.32 19.34 -14 19 C-9.67395328 12.31329326 -5.36285173 5.89913691 0 0 Z " fill="#5C5F64" transform="translate(23,33)"/>
<path d="M0 0 C15.93763155 -0.23716714 31.33936793 -0.26140743 47 3 C44.66785852 4.20628008 42.50357861 5.1654738 40 6 C39.505 4.515 39.505 4.515 39 3 C37.83271362 3.00870117 37.83271362 3.00870117 36.6418457 3.01757812 C28.47718972 3.05162539 20.34425923 2.84393173 12.1875 2.5 C11.00607422 2.45230469 9.82464844 2.40460937 8.60742188 2.35546875 C5.7381777 2.23930502 2.86905254 2.12078869 0 2 C0 1.34 0 0.68 0 0 Z " fill="#ABAEB1" transform="translate(85,9)"/>
<path d="M0 0 C2.74128793 4.1119319 2.33091869 7.35811936 2.3125 12.1875 C2.32861328 13.01314453 2.34472656 13.83878906 2.36132812 14.68945312 C2.36586076 20.44136903 1.51558802 24.79797606 -1 30 C-1.99 30.33 -2.98 30.66 -4 31 C-3.79375 30.13375 -3.5875 29.2675 -3.375 28.375 C-2.95440388 24.58963488 -3.50196207 22.46914048 -5 19 C-5.66 18.34 -6.32 17.68 -7 17 C-4.09399739 15.74335022 -2.20395416 15 1 15 C0.84402344 14.00097656 0.68804687 13.00195312 0.52734375 11.97265625 C0.23537109 10.03712891 0.23537109 10.03712891 -0.0625 8.0625 C-0.25972656 6.77472656 -0.45695313 5.48695312 -0.66015625 4.16015625 C-0.77230469 3.11730469 -0.88445312 2.07445312 -1 1 C-0.67 0.67 -0.34 0.34 0 0 Z " fill="#393A37" transform="translate(175,32)"/>
<path d="M0 0 C0.86625 -0.03738281 1.7325 -0.07476562 2.625 -0.11328125 C5 0.3125 5 0.3125 8 4.3125 C4.04 5.3025 0.08 6.2925 -4 7.3125 C-4 6.6525 -4 5.9925 -4 5.3125 C-3.34 4.9825 -2.68 4.6525 -2 4.3125 C-7.5235159 4.68736816 -7.5235159 4.68736816 -12.5 6.8125 C-15.98686565 8.90461939 -18.96610256 8.97064428 -23 9.3125 C-20.4461425 6.27979422 -17.64368206 5.1431867 -14 3.6875 C-12.948125 3.26210937 -11.89625 2.83671875 -10.8125 2.3984375 C-7.05159384 0.94630985 -4.02180137 0.11371165 0 0 Z " fill="#707C88" transform="translate(73,11.6875)"/>
<path d="M0 0 C0 0.66 0 1.32 0 2 C-0.969375 1.95875 -1.93875 1.9175 -2.9375 1.875 C-5.99909858 1.85020973 -8.606814 2.34349658 -11.5625 3.125 C-15.6144604 4.12411352 -18.13761998 3.78263693 -22 2 C-22.33 2.99 -22.66 3.98 -23 5 C-23.639375 5.268125 -24.27875 5.53625 -24.9375 5.8125 C-27.338822 6.91161165 -27.338822 6.91161165 -28.25 10.125 C-28.4975 11.07375 -28.745 12.0225 -29 13 C-29.66 13 -30.32 13 -31 13 C-31.66 10.69 -32.32 8.38 -33 6 C-24.53620318 -1.49650576 -10.84567006 -0.22134021 0 0 Z " fill="#54565F" transform="translate(55,30)"/>
<path d="M0 0 C1.134375 0.020625 2.26875 0.04125 3.4375 0.0625 C3.4375 3.6925 3.4375 7.3225 3.4375 11.0625 C-0.31885569 10.31122886 -2.39460307 9.82244274 -5.5625 8.0625 C-4.54651535 0.07976343 -4.54651535 0.07976343 0 0 Z " fill="#393B40" transform="translate(21.5625,44.9375)"/>
<path d="M0 0 C1.23621094 0.2784375 2.47242188 0.556875 3.74609375 0.84375 C5.14021484 1.16859375 5.14021484 1.16859375 6.5625 1.5 C5.9025 2.82 5.2425 4.14 4.5625 5.5 C2.0875 5.005 2.0875 5.005 -0.4375 4.5 C-0.4375 3.51 -0.4375 2.52 -0.4375 1.5 C-6.31028699 1.29108663 -10.85062016 1.55673745 -16.4375 3.5 C-19.13032546 3.66707311 -21.73556718 3.5931701 -24.4375 3.5 C-24.4375 2.84 -24.4375 2.18 -24.4375 1.5 C-22.92088673 0.98734199 -21.39890553 0.49055677 -19.875 0 C-19.02808594 -0.2784375 -18.18117188 -0.556875 -17.30859375 -0.84375 C-11.29853968 -2.21747665 -5.9392629 -1.35754581 0 0 Z " fill="#55555D" transform="translate(111.4375,16.5)"/>
<path d="M0 0 C1.8125 0.125 1.8125 0.125 4 1 C5.8125 3.875 5.8125 3.875 7 7 C6.67 7.99 6.34 8.98 6 10 C1.33333333 10 -3.33333333 10 -8 10 C-4.25 6.125 -4.25 6.125 -2 5 C-2 4.01 -2 3.02 -2 2 C-1.34 2 -0.68 2 0 2 C0 1.34 0 0.68 0 0 Z " fill="#DAD8D8" transform="translate(135,16)"/>
<path d="M0 0 C0 0.66 0 1.32 0 2 C-7.19977409 3.43385331 -14.40012801 4.48114114 -21.69140625 5.30224609 C-25.46658053 5.70463218 -25.46658053 5.70463218 -29 7 C-29 6.34 -29 5.68 -29 5 C-34.28 4.67 -39.56 4.34 -45 4 C-45 3.67 -45 3.34 -45 3 C-44.14664063 3.03480469 -43.29328125 3.06960937 -42.4140625 3.10546875 C-29.95784328 3.37513948 -17.81354697 1.87149766 -5.47338867 0.27539062 C-3 0 -3 0 0 0 Z " fill="#2C2A2C" transform="translate(83,55)"/>
<path d="M0 0 C0.66 0.33 1.32 0.66 2 1 C1.67 1.33 1.34 1.66 1 2 C2.299375 2.12375 3.59875 2.2475 4.9375 2.375 C7.15234375 2.5859375 7.15234375 2.5859375 9 3 C9.33 3.66 9.66 4.32 10 5 C6.46449375 6.17850208 3.34666349 6.29527195 -0.375 6.5 C-5.64753406 6.78122684 -5.64753406 6.78122684 -10.8515625 7.59375 C-13 8 -13 8 -15 7 C-13.43880578 6.20576139 -11.87598036 5.41472877 -10.3125 4.625 C-9.00732422 3.96371094 -9.00732422 3.96371094 -7.67578125 3.2890625 C-5.13770767 2.06634092 -2.67044647 0.90076388 0 0 Z " fill="#636A77" transform="translate(40,25)"/>
<path d="M0 0 C2.92879371 0.62759865 5.36095629 1.58622659 8 3 C8 4.98 8 6.96 8 9 C7.195625 8.814375 6.39125 8.62875 5.5625 8.4375 C4.716875 8.293125 3.87125 8.14875 3 8 C2.67 8.33 2.34 8.66 2 9 C0.00041636 9.04080783 -2.00045254 9.04254356 -4 9 C-4.33 8.01 -4.66 7.02 -5 6 C-3.59554165 3.7363436 -1.8032087 1.9791315 0 0 Z " fill="#A3A4A6" transform="translate(167,24)"/>
<path d="M0 0 C0.33 0.66 0.66 1.32 1 2 C2.670625 1.7215625 2.670625 1.7215625 4.375 1.4375 C8 1 8 1 10 2 C9 5 9 5 7 6 C6.34444881 8.52733235 6.34444881 8.52733235 6 11 C4.824375 11.2165625 4.824375 11.2165625 3.625 11.4375 C1.03578982 11.87798925 1.03578982 11.87798925 -1 13 C-0.67 8.71 -0.34 4.42 0 0 Z " fill="#545451" transform="translate(162,31)"/>
<path d="M0 0 C1.65 1.32 3.3 2.64 5 4 C3.25 9.75 3.25 9.75 1 12 C1.66 12.33 2.32 12.66 3 13 C1.3125 14.625 1.3125 14.625 -1 16 C-5.03740297 15.09158433 -7.27567455 13.02702828 -10 10 C-9.34 9.01 -8.68 8.02 -8 7 C-8 7.66 -8 8.32 -8 9 C-5.69 9.66 -3.38 10.32 -1 11 C-0.12132271 7.26562152 0.08912219 3.83225427 0 0 Z " fill="#1A1A1B" transform="translate(119,60)"/>
<path d="M0 0 C0.33 0.66 0.66 1.32 1 2 C2.32 2 3.64 2 5 2 C4 5 4 5 1.9375 6.6875 C-2.05298965 8.47048474 -4.63955764 8.35164858 -9 8 C-9.99 7.34 -10.98 6.68 -12 6 C-11.01 5.67 -10.02 5.34 -9 5 C-9 4.34 -9 3.68 -9 3 C-2.25 1.875 -2.25 1.875 0 3 C0 2.01 0 1.02 0 0 Z " fill="#2A2828" transform="translate(110,63)"/>
<path d="M0 0 C0 3.15084005 -0.45473667 4.33871316 -2 7 C-2.66 7.66 -3.32 8.32 -4 9 C-4.45375 9.53625 -4.9075 10.0725 -5.375 10.625 C-7 12 -7 12 -11 12 C-11.33 10.02 -11.66 8.04 -12 6 C-10.68 6 -9.36 6 -8 6 C-7.79375 5.38125 -7.5875 4.7625 -7.375 4.125 C-5.45224112 1.15346355 -3.33405473 0.86975341 0 0 Z " fill="#60605E" transform="translate(139,40)"/>
<path d="M0 0 C2.29013653 3.4352048 2.17842973 4.985331 2 9 C5.05847848 9.54372951 7.88772805 10 11 10 C10.67 10.33 10.34 10.66 10 11 C17.425 11.99 17.425 11.99 25 13 C25 13.33 25 13.66 25 14 C16.10747704 14.26197285 7.75003718 13.6039348 -1 12 C-1 7.8725485 -0.54466387 4.084979 0 0 Z " fill="#3F3F40" transform="translate(11,55)"/>
<path d="M0 0 C2.3125 0.125 2.3125 0.125 5 1 C6.8125 4.0625 6.8125 4.0625 8 7 C5.6166139 10.14947449 3.44915025 12.9972676 0 15 C-0.99 14.67 -1.98 14.34 -3 14 C-2.01 12.02 -1.02 10.04 0 8 C0.66 8 1.32 8 2 8 C1.34 5.36 0.68 2.72 0 0 Z " fill="#242322" transform="translate(86,55)"/>
<path d="M0 0 C2.8086289 2.8086289 2.72711179 5.11134294 3 9 C1 12 1 12 -2.125 12.6875 C-3.07375 12.790625 -4.0225 12.89375 -5 13 C-4.93976735 11.39479996 -4.85091401 9.79065673 -4.75 8.1875 C-4.70359375 7.29417969 -4.6571875 6.40085937 -4.609375 5.48046875 C-4 3 -4 3 -1.953125 1.17578125 C-1.30859375 0.78777344 -0.6640625 0.39976563 0 0 Z " fill="#1A1A19" transform="translate(172,34)"/>
<path d="M0 0 C2.86544183 3.23919511 3.34536289 5.79161859 4 10 C4.66 10.33 5.32 10.66 6 11 C3.36 11.33 0.72 11.66 -2 12 C-3.25 9.375 -3.25 9.375 -4 6 C-2.125 2.625 -2.125 2.625 0 0 Z " fill="#AAADB6" transform="translate(119,23)"/>
<path d="M0 0 C2.98704569 0.49784095 4.39324263 1.26216175 7 3 C8.17784957 6.63170285 7.94252722 9.33461636 7 13 C6.01 13 5.02 13 4 13 C2.35 9.04 0.7 5.08 -1 1 C-0.67 0.67 -0.34 0.34 0 0 Z " fill="#BDC2C7" transform="translate(121,20)"/>
<path d="M0 0 C0.99 0 1.98 0 3 0 C2.67 2.31 2.34 4.62 2 7 C2.928125 6.484375 3.85625 5.96875 4.8125 5.4375 C8 4 8 4 11 5 C10.33613281 5.30292969 9.67226562 5.60585938 8.98828125 5.91796875 C3.03546167 8.6556607 3.03546167 8.6556607 -1.875 12.875 C-2.57625 13.57625 -3.2775 14.2775 -4 15 C-6.3125 14.8125 -6.3125 14.8125 -8 14 C-7.21625 13.79375 -6.4325 13.5875 -5.625 13.375 C-2.75063478 12.20753005 -2.75063478 12.20753005 -1.6875 9.1875 C-1.06893182 6.31959301 -0.91676667 3.91316668 -1 1 C-0.67 0.67 -0.34 0.34 0 0 Z " fill="#545252" transform="translate(124,58)"/>
<path d="M0 0 C4.29 0 8.58 0 13 0 C13 0.66 13 1.32 13 2 C9.7 2 6.4 2 3 2 C3 3.65 3 5.3 3 7 C0.36 7.33 -2.28 7.66 -5 8 C-5.33 7.34 -5.66 6.68 -6 6 C-5.01 6 -4.02 6 -3 6 C-3 5.34 -3 4.68 -3 4 C-2.34 3.67 -1.68 3.34 -1 3 C-0.67 2.01 -0.34 1.02 0 0 Z " fill="#171515" transform="translate(129,29)"/>
<path d="M0 0 C0.33 0 0.66 0 1 0 C1 1.98 1 3.96 1 6 C0.01 6 -0.98 6 -2 6 C-2 6.99 -2 7.98 -2 9 C-3.65 9 -5.3 9 -7 9 C-7.33 11.31 -7.66 13.62 -8 16 C-8.66 15.67 -9.32 15.34 -10 15 C-10.34833144 10.12335991 -9.41685712 7.22949995 -7 3 C-4.03 3.495 -4.03 3.495 -1 4 C-0.67 2.68 -0.34 1.36 0 0 Z " fill="#585954" transform="translate(156,32)"/>
<path d="M0 0 C0.33 0.66 0.66 1.32 1 2 C-2.73572939 8.62790698 -2.73572939 8.62790698 -6.3359375 9.6875 C-8.57451466 9.91347624 -10.75107018 10.0342974 -13 10 C-12.19140625 8.06640625 -12.19140625 8.06640625 -11 6 C-9.00827818 5.30899447 -7.00838196 4.64097297 -5 4 C-4.67 3.01 -4.34 2.02 -4 1 C-1.9375 0.3125 -1.9375 0.3125 0 0 Z " fill="#1B1A1B" transform="translate(153,49)"/>
<path d="M0 0 C0.90492188 0.02320312 1.80984375 0.04640625 2.7421875 0.0703125 C4.10730469 0.09738281 4.10730469 0.09738281 5.5 0.125 C6.19867188 0.14820312 6.89734375 0.17140625 7.6171875 0.1953125 C7.6171875 0.8553125 7.6171875 1.5153125 7.6171875 2.1953125 C8.2771875 2.5253125 8.9371875 2.8553125 9.6171875 3.1953125 C9.2871875 3.8553125 8.9571875 4.5153125 8.6171875 5.1953125 C4.3271875 4.8653125 0.0371875 4.5353125 -4.3828125 4.1953125 C-4.7128125 5.1853125 -5.0428125 6.1753125 -5.3828125 7.1953125 C-4.30239292 0.35265516 -4.30239292 0.35265516 0 0 Z " fill="#59595D" transform="translate(133.3828125,24.8046875)"/>
<path d="M0 0 C1.65 0 3.3 0 5 0 C-1.125 6.125 -1.125 6.125 -7.0625 6.5625 C-8.16722656 6.64628906 -9.27195312 6.73007812 -10.41015625 6.81640625 C-11.69212891 6.90728516 -11.69212891 6.90728516 -13 7 C-13 6.34 -13 5.68 -13 5 C-13.99 5 -14.98 5 -16 5 C-16 4.34 -16 3.68 -16 3 C-15.195625 3.185625 -14.39125 3.37125 -13.5625 3.5625 C-9.21746916 4.09610028 -5.31010276 3.6225704 -1 3 C-0.67 2.01 -0.34 1.02 0 0 Z " fill="#949197" transform="translate(89,42)"/>
<path d="M0 0 C1.67542976 0.28604898 3.34385343 0.61781233 5 1 C5 1.33 5 1.66 5 2 C7.475 2.495 7.475 2.495 10 3 C10 3.66 10 4.32 10 5 C7.65147472 6.17426264 6.26225935 6.11508173 3.6484375 6.09765625 C2.79765625 6.09443359 1.946875 6.09121094 1.0703125 6.08789062 C0.18085937 6.07951172 -0.70859375 6.07113281 -1.625 6.0625 C-2.5221875 6.05798828 -3.419375 6.05347656 -4.34375 6.04882812 C-6.56256648 6.03702591 -8.78125018 6.02056155 -11 6 C-11 5.67 -11 5.34 -11 5 C-7.7 4.67 -4.4 4.34 -1 4 C-1 3.01 -1 2.02 -1 1 C-0.67 0.67 -0.34 0.34 0 0 Z " fill="#110F10" transform="translate(89,68)"/>
<path d="M0 0 C-0.61277612 2.96175123 -1.25372522 4.38058783 -3 7 C-3.66 6.67 -4.32 6.34 -5 6 C-4.34 4.68 -3.68 3.36 -3 2 C-7.81122847 3.52555966 -7.81122847 3.52555966 -11 7 C-12.65 6.67 -14.3 6.34 -16 6 C-16 5.01 -16 4.02 -16 3 C-14.27318563 2.49193553 -12.54342021 1.99389533 -10.8125 1.5 C-9.84957031 1.2215625 -8.88664063 0.943125 -7.89453125 0.65625 C-5.14654124 0.03322392 -2.80401584 -0.12302812 0 0 Z " fill="#757575" transform="translate(142,39)"/>
<path d="M0 0 C1.875 0.1875 1.875 0.1875 4 1 C6.89257512 5.48349143 6.17931081 10.86971842 6 16 C3.03 16.33 0.06 16.66 -3 17 C-2.34 15.68 -1.68 14.36 -1 13 C-1 13.66 -1 14.32 -1 15 C0.95894361 14.88693303 0.95894361 14.88693303 3 14 C4.29660434 11.50965614 4.29660434 11.50965614 5 9 C4.34 8.67 3.68 8.34 3 8 C2.5 5.5 2.5 5.5 2 3 C1.34 2.67 0.68 2.34 0 2 C0 1.34 0 0.68 0 0 Z " fill="#0E0E0C" transform="translate(170,31)"/>
<path d="M0 0 C6.16259181 -0.22615016 11.51972719 0.55850102 17.5 2 C18.32242188 2.19078125 19.14484375 2.3815625 19.9921875 2.578125 C21.99662407 3.04427304 23.99858863 3.52102976 26 4 C26 4.66 26 5.32 26 6 C20.39 5.34 14.78 4.68 9 4 C9 3.34 9 2.68 9 2 C8.443125 2.20625 7.88625 2.4125 7.3125 2.625 C4.340462 3.10695211 2.68020059 2.26565028 0 1 C0 0.67 0 0.34 0 0 Z " fill="#484C4D" transform="translate(147,16)"/>
<path d="M0 0 C0 0.66 0 1.32 0 2 C-3.3 2.66 -6.6 3.32 -10 4 C-10 4.66 -10 5.32 -10 6 C-13.82320557 7.42258812 -16.91281305 8.24042276 -21 8 C-21.33 7.34 -21.66 6.68 -22 6 C-18.7096777 4.99553896 -15.41753178 3.99719244 -12.125 3 C-11.18785156 2.71382812 -10.25070313 2.42765625 -9.28515625 2.1328125 C-8.38925781 1.86210938 -7.49335938 1.59140625 -6.5703125 1.3125 C-5.32918701 0.93544922 -5.32918701 0.93544922 -4.06298828 0.55078125 C-2 0 -2 0 0 0 Z " fill="#8F8F91" transform="translate(147,34)"/>
<path d="M0 0 C0.99 0.33 1.98 0.66 3 1 C3 1.66 3 2.32 3 3 C2.32453125 3.26554687 1.6490625 3.53109375 0.953125 3.8046875 C0.06109375 4.15789063 -0.8309375 4.51109375 -1.75 4.875 C-2.63171875 5.22304688 -3.5134375 5.57109375 -4.421875 5.9296875 C-9.00738587 7.54242275 -9.00738587 7.54242275 -12 11 C-13.32 10.67 -14.64 10.34 -16 10 C-13.70912072 8.51960151 -11.41734017 7.04063324 -9.125 5.5625 C-8.47402344 5.14162109 -7.82304688 4.72074219 -7.15234375 4.28710938 C-2.2265625 1.11328125 -2.2265625 1.11328125 0 0 Z " fill="#545256" transform="translate(70,47)"/>
<path d="M0 0 C0.33 0.66 0.66 1.32 1 2 C0.0625 4.625 0.0625 4.625 -1 7 C-8.625 8.25 -8.625 8.25 -12 6 C-11.38511719 5.73445313 -10.77023438 5.46890625 -10.13671875 5.1953125 C-9.32847656 4.84210937 -8.52023438 4.48890625 -7.6875 4.125 C-6.88699219 3.77695312 -6.08648437 3.42890625 -5.26171875 3.0703125 C-2.8038166 1.97428106 -2.8038166 1.97428106 0 0 Z " fill="#6B6867" transform="translate(110,44)"/>
<path d="M0 0 C0.66 0.33 1.32 0.66 2 1 C1.62875 1.515625 1.2575 2.03125 0.875 2.5625 C-0.40331649 6.12352451 0.79449265 8.5174232 2 12 C0.35 12.33 -1.3 12.66 -3 13 C-4.26226416 8.70830186 -3.7295879 6.09639239 -2 2 C-1.34 1.34 -0.68 0.68 0 0 Z " fill="#9EA9B4" transform="translate(23,33)"/>
<path d="M0 0 C1.6026782 -0.10824843 3.20745748 -0.18570645 4.8125 -0.25 C5.70582031 -0.29640625 6.59914063 -0.3428125 7.51953125 -0.390625 C10 0 10 0 13 4 C9.04 4.99 5.08 5.98 1 7 C1 6.34 1 5.68 1 5 C1.66 4.67 2.32 4.34 3 4 C1.35 4 -0.3 4 -2 4 C-1.34 2.68 -0.68 1.36 0 0 Z " fill="#6E7684" transform="translate(68,12)"/>
<path d="M0 0 C7.36259293 -0.22424141 13.87049629 0.09879901 21 2 C18.66785852 3.20628008 16.50357861 4.1654738 14 5 C13.67 4.01 13.34 3.02 13 2 C8.71 2 4.42 2 0 2 C0 1.34 0 0.68 0 0 Z " fill="#B8BCC3" transform="translate(111,10)"/>
<path d="M0 0 C1.87939453 0.14013672 1.87939453 0.14013672 4.1328125 0.6796875 C4.93847656 0.86660156 5.74414062 1.05351562 6.57421875 1.24609375 C7.83685547 1.55740234 7.83685547 1.55740234 9.125 1.875 C10.39923828 2.17470703 10.39923828 2.17470703 11.69921875 2.48046875 C13.80195068 2.97661898 15.90131799 3.48698884 18 4 C18.33 5.32 18.66 6.64 19 8 C18.01 7.67 17.02 7.34 16 7 C16 6.34 16 5.68 16 5 C14.700625 4.87625 13.40125 4.7525 12.0625 4.625 C7.28150048 4.10136672 2.66885899 3.13686165 -2 2 C-1.34 1.34 -0.68 0.68 0 0 Z " fill="#909398" transform="translate(157,15)"/>
<path d="M0 0 C0.66 0.33 1.32 0.66 2 1 C2 1.66 2 2.32 2 3 C2.66 3.33 3.32 3.66 4 4 C-1.02649303 5.57077907 -5.76119922 6.44854729 -11 7 C-10.01 6.67 -9.02 6.34 -8 6 C-8 5.34 -8 4.68 -8 4 C-5.33333333 2.66666667 -2.66666667 1.33333333 0 0 Z " fill="#161415" transform="translate(79,62)"/>
<path d="M0 0 C0.74121094 0.03996094 1.48242188 0.07992187 2.24609375 0.12109375 C4.12976622 0.24850852 6.00492606 0.49061614 7.875 0.75 C8.205 1.41 8.535 2.07 8.875 2.75 C6.47908962 2.77712351 4.08349043 2.7968982 1.6875 2.8125 C1.01396484 2.82087891 0.34042969 2.82925781 -0.35351562 2.83789062 C-4.07934131 2.85606538 -7.5038042 2.64299392 -11.125 1.75 C-7.28546982 -0.80968679 -4.39945326 -0.33247186 0 0 Z " fill="#10100F" transform="translate(46.125,64.25)"/>
<path d="M0 0 C0.33 0 0.66 0 1 0 C1.31563182 5.26053037 0.66590937 8.44573816 -2 13 C-3 11 -3 11 -2.0625 7.875 C-1.711875 6.92625 -1.36125 5.9775 -1 5 C-4.465 6.485 -4.465 6.485 -8 8 C-7.67 6.35 -7.34 4.7 -7 3 C-3.535 2.505 -3.535 2.505 0 2 C0 1.34 0 0.68 0 0 Z " fill="#41413D" transform="translate(156,40)"/>
<path d="M0 0 C0.33 0.66 0.66 1.32 1 2 C1.99 2.33 2.98 2.66 4 3 C3.34 3 2.68 3 2 3 C2 3.99 2 4.98 2 6 C0.865625 6.28875 -0.26875 6.5775 -1.4375 6.875 C-2.613125 7.24625 -3.78875 7.6175 -5 8 C-5.33 8.66 -5.66 9.32 -6 10 C-5.67 7.36 -5.34 4.72 -5 2 C-3.33333333 2 -1.66666667 2 0 2 C0 1.34 0 0.68 0 0 Z " fill="#494844" transform="translate(165,40)"/>
<path d="M0 0 C2.625 0.5 2.625 0.5 4.9375 2.6875 C6.72880798 5.67301329 7.01388658 7.0972424 6.625 10.5 C6.109375 9.71625 5.59375 8.9325 5.0625 8.125 C2.1087677 4.94405752 -0.19106548 4.38506307 -4.375 3.5 C-2.375 0.5 -2.375 0.5 0 0 Z " fill="#0E0D0D" transform="translate(119.375,35.5)"/>
<path d="M0 0 C1.65 0 3.3 0 5 0 C5 2.31 5 4.62 5 7 C3.02 7.33 1.04 7.66 -1 8 C-0.67 5.36 -0.34 2.72 0 0 Z " fill="#131212" transform="translate(109,58)"/>
<path d="M0 0 C0.99 0.33 1.98 0.66 3 1 C3 1.66 3 2.32 3 3 C-6.41002278 7.59225513 -6.41002278 7.59225513 -11 7 C-8.48169253 3.87729874 -7.2738451 3.05476902 -3.25 2.25 C-1.64125 2.12625 -1.64125 2.12625 0 2 C0 1.34 0 0.68 0 0 Z " fill="#68666C" transform="translate(114,31)"/>
<path d="M0 0 C4.75481646 0.57634139 7.97048212 2.55068521 12 5 C11.67 5.99 11.34 6.98 11 8 C7.89287788 7.21362959 4.90755893 6.36075884 2 5 C0.4375 2.3125 0.4375 2.3125 0 0 Z " fill="#09090A" transform="translate(145,18)"/>
<path d="M0 0 C0.66 0 1.32 0 2 0 C4.29633824 3.44450737 4.54016485 5.93812283 5 10 C3.125 9.6875 3.125 9.6875 1 9 C-1 6 -1 6 -0.625 2.8125 C-0.41875 1.884375 -0.2125 0.95625 0 0 Z " fill="#2D2B2A" transform="translate(111,44)"/>
<path d="M0 0 C3.96 0.33 7.92 0.66 12 1 C9 4 9 4 6.73828125 4.29296875 C5.93777344 4.25816406 5.13726562 4.22335938 4.3125 4.1875 C3.50425781 4.16042969 2.69601563 4.13335937 1.86328125 4.10546875 C1.24839844 4.07066406 0.63351563 4.03585938 0 4 C0 2.68 0 1.36 0 0 Z " fill="#0A0908" transform="translate(25,58)"/>
<path d="M0 0 C0.53625 0.391875 1.0725 0.78375 1.625 1.1875 C-2.01616773 4.52523709 -5.66107242 5.16614902 -10.375 6.1875 C-9.29608159 3.05863662 -8.33441417 2.16103098 -5.5 0.3125 C-2.375 -0.8125 -2.375 -0.8125 0 0 Z " fill="#555B63" transform="translate(51.375,20.8125)"/>
<path d="M0 0 C0.165 0.639375 0.33 1.27875 0.5 1.9375 C1.77335515 4.15447114 1.77335515 4.15447114 3.84375 4.453125 C5.26779662 4.60791268 6.69552125 4.73224861 8.125 4.82421875 C10 5 10 5 12 6 C10.3125 7.625 10.3125 7.625 8 9 C3.96259703 8.09158433 1.72432545 6.02702828 -1 3 C-0.67 2.01 -0.34 1.02 0 0 Z " fill="#121112" transform="translate(110,67)"/>
<path d="M0 0 C-0.33 1.65 -0.66 3.3 -1 5 C-3.64 5 -6.28 5 -9 5 C-9.33 4.34 -9.66 3.68 -10 3 C-6.27034861 0.96564469 -4.33094958 0 0 0 Z " fill="#232320" transform="translate(163,56)"/>
<path d="M0 0 C1.98 0.495 1.98 0.495 4 1 C4 4.63 4 8.26 4 12 C3.01 11.34 2.02 10.68 1 10 C1 8.68 1 7.36 1 6 C0.01 6.495 0.01 6.495 -1 7 C-0.67 4.69 -0.34 2.38 0 0 Z " fill="#232323" transform="translate(123,44)"/>
<path d="M0 0 C7.514377 1.31203408 7.514377 1.31203408 9.5 4.125 C9.665 4.74375 9.83 5.3625 10 6 C9.01 5.34 8.02 4.68 7 4 C5.0103005 3.60986284 3.00980131 3.26797351 1 3 C1 3.66 1 4.32 1 5 C-0.32 5.33 -1.64 5.66 -3 6 C-1.125 1.125 -1.125 1.125 0 0 Z " fill="#5B595C" transform="translate(114,38)"/>
<path d="M0 0 C0.99 0.33 1.98 0.66 3 1 C2.56826373 6.09448798 2.24599784 9.84512277 -1 14 C-1.66 14 -2.32 14 -3 14 C-2.71125 13.46375 -2.4225 12.9275 -2.125 12.375 C-0.83288192 9.64719516 0.08558592 6.87387282 1 4 C0.34 4 -0.32 4 -1 4 C-0.67 2.68 -0.34 1.36 0 0 Z " fill="#636361" transform="translate(174,49)"/>
<path d="M0 0 C0.98613281 0.20882812 1.97226563 0.41765625 2.98828125 0.6328125 C3.98214844 0.83648437 4.97601563 1.04015625 6 1.25 C6.75925781 1.41757812 7.51851562 1.58515625 8.30078125 1.7578125 C7.97078125 2.4178125 7.64078125 3.0778125 7.30078125 3.7578125 C4.33078125 3.7578125 1.36078125 3.7578125 -1.69921875 3.7578125 C-2.02921875 4.4178125 -2.35921875 5.0778125 -2.69921875 5.7578125 C-3.68921875 4.4378125 -4.67921875 3.1178125 -5.69921875 1.7578125 C-2.69921875 -0.2421875 -2.69921875 -0.2421875 0 0 Z " fill="#545460" transform="translate(80.69921875,42.2421875)"/>
<path d="M0 0 C0.99 0 1.98 0 3 0 C2.67 2.97 2.34 5.94 2 9 C1.01 9.33 0.02 9.66 -1 10 C-1.66 7.36 -2.32 4.72 -3 2 C-2.34 2 -1.68 2 -1 2 C-0.67 2.33 -0.34 2.66 0 3 C0 2.01 0 1.02 0 0 Z " fill="#050505" transform="translate(116,42)"/>
<path d="M0 0 C1.65 0 3.3 0 5 0 C5 2.64 5 5.28 5 8 C4.34 7.34 3.68 6.68 3 6 C2.34 7.32 1.68 8.64 1 10 C0.67 6.7 0.34 3.4 0 0 Z " fill="#4E4D4F" transform="translate(115,58)"/>
<path d="M0 0 C2.50298434 2.93828597 3.46930939 5.17902761 4 9 C1.69 8.34 -0.62 7.68 -3 7 C-1.125 2.25 -1.125 2.25 0 0 Z " fill="#CECDCD" transform="translate(119,23)"/>
<path d="M0 0 C4.05606165 0.46800711 7.46588679 0.87953208 11 3 C10.360625 3.12375 9.72125 3.2475 9.0625 3.375 C8.381875 3.58125 7.70125 3.7875 7 4 C6.67 4.66 6.34 5.32 6 6 C6 5.34 6 4.68 6 4 C4.02 3.34 2.04 2.68 0 2 C0 1.34 0 0.68 0 0 Z " fill="#ACB0B8" transform="translate(152,19)"/>
<path d="M0 0 C1.51400391 0.01740234 1.51400391 0.01740234 3.05859375 0.03515625 C4.07050781 0.04417969 5.08242188 0.05320313 6.125 0.0625 C7.29869141 0.07990234 7.29869141 0.07990234 8.49609375 0.09765625 C8.49609375 0.75765625 8.49609375 1.41765625 8.49609375 2.09765625 C9.48609375 1.76765625 10.47609375 1.43765625 11.49609375 1.09765625 C12.15609375 1.75765625 12.81609375 2.41765625 13.49609375 3.09765625 C11.03746974 3.15149473 8.58001825 3.19124663 6.12109375 3.22265625 C5.07308594 3.24779297 5.07308594 3.24779297 4.00390625 3.2734375 C2.16711889 3.29109892 0.33007412 3.20068886 -1.50390625 3.09765625 C-2.16390625 2.43765625 -2.82390625 1.77765625 -3.50390625 1.09765625 C-2.50390625 0.09765625 -2.50390625 0.09765625 0 0 Z " fill="#1A181B" transform="translate(57.50390625,62.90234375)"/>
<path d="M0 0 C0.33 0.66 0.66 1.32 1 2 C2.65 2 4.3 2 6 2 C4.625 4.5 4.625 4.5 3 7 C2.34 7 1.68 7 1 7 C0.67 7.66 0.34 8.32 0 9 C0 6.03 0 3.06 0 0 Z " fill="#6D6D69" transform="translate(162,31)"/>
<path d="M0 0 C2.0625 0.4375 2.0625 0.4375 4 1 C4 2.65 4 4.3 4 6 C1.03 5.505 1.03 5.505 -2 5 C-1.125 1.125 -1.125 1.125 0 0 Z " fill="#B9B9BD" transform="translate(167,24)"/>
<path d="M0 0 C1.36125 0.37125 1.36125 0.37125 2.75 0.75 C2.42 2.07 2.09 3.39 1.75 4.75 C1.75 4.09 1.75 3.43 1.75 2.75 C0.76 3.245 0.76 3.245 -0.25 3.75 C-2.5829866 3.79022391 -4.91706666 3.79320247 -7.25 3.75 C-4.05 -0.31153846 -4.05 -0.31153846 0 0 Z " fill="#A4B5C6" transform="translate(129.25,15.25)"/>
<path d="M0 0 C3.63 1.98 7.26 3.96 11 6 C6.71372952 7.07156762 6.33924618 7.0365854 2.75 5.0625 C2.04359375 4.68222656 1.3371875 4.30195312 0.609375 3.91015625 C0.07828125 3.60980469 -0.4528125 3.30945312 -1 3 C-0.67 2.01 -0.34 1.02 0 0 Z " fill="#2F2F31" transform="translate(12,50)"/>
<path d="M0 0 C0 3.63 0 7.26 0 11 C-0.66 10.67 -1.32 10.34 -2 10 C-2.6328125 7.93359375 -2.6328125 7.93359375 -3.125 5.4375 C-3.29257812 4.61121094 -3.46015625 3.78492188 -3.6328125 2.93359375 C-3.75398438 2.29550781 -3.87515625 1.65742187 -4 1 C-2 0 -2 0 0 0 Z " fill="#51545C" transform="translate(25,45)"/>
<path d="M0 0 C1 2 1 2 0.5 3.875 C-1.78930828 7.11818674 -4.4310293 8.27924627 -8 10 C-8.66 9.67 -9.32 9.34 -10 9 C-9.21625 8.7525 -8.4325 8.505 -7.625 8.25 C-4.57704392 6.79859234 -4.27463336 6.00449293 -3 3 C-1.375 1.25 -1.375 1.25 0 0 Z " fill="#99999C" transform="translate(144,39)"/>
<path d="M0 0 C5.52677733 -0.19392201 9.75614911 0.2520497 15 2 C12.42786866 3.61949011 11.32330841 4.04408751 8.25 3.625 C7.5075 3.41875 6.765 3.2125 6 3 C6 2.67 6 2.34 6 2 C3.03 1.505 3.03 1.505 0 1 C0 0.67 0 0.34 0 0 Z " fill="#636674" transform="translate(73,30)"/>
<path d="M0 0 C0.99 0.33 1.98 0.66 3 1 C4.56118428 1.06740865 6.1250252 1.08514456 7.6875 1.0625 C8.49574219 1.05347656 9.30398437 1.04445313 10.13671875 1.03515625 C10.75160156 1.02355469 11.36648437 1.01195313 12 1 C12 1.33 12 1.66 12 2 C10.8553125 2.2165625 10.8553125 2.2165625 9.6875 2.4375 C6.91827092 2.9632594 6.91827092 2.9632594 4 4 C1.99124558 3.72428861 -0.01178687 3.39764263 -2 3 C-1.34 2.01 -0.68 1.02 0 0 Z " fill="#888C94" transform="translate(142,25)"/>
<path d="M0 0 C3.3 0.33 6.6 0.66 10 1 C9.34 2.32 8.68 3.64 8 5 C6.35 4.67 4.7 4.34 3 4 C3 3.01 3 2.02 3 1 C2.01 0.67 1.02 0.34 0 0 Z " fill="#444851" transform="translate(108,17)"/>
<path d="M0 0 C4.95 0 9.9 0 15 0 C15 0.99 15 1.98 15 3 C13.68 3 12.36 3 11 3 C11 2.34 11 1.68 11 1 C7.37 1 3.74 1 0 1 C0 0.67 0 0.34 0 0 Z " fill="#1D1C1D" transform="translate(37,61)"/>
<path d="M0 0 C2.3125 0.125 2.3125 0.125 5 1 C6.8125 4.0625 6.8125 4.0625 8 7 C7.01 7.66 6.02 8.32 5 9 C4.54625 8.071875 4.0925 7.14375 3.625 6.1875 C2.0578367 2.96078611 2.0578367 2.96078611 0 0 Z " fill="#09090A" transform="translate(86,55)"/>
<path d="M0 0 C0.99 0.33 1.98 0.66 3 1 C4.17755913 3.94389782 4.03348696 4.89953913 3 8 C2.34 8 1.68 8 1 8 C0.34 5.69 -0.32 3.38 -1 1 C-0.67 0.67 -0.34 0.34 0 0 Z " fill="#51555E" transform="translate(23,35)"/>
<path d="M0 0 C2.875 -0.125 2.875 -0.125 6 0 C6.66 0.66 7.32 1.32 8 2 C7.34 2 6.68 2 6 2 C6 2.66 6 3.32 6 4 C4.02 4 2.04 4 0 4 C0 2.68 0 1.36 0 0 Z " fill="#66666C" transform="translate(81,16)"/>
<path d="M0 0 C0.99 0.99 1.98 1.98 3 3 C2.39816251 5.02045442 1.72693904 7.02111039 1 9 C0.01 9.495 0.01 9.495 -1 10 C-0.67 6.7 -0.34 3.4 0 0 Z " fill="#090808" transform="translate(121,42)"/>
<path d="M0 0 C0.33 0 0.66 0 1 0 C1 1.98 1 3.96 1 6 C0.01 6 -0.98 6 -2 6 C-2.33 6.66 -2.66 7.32 -3 8 C-3.33 7.34 -3.66 6.68 -4 6 C-6.02463255 5.34786708 -6.02463255 5.34786708 -8 5 C-7.67 4.34 -7.34 3.68 -7 3 C-4.03 3.495 -4.03 3.495 -1 4 C-0.67 2.68 -0.34 1.36 0 0 Z " fill="#646461" transform="translate(156,32)"/>
<path d="M0 0 C0.33 0.66 0.66 1.32 1 2 C0.01 2.495 0.01 2.495 -1 3 C-1 3.99 -1 4.98 -1 6 C-1.66 5.34 -2.32 4.68 -3 4 C-5.68839385 3.73008094 -8.29141936 3.91262643 -11 4 C-10.67 3.01 -10.34 2.02 -10 1 C-8.906875 1.020625 -7.81375 1.04125 -6.6875 1.0625 C-3.05615809 1.18544452 -3.05615809 1.18544452 0 0 Z " fill="#818083" transform="translate(125,33)"/>
<path d="M0 0 C2.31 0 4.62 0 7 0 C7.66 1.32 8.32 2.64 9 4 C6.525 5.485 6.525 5.485 4 7 C4 4 4 4 6 1 C4.02 1 2.04 1 0 1 C0 0.67 0 0.34 0 0 Z " fill="#9FA1A9" transform="translate(117,12)"/>
<path d="M0 0 C2.13586678 3.20380017 2.23132175 4.01939967 2.125 7.6875 C2.10695313 8.49574219 2.08890625 9.30398437 2.0703125 10.13671875 C2.03550781 11.05904297 2.03550781 11.05904297 2 12 C0.68 11.67 -0.64 11.34 -2 11 C-1.34 7.37 -0.68 3.74 0 0 Z " fill="#656869" transform="translate(11,55)"/>
<path d="M0 0 C1.6396875 0.2475 1.6396875 0.2475 3.3125 0.5 C6.87525873 1.06718184 6.87525873 1.06718184 10 1 C6.55930376 3.29379749 5.27709699 4 1 4 C0.67 2.68 0.34 1.36 0 0 Z " fill="#333538" transform="translate(12,64)"/>
<path d="M0 0 C1.35439668 2.70879335 1.06501451 5.00933268 1 8 C-1.97 7.505 -1.97 7.505 -5 7 C-4.34 6.67 -3.68 6.34 -3 6 C-2.29788106 4.34795544 -1.63028587 2.68076231 -1 1 C-0.67 0.67 -0.34 0.34 0 0 Z " fill="#727371" transform="translate(146,39)"/>
<path d="M0 0 C0.99 0.33 1.98 0.66 3 1 C1.92598892 3.91517292 1.22189824 5.77810176 -1 8 C-1.625 5.6875 -1.625 5.6875 -2 3 C-1.34 2.01 -0.68 1.02 0 0 Z " fill="#9D9CA2" transform="translate(115,23)"/>
<path d="M0 0 C-3.42346555 3.14958831 -6.44262737 3.56179109 -11 4 C-11 3.34 -11 2.68 -11 2 C-7.17679443 0.57741188 -4.08718695 -0.24042276 0 0 Z " fill="#8F9DAC" transform="translate(70,13)"/>
<path d="M0 0 C0.33 0.99 0.66 1.98 1 3 C0.67 3.66 0.34 4.32 0 5 C1.32 4.67 2.64 4.34 4 4 C2.8125 5.5 2.8125 5.5 1 7 C-1.6875 7.1875 -1.6875 7.1875 -4 7 C-2.68 4.69 -1.36 2.38 0 0 Z " fill="#636261" transform="translate(158,50)"/>
<path d="M0 0 C0.33 0.66 0.66 1.32 1 2 C2.32 1.67 3.64 1.34 5 1 C5.33 2.32 5.66 3.64 6 5 C5.34 5 4.68 5 4 5 C4 4.34 4 3.68 4 3 C2.02 3.33 0.04 3.66 -2 4 C-1.34 2.68 -0.68 1.36 0 0 Z " fill="#060507" transform="translate(113,52)"/>
<path d="M0 0 C1.98 0.495 1.98 0.495 4 1 C3.34 3.31 2.68 5.62 2 8 C1.01 7.67 0.02 7.34 -1 7 C-0.67 4.69 -0.34 2.38 0 0 Z " fill="#1E1E1B" transform="translate(165,48)"/>
<path d="M0 0 C0.99 0.33 1.98 0.66 3 1 C1.515 3.475 1.515 3.475 0 6 C-0.33 5.34 -0.66 4.68 -1 4 C-1.66 4 -2.32 4 -3 4 C-2.67 3.01 -2.34 2.02 -2 1 C-1.34 0.67 -0.68 0.34 0 0 Z " fill="#616671" transform="translate(27,32)"/>
<path d="M0 0 C2.31 0.66 4.62 1.32 7 2 C6.67 2.66 6.34 3.32 6 4 C4.02 4 2.04 4 0 4 C-0.33 3.01 -0.66 2.02 -1 1 C-0.67 0.67 -0.34 0.34 0 0 Z " fill="#939394" transform="translate(163,29)"/>
<path d="M0 0 C2.5654594 2.5654594 2.54046087 4.47686668 3 8 C1.68 8.33 0.36 8.66 -1 9 C-0.67 6.03 -0.34 3.06 0 0 Z " fill="#040404" transform="translate(117,62)"/>
<path d="M0 0 C0.66 0.33 1.32 0.66 2 1 C1.67 1.33 1.34 1.66 1 2 C1.99 2.66 2.98 3.32 4 4 C1.03 4 -1.94 4 -5 4 C-5 3.34 -5 2.68 -5 2 C-2.625 0.9375 -2.625 0.9375 0 0 Z " fill="#818B97" transform="translate(40,25)"/>
<path d="M0 0 C1.9451 2.91765 2.45276317 4.62537285 3 8 C1.35 7.67 -0.3 7.34 -2 7 C-1.67 6.01 -1.34 5.02 -1 4 C-0.65772583 2.66893378 -0.32248257 1.33599921 0 0 Z " fill="#C8CACC" transform="translate(139,18)"/>
<path d="M0 0 C0 0.99 0 1.98 0 3 C-1.98 3 -3.96 3 -6 3 C-6.33 2.34 -6.66 1.68 -7 1 C-4.53721199 -0.231394 -2.7204945 -0.07159196 0 0 Z " fill="#0F0E0F" transform="translate(63,61)"/>
<path d="M0 0 C0.33 0 0.66 0 1 0 C1 1.65 1 3.3 1 5 C-0.98 5.99 -0.98 5.99 -3 7 C-2.25 2.25 -2.25 2.25 0 0 Z " fill="#070707" transform="translate(124,49)"/>
<path d="M0 0 C1.32 0.33 2.64 0.66 4 1 C2.02 1.99 0.04 2.98 -2 4 C-1.34 2.68 -0.68 1.36 0 0 Z M-6 4 C-4.68 4.33 -3.36 4.66 -2 5 C-2.99 5.66 -3.98 6.32 -5 7 C-5.33 6.01 -5.66 5.02 -6 4 Z " fill="#676765" transform="translate(133,42)"/>
<path d="M0 0 C-0.66 0 -1.32 0 -2 0 C-2.33 0.99 -2.66 1.98 -3 3 C-4.98 3 -6.96 3 -9 3 C-5.83583464 -0.30799106 -4.50236011 -1.35070803 0 0 Z " fill="#8B8F97" transform="translate(34,30)"/>
<path d="M0 0 C0.66 0.99 1.32 1.98 2 3 C-1.63 2.67 -5.26 2.34 -9 2 C-5.29489954 0.14744977 -3.93924189 -0.5183213 0 0 Z " fill="#898687" transform="translate(90,14)"/>
<path d="M0 0 C0.66 0.66 1.32 1.32 2 2 C1.67 2.66 1.34 3.32 1 4 C-1.32156597 4.40729228 -3.6568787 4.74438677 -6 5 C-3.375 1.125 -3.375 1.125 0 0 Z " fill="#424144" transform="translate(138,60)"/>
<path d="M0 0 C0.99 0.33 1.98 0.66 3 1 C3 2.98 3 4.96 3 7 C1.68 5.68 0.36 4.36 -1 3 C-0.67 2.01 -0.34 1.02 0 0 Z " fill="#403E3E" transform="translate(85,56)"/>
<path d="M0 0 C1.32 0 2.64 0 4 0 C4 1.65 4 3.3 4 5 C3.01 5 2.02 5 1 5 C0.67 3.35 0.34 1.7 0 0 Z " fill="#141412" transform="translate(20,57)"/>
<path d="M0 0 C3.625 0.375 3.625 0.375 7 1 C4 3 4 3 0.8125 2.625 C-0.115625 2.41875 -1.04375 2.2125 -2 2 C-1.34 1.34 -0.68 0.68 0 0 Z " fill="#68666B" transform="translate(91,52)"/>
<path d="M0 0 C0.66 0.33 1.32 0.66 2 1 C1.34 2.98 0.68 4.96 0 7 C0.66 7.66 1.32 8.32 2 9 C0.68 8.67 -0.64 8.34 -2 8 C-1.125 1.125 -1.125 1.125 0 0 Z " fill="#43454B" transform="translate(18,45)"/>
<path d="M0 0 C2.625 -0.1875 2.625 -0.1875 5 0 C4.67 0.99 4.34 1.98 4 3 C2.02 3 0.04 3 -2 3 C-1.34 2.01 -0.68 1.02 0 0 Z " fill="#191716" transform="translate(117,36)"/>
<path d="M0 0 C1.65 0 3.3 0 5 0 C4.67 1.32 4.34 2.64 4 4 C3.01 4 2.02 4 1 4 C0.67 2.68 0.34 1.36 0 0 Z " fill="#6F6E75" transform="translate(116,14)"/>
<path d="M0 0 C0.99 0.33 1.98 0.66 3 1 C2.67 1.66 2.34 2.32 2 3 C1.34 2.01 0.68 1.02 0 0 Z " fill="#000000" transform="translate(170,23)"/>
<path d="M0 0 C0 3 0 3 0 3 Z " fill="#000000" transform="translate(13,43)"/>
<path d="M0 0 C0.66 0.33 1.32 0.66 2 1 C1.01 1 0.02 1 -1 1 C-0.67 0.67 -0.34 0.34 0 0 Z " fill="#000000" transform="translate(24,30)"/>
<path d="M0 0 C0.66 0.33 1.32 0.66 2 1 C1.01 1 0.02 1 -1 1 C-0.67 0.67 -0.34 0.34 0 0 Z " fill="#000000" transform="translate(41,22)"/>
<path d="M0 0 C0.99 0.495 0.99 0.495 2 1 C1.01 1.495 1.01 1.495 0 2 C0 1.34 0 0.68 0 0 Z " fill="#000000" transform="translate(9,48)"/>
<path d="" fill="#000000" transform="translate(0,0)"/>
<path d="" fill="#000000" transform="translate(0,0)"/>
<path d="" fill="#000000" transform="translate(0,0)"/>
<path d="" fill="#000000" transform="translate(0,0)"/>
<path d="M0 0 C2 1 2 1 2 1 Z " fill="#000000" transform="translate(26,29)"/>
<path d="M0 0 C2 1 2 1 2 1 Z " fill="#000000" transform="translate(31,27)"/>
<path d="M0 0 C2 1 2 1 2 1 Z " fill="#000000" transform="translate(38,24)"/>
<path d="M0 0 C2 1 2 1 2 1 Z " fill="#000000" transform="translate(43,21)"/>
<path d="M0 0 C2 1 2 1 2 1 Z " fill="#000000" transform="translate(45,20)"/>
<path d="M0 0 C2 1 2 1 2 1 Z " fill="#000000" transform="translate(47,19)"/>
<path d="M0 0 C2 1 2 1 2 1 Z " fill="#000000" transform="translate(49,18)"/>
<path d="M0 0 C2 1 2 1 2 1 Z " fill="#000000" transform="translate(51,17)"/>
<path d="M0 0 C2 1 2 1 2 1 Z " fill="#000000" transform="translate(53,16)"/>
<path d="M0 0 C2 1 2 1 2 1 Z " fill="#000000" transform="translate(55,15)"/>
<path d="M0 0 C2 1 2 1 2 1 Z " fill="#000000" transform="translate(138,11)"/>
<path d="M0 0 C2 1 2 1 2 1 Z " fill="#000000" transform="translate(136,10)"/>
<path d="" fill="#000000" transform="translate(0,0)"/>
<path d="" fill="#000000" transform="translate(0,0)"/>
<path d="" fill="#000000" transform="translate(0,0)"/>
<path d="" fill="#000000" transform="translate(0,0)"/>
<path d="" fill="#000000" transform="translate(0,0)"/>
<path d="" fill="#000000" transform="translate(0,0)"/>
<path d="" fill="#000000" transform="translate(0,0)"/>
<path d="" fill="#000000" transform="translate(0,0)"/>
<path d="" fill="#000000" transform="translate(0,0)"/>
<path d="" fill="#000000" transform="translate(0,0)"/>
<path d="" fill="#000000" transform="translate(0,0)"/>
<path d="" fill="#000000" transform="translate(0,0)"/>
<path d="" fill="#000000" transform="translate(0,0)"/>
<path d="" fill="#000000" transform="translate(0,0)"/>
<path d="" fill="#000000" transform="translate(0,0)"/>
<path d="" fill="#000000" transform="translate(0,0)"/>
<path d="" fill="#000000" transform="translate(0,0)"/>
<path d="" fill="#000000" transform="translate(0,0)"/>
<path d="" fill="#000000" transform="translate(0,0)"/>
<path d="" fill="#000000" transform="translate(0,0)"/>
<path d="" fill="#000000" transform="translate(0,0)"/>
<path d="" fill="#000000" transform="translate(0,0)"/>
<path d="" fill="#000000" transform="translate(0,0)"/>
<path d="" fill="#000000" transform="translate(0,0)"/>
<path d="" fill="#000000" transform="translate(0,0)"/>
<path d="" fill="#000000" transform="translate(0,0)"/>
<path d="" fill="#000000" transform="translate(0,0)"/>
<path d="" fill="#000000" transform="translate(0,0)"/>
<path d="" fill="#000000" transform="translate(0,0)"/>
<path d="" fill="#000000" transform="translate(0,0)"/>
<path d="" fill="#000000" transform="translate(0,0)"/>
<path d="" fill="#000000" transform="translate(0,0)"/>
<path d="" fill="#000000" transform="translate(0,0)"/>
<path d="" fill="#000000" transform="translate(0,0)"/>
<path d="" fill="#000000" transform="translate(0,0)"/>
<path d="" fill="#000000" transform="translate(0,0)"/>
</svg>
