<svg width="37" height="37" viewBox="0 0 37 37" fill="none" xmlns="http://www.w3.org/2000/svg">
<path d="M19.8554 21.4049L19.8147 21.1021L19.2027 20.5783L19.0155 20.5391L18.8841 20.6709L18.9043 20.8278L18.697 20.9595L18.6768 21.1414L18.9196 21.234L19.2584 21.4049H19.8554Z" fill="white" stroke="white" stroke-width="0.5" stroke-miterlimit="2.613"/>
<path d="M18.6631 21.0614L18.6762 21.0391" stroke="white" stroke-width="0.5" stroke-miterlimit="2.613"/>
<path d="M15.7251 22.6558L15.6338 22.8129L15.6948 23.0978L15.9021 23.7355L16.2611 24.5765L16.5595 25.0789L16.9589 25.7203L17.2422 26.098L17.6771 26.654L18.1979 27.2736L18.6077 27.673L18.9514 27.9972L18.9667 28.1755L18.9213 28.3216L18.7293 28.3749L18.1525 28.3962L17.1411 28.3537L16.3068 28.2786L15.5735 28.186L14.6831 28.008L14.2331 27.869L13.9348 27.7764L13.5957 27.7335L13.2064 27.7443L12.9993 27.8084H12.716L12.0434 27.7335L11.659 27.6409L11.2393 27.6195L10.5716 27.6091L10.0659 27.5768H9.60065L9.14057 27.5982L8.82693 27.6906L8.60427 27.7335L8.52832 27.8084L8.54362 27.9547L8.7559 28.1966L9.1556 28.5853L9.39329 28.6563L9.76758 28.8453L10.1973 29.013L10.6626 29.1196L11.3303 29.1304L11.927 29.0875L12.4327 29.0059L12.8627 28.9096L13.0447 28.9737L13.1307 29.0983L13.2824 29.1304L13.6515 29.1196L14.1167 29.1412L14.3547 29.1945L14.6377 29.1412L15.5582 29.2226L16.1852 29.2869L17.2119 29.444L17.9602 29.6005L18.6989 29.779L19.3505 29.9892L19.6038 30.1174L20.2767 30.1387L20.6354 30.0746L20.8275 29.8001L21.0346 29.4654L20.975 29.1945L20.722 28.8559L20.3832 28.3641L20.1144 27.8511L19.9172 27.2736L19.8316 26.7785V26.2975L19.9024 25.7309L19.9937 25.4457L19.8871 25.2037L19.665 25.0789L19.2199 24.8474L18.9055 24.6905L18.8459 24.3875L18.6989 24.0633L18.4203 23.7461L18.1222 23.4754L17.7482 23.2227L17.2725 22.9694L16.7365 22.6877L16.4532 22.5917L16.1701 22.5312L15.9325 22.5595L15.7251 22.6558Z" fill="white" stroke="white" stroke-width="0.5" stroke-miterlimit="2.613"/>
<path d="M13.9965 1.4115L13.9915 1.55048L13.7842 1.58263L13.5162 1.5578L13.1115 1.61824L12.8083 1.686L12.5654 1.69678L12.4895 1.77166L12.5755 1.87503L12.7577 1.90352L12.9296 1.86791L13.1268 1.80727L13.3293 1.80015L13.759 1.81439L14.0877 1.88562L14.477 1.95338L15.0486 2.13509L15.0994 2.22075L15.0387 2.28832L14.7707 2.35608L14.609 2.40959L14.3208 2.54492L13.8809 2.70893L13.3449 2.9763L12.7329 3.17227L12.2474 3.39691L11.8075 3.53243L11.3928 3.60365L11.0286 3.61077L10.5278 3.6179L10.3355 3.65351L10.2243 3.81752L10.1383 3.99577L10.0421 4.11685L9.7992 4.37345L9.56643 4.65834L9.40961 4.79733L9.39431 4.95768L9.40961 5.18213V5.42082L9.61698 5.55268L9.7992 5.62044L10.0167 5.60966L10.3707 5.5419L10.7702 5.45643L11.3114 5.30321L11.5289 5.31033L11.5794 5.40658L11.5289 5.49917L11.3466 5.56693L10.7953 5.71303L10.3806 5.7985L10.2997 5.89475L10.2844 5.99812L10.421 6.08359L10.7093 6.10842H10.942L11.2352 6.1013L11.554 6.04779L12.0144 5.87666L12.3179 5.83392L12.5758 5.79812L12.773 5.84451L13.0613 5.83392L13.3446 5.85895L13.5774 5.95519L13.9415 5.98003L14.4169 6.0834L14.6748 6.10823L15.0743 6.05837L15.5851 6.0834L15.8075 6.14384L15.9291 6.28995L15.9037 6.47879L15.8431 6.71036L15.7218 6.97755L15.5499 7.31249L15.3781 7.67958L15.1958 8.01453L15.0745 8.2461L14.6598 8.70232L14.159 9.14756L13.709 9.58588L13.1375 9.98839L12.6116 10.302L12.2777 10.5512L12.101 10.9611L11.8532 11.1678L11.5395 11.3245L11.1603 11.5453L10.5787 11.7948L10.0883 11.9694L9.77489 12.2223L9.55223 12.4256L9.32984 12.5218L9.01647 12.6323L8.8143 12.6002L8.41487 12.4718L7.96982 12.2687L7.31741 12.0656L6.58412 11.7948L6.20491 11.5917L5.73445 11.3245L5.21864 11.0252L4.6624 10.8827L4.17199 10.8221L3.54499 10.9147L3.09993 11.0893L2.71553 11.2781L2.51828 11.6236L2.38168 11.891L2.22486 12.3007L2.04809 12.5499L1.87106 12.9313L1.84592 13.3875L1.6891 13.6547L1.51206 14.0788L1.35524 14.5028L1.06701 14.8984L0.910193 15.2903L0.819215 15.7785L0.571418 16.1883L0.414598 16.4236L0.39438 16.6588L0.374163 17.0544V17.7456L0.262695 18.0305L0.328538 18.28L0.302857 18.6898L0.505302 19.0176L0.662122 19.096L0.950354 19.0317L1.2181 18.8606L1.60249 18.5327L1.93635 18.1551L2.06776 17.8415L1.98198 17.5886L1.87051 17.275L1.73391 16.8973L1.60249 16.5019L1.53173 16.2024V15.921L1.62271 15.6039L1.8451 15.1192L2.06749 14.8663L2.26994 14.7381L2.42648 14.5669L2.71499 14.549L2.85159 14.4886L3.05376 14.3602L3.27615 14.2212L3.47832 14.0324L3.56411 13.8118L3.63514 13.6229L3.65536 13.37L3.7212 13.1492L3.87802 13.0102L4.03484 12.9781L4.23701 13.0245L4.52552 13.1349L4.83889 13.3879L5.17274 13.7334L5.55195 14.047L5.95657 14.2999L6.31556 14.503L6.66854 14.6133L6.77974 14.7702L6.66854 14.8487L6.28906 14.7881L5.75303 14.756L5.06018 14.6597L4.39274 14.5671L3.5887 14.5492L3.11851 14.5671L2.75979 14.7238L2.38058 14.959L2.06694 15.3367L1.82406 15.7643L1.79893 16.0778L1.93553 16.6444L2.2489 17.3678L2.40572 17.9343L2.60297 18.4865L2.73958 18.8752L2.80542 19.2386L2.98218 19.6485L3.11879 20.2756L3.2502 20.4964L3.58897 20.6852L3.90261 20.9059L4.25641 21.2837L4.50421 21.7255L4.88342 22.1174L5.43994 22.4951L5.84428 22.6697L6.11202 22.6839L6.33441 22.6376L6.47101 22.417L6.62264 22.2281L6.71362 21.9609V21.3478L6.60243 21.1732C6.58221 21.1732 6.58221 21.0629 6.58221 21.0487L6.53658 20.9384L6.35436 20.7497L6.0205 20.5143L5.39841 20.3257L5.17083 20.2756L5.1304 20.0084L5.15061 19.8373L4.72578 19.4916L4.45776 19.0496L4.2351 18.4223L4.05315 17.8415L3.7447 17.3853L3.6335 16.833L3.81027 16.5017L4.12391 16.377H4.36651L4.72551 16.598L5.24132 16.8189L5.77735 16.9579L7.07179 17.3997L7.69907 17.6527V17.8879L8.27554 18.1229L9.01401 18.2975H10.5565L10.4453 18.5008L10.3798 18.6111L10.577 18.8748L10.9562 19.2704L11.5633 19.6943L12.2966 20.261L12.9236 20.6527L14.097 21.287L15.0478 21.6468L15.7608 21.9142L16.6763 22.3525L17.5208 22.7765L18.2492 23.2112L19.0076 23.9346L19.0428 24.2372L19.2147 24.551L19.68 24.7862L20.1051 24.9038L20.3682 24.8786L20.5761 24.7363L20.8744 24.5119L20.9454 24.2091L21.2992 23.7779L21.3749 23.4464L21.4309 23.0795L21.4662 22.7908L21.5826 22.6094L21.82 22.5274H22.0478L22.0628 22.6485L21.8965 22.7767L21.7498 23.0545L21.6383 23.2256V23.4358L21.5981 23.8813L21.5074 24.1057L21.229 24.4441L20.8545 24.8792L20.4807 25.3529L20.2586 25.9695L20.1471 26.6145L20.2586 27.3343L20.4053 27.7549L20.7591 28.3072L21.2091 28.9628L21.5629 29.4758L22.0481 30.014L22.6243 30.513L22.7358 30.6839V30.8015L22.6601 30.9476L22.4579 31.1829L22.1393 31.4965L21.4867 32.0882L20.834 32.5868L20.2373 33.0468L19.9797 33.1537L19.4535 33.2961L19.1398 33.5065L18.9729 33.7452L18.5989 34.0728L18.1746 34.4005L17.6536 34.7818L17.3348 35.1737L17.1476 35.5693L17.0364 35.8969L17.0566 36.1607L17.279 36.3281H18.0986L18.4522 36.3033L18.8221 36.1468L19.3073 35.9899L19.3827 35.858H19.5496L19.8073 35.7795L20.0501 35.6194L20.1818 34.9922L20.1056 34.86L20.0704 34.7281L20.202 34.7529L20.3482 34.7814L20.5004 34.7029L20.7433 34.596L21.0009 34.3608L21.3195 34.0438L21.4864 33.7552L21.5216 33.5198L21.7293 33.4128L22.0276 33.2953L22.2705 33.192L22.4727 32.9034L22.9027 32.5866L23.7062 32.0626L24.3179 31.774L24.9356 31.5353L25.0815 31.432L25.1375 31.3249L25.2684 31.2075L25.1771 31.051L25.1577 30.7623L25.0763 30.4918L24.9801 30.3351L24.7679 30.0785L24.4293 29.779L24.2627 29.5545L24.2272 29.3191V29.0023L24.3026 28.8207L24.5048 28.3326L24.7118 28.0973L24.9348 28.0048L25.344 27.823L25.8295 27.5308L26.4822 27.1391L26.9273 26.8113L27.377 26.4442L27.8422 26.0736L28.1764 25.6567L28.4545 25.3002L28.7176 24.8942L28.9047 24.4449L28.9607 24.0283L28.996 23.7113L29.1479 23.6079L29.3145 23.5796L29.4612 23.6476L29.5927 23.8684L29.6279 24.171L29.6891 24.4595L29.6489 24.6559L29.6131 24.9587V25.6037L29.7243 26.1133L29.8552 26.2451L29.9667 26.2344L30.0221 26.1418L29.9465 25.9316V25.5749L30.0984 25.2755L30.1694 24.8409L30.2448 24.5379L30.3415 24.3954H30.4527L30.5434 24.4595L30.6347 24.709L30.7101 24.9477L30.6748 25.3254L30.5634 25.8386L30.2249 26.3377L29.9118 26.8115L29.7241 27.2176L29.6888 27.4671L29.7241 27.7557L29.8549 28.0334H30.0981L30.2246 27.9124L30.1533 27.7805L30.0981 27.5451L30.3202 27.3347L30.5784 27.0852L30.7502 26.8502L31.1595 26.3901L31.4936 25.9695L31.6403 25.5096L31.7715 24.904V24.3017L31.6051 23.8811L31.271 23.5533L31.2305 23.3968L31.3827 23.3434L31.5701 23.4073L31.813 23.6177L32.1113 23.9989L32.2378 24.4439L32.3135 25.0355L32.5009 25.4453L32.5211 25.4561L32.7788 25.8623L32.9454 25.905L33.0208 25.7982L33.0009 25.7339L32.8741 25.4313L32.8542 25.1285L32.8741 24.6832L32.9856 24.1843V23.9348L32.9454 23.7246L32.6468 23.3038L32.3889 23.001L32.4802 22.8836L32.8348 22.8302L33.3195 22.6737L33.8405 22.4774L34.3057 22.1888L34.9027 21.6225L35.2412 21.1522L35.5196 20.7033L35.6108 19.9836L35.631 19.3385L35.4843 18.5404L35.3125 17.9632L35.1658 17.3716L35.0745 16.7552L35.1458 16.3633L35.2975 15.8751L35.6108 15.3904L36.0605 14.8917L36.2275 14.5746L36.2627 14.4179L36.1165 14.2755L35.91 14.2072V14.4318L35.7431 14.5637L35.4447 14.8772L35.2778 14.9556L34.8125 15.3512L34.6256 15.5614L34.4033 15.9142L34.1604 15.9427L33.938 15.8501L33.8063 15.4295L33.8421 14.945L33.994 14.4959L34.3636 14.0753L35.1114 13.2878L35.5573 12.6464L35.6125 12.1973L35.5414 12.0548L35.4106 12.1474L35.1882 12.5394L34.8494 12.9349L34.3483 13.2237L33.7722 13.6156L32.9127 14.3248L32.746 14.314L32.6905 14.1929L32.6703 13.9042L32.7258 13.3661L32.9889 12.764L33.4541 12.0941L34.071 11.5561L34.8347 11.0964L34.9057 10.9896L34.8144 10.9397L34.4254 11.0822L34.1063 11.2283L33.5653 11.5561L32.893 11.9767L32.4121 12.4364L31.942 13.0385L31.6843 13.5267L31.6086 14.0114L31.5729 14.667L31.7952 15.3512L32.0176 15.9427L32.4474 16.8728L32.7258 17.9882L32.8927 18.8396V19.2997L32.8214 19.7842L32.7108 20.1801L32.5028 20.6252L31.719 21.3199L30.9196 21.8329L29.8932 22.2391L28.9069 22.2782L28.776 21.9396L28.4222 21.4514L27.9368 20.9811L27.6182 20.7035L27.1934 20.2974L26.2773 19.6812L25.347 19.1432L24.9378 18.9183L23.6529 18.3054L21.8071 17.2149L20.8004 16.3348L19.6983 15.0628L19.3996 14.3003L19.475 13.8264L19.6269 13.7338L20.0168 13.919L20.6337 14.1292L21.1348 14.1149L21.7107 14.3003L22.3279 14.564L22.6464 14.7458L23.0562 14.9454L23.4811 14.9846L23.5772 14.8528L23.4658 14.8385L23.3346 14.8778L23.1275 14.7852L22.945 14.5893L22.6825 14.2863L22.1765 13.9586L21.676 13.8268L21.3973 13.7875L21.4533 13.6841H21.8424L22.2923 13.7875L22.9448 14.0903L23.2436 14.1829L23.3546 14.0759L23.1669 13.8942L22.6612 13.5769L21.8773 13.2884L20.9312 13.0283L20.7444 12.9215L20.9312 12.8289L21.3563 12.975L22.1407 13.0676L22.9797 13.3028L23.4248 13.4595L24.2086 13.5378L24.7703 13.4845L25.0834 13.3811L25.5134 13.1958L25.7008 13.0676L25.7211 12.975L25.547 12.985L25.3809 13.1061L24.8244 13.2345L24.3389 13.2878L23.9291 13.2485L23.5349 13.0277L23.1811 12.7355L22.7562 12.5147L22.1191 12.4221L21.5071 12.276L21.244 12.1584L21.2643 12.0552L21.5071 12.0801H22.0481L22.5888 12.0552H23.1453L23.4439 12.016L23.6868 12.1584L24.0758 12.2262H24.3944L24.5411 12.1478L24.2835 12.0943L23.9649 11.9482L23.6308 11.7274L23.0898 11.5278L22.6448 11.4885L22.2355 11.4492L22.0833 11.3851L22.3822 11.2675H22.8672L23.2417 11.3459L23.6111 11.4779L24.2078 11.6596L24.8045 11.6739L25.123 11.5671L25.2143 11.4244L24.9714 11.3461L24.4709 11.3318L24.0409 11.2285L23.6671 11.004L23.2573 10.8579L22.7166 10.7938L22.2514 10.6762L22.0492 10.491L22.0844 10.3984L22.3833 10.4411L22.7573 10.5195L22.9797 10.6371L23.2983 10.6619L23.3335 10.5443L22.9999 10.3591L22.9032 10.1917L23.3529 10.2415L23.7778 10.3982L24.3187 10.4409L24.5263 10.7153L25.0823 10.9505L25.1126 10.9468L25.2342 10.9112L25.3809 10.8471L25.3096 10.7688L25.102 10.7794L24.9148 10.5976L24.5403 10.1915L23.8881 9.78184L23.2207 9.57163L23.0333 9.41494L22.6235 9.07287L22.2494 8.93043L22.194 8.79857L22.3604 8.72022L22.7551 8.78432L23.5338 8.94101L23.9083 9.0336L24.1512 9.2723L24.5403 9.41494H24.8389L25.2334 9.49329L25.6629 9.43977L25.8298 9.3364L25.5869 9.1903L25.2331 9.12619L24.8233 9.08693L24.5802 8.94082L24.2616 8.613L24.1862 8.40279L23.7764 8.14254L23.3313 7.94292L22.8251 7.72193L22.2691 7.35503L22.2339 7.248H22.3598L23.0882 7.65417L23.8319 7.95697L24.2264 8.16718L24.7274 8.49481L25.1771 8.66574L25.4353 8.71926L25.5664 8.57315L25.3796 8.5233L24.9897 8.27382L24.8785 7.99605L24.4692 7.68247L24.1305 7.48285L23.9635 7.18352L23.3873 6.57792L22.6035 6.09321L22.5677 5.93652L22.8459 5.96135L23.2406 6.10399L23.8723 6.28918L24.525 6.3142L25.0105 6.47455L25.5312 6.53865L25.9762 6.44606L25.941 6.3142L25.435 6.23566L24.9897 6.09321L24.0947 5.79042L23.6097 5.60523L23.3516 5.38425L23.4428 5.30571L23.5739 5.36981L23.7761 5.42333L24.0392 5.43757H24.4692L24.8381 5.40908L25.4001 5.38425L25.8295 5.50186L26.2746 5.72632L26.462 5.76558L26.4822 5.64797L26.33 5.54113L25.885 5.25239L25.1924 5.00291L24.6919 4.96364L23.7411 4.92437L23.519 4.73919L23.0338 4.39712L22.4929 4.13706L22.2907 4.0052L22.4576 3.91261L22.7153 3.99096L23.1803 4.16209L23.7062 4.29395L24.4143 4.41156H25.0263L25.5323 4.80714L25.9421 4.97808L26.0888 4.87124L25.5323 4.29395L24.6572 3.8487L23.9288 3.72762L23.3119 3.2714L22.771 3.04695L22.0276 2.91509L22.4374 2.66581L23.1652 2.49468L23.7062 2.37706L23.8327 2.25964L23.7619 2.16705L23.463 2.11373L23.1803 2.07446L21.0766 2.10295L20.7026 1.81074L20.2775 1.61477L19.7368 1.44364L19.0284 1.36511H18.4164L18.2497 1.20841L17.6733 0.773755L16.9804 0.328125L16.5556 0.827077L16.5354 0.983769L16.7378 1.16895L16.758 1.32564L16.6116 1.41823L16.1411 1.44307L15.2863 1.27194L14.4467 1.14431L14.0571 1.1549L13.42 1.24749L13.4957 1.40438L13.8497 1.3936L13.9965 1.4115Z" fill="white" stroke="white" stroke-width="0.5" stroke-miterlimit="2.613"/>
<path d="M21.4514 17.8285L20.6318 17.0801L19.9233 16.3461L19.3974 15.769L19.1955 15.3734L19.0843 14.992L18.9524 14.732L18.7453 14.6644L18.5426 14.7035L18.4721 14.953L18.6191 15.3876L18.9729 16.0184L19.4176 16.5278L19.9233 16.9769L20.4799 17.3688L20.8134 17.5933L21.4514 17.8285ZM10.2896 4.42704L10.0923 4.61935L10.0112 4.81531L10.0467 4.95429L10.1429 4.99703L10.421 4.95429L10.6284 4.87248L10.7751 4.76892L10.8559 4.57661L10.7751 4.48402L10.598 4.38065L10.4513 4.37006L10.2896 4.42704ZM15.5996 3.91019H15.8272L16.0397 3.8534L16.0548 3.70364L15.9739 3.5327L15.8777 3.37235L15.6857 3.27957L15.4379 3.24742L15.0988 3.2582L14.8865 3.38294L14.7904 3.52192L14.8562 3.64666L15.0838 3.73925L15.3264 3.83184L15.5996 3.91019ZM33.8309 17.8712L33.6994 17.9638L33.7254 18.1313L33.765 18.4306L33.8109 18.748L33.841 19.022L33.821 19.3357L33.8008 19.6849L33.7096 19.9985L33.603 20.2728L33.4211 20.5402L33.1839 20.8145L32.9408 21.0821L32.6829 21.3277L32.4454 21.5485L32.314 21.716L32.2176 21.8692L32.2375 21.9833L32.3599 22.0224L32.5872 21.9833L33.0317 21.6838L33.4211 21.3631L33.6795 21.1063L33.9074 20.8074L34.0582 20.5331L34.1907 20.2195L34.286 19.8524L34.2961 19.6849V19.015L34.2202 18.6837L34.1136 18.338L33.9828 18.0495L33.9175 17.9034L33.8309 17.8712ZM14.1986 20.027L14.4568 20.2303L15.3062 20.7504L15.7766 21.0461L16.1963 21.3136L16.5351 21.5379L16.6009 21.6124L16.6465 21.6661L16.5148 21.6592L16.1761 21.5092L15.6045 21.2422L14.7196 20.8216L14.3606 20.6503L13.9814 20.4407L13.5667 20.1731L13.2631 20.0058L12.899 19.7563L12.6613 19.5819L12.5146 19.4214L12.4591 19.2289L12.4692 19.0508L12.5651 18.9829L12.732 18.99L12.9951 19.1007L13.2782 19.2932L13.4858 19.4709L13.7082 19.6279L13.9257 19.8168L14.1986 20.027ZM12.2821 11.9491L12.2922 11.8528L12.3832 11.7816L12.7017 11.689L13.3642 11.5429L14.0268 11.4857H14.4314L14.7652 11.5358L15.0786 11.6463L15.3264 11.8174L15.3417 11.9134L15.3114 11.9812L15.2051 11.9954L15.0434 11.9812L14.7956 11.9311L14.5628 11.8815L14.2746 11.8599H13.9156L13.612 11.8565L13.344 11.8744L13.0457 11.9098L12.808 11.9562L12.5755 11.9918L12.4236 11.9989L12.3176 11.9883L12.2821 11.9491ZM20.7782 19.9914L20.6818 20.1802L20.6416 20.3296L20.561 20.6008L20.5351 20.818L20.6064 20.8788L20.7531 20.8928L20.8285 20.8499L20.8637 20.7361L20.976 20.5721L21.0867 20.483L21.2082 20.4047L21.2839 20.2801L21.2634 20.0697L21.158 19.9594L21.0968 19.9198H20.955L20.8495 19.9346L20.7782 19.9914ZM20.9861 26.4803H20.8897L20.8134 26.3199L20.8083 26.138L20.8637 25.8885L20.9902 25.5466L21.1981 25.3362L21.3853 25.1726L21.5519 25.1582L21.5973 25.265L21.4965 25.4933L21.3541 25.7711L21.2839 25.9064L21.1522 26.1168L21.0514 26.3626L21.0214 26.4337L20.9861 26.4803ZM27.5042 23.3374L27.3835 23.4442L27.4034 23.6153L27.6154 23.8219L27.6466 24.0463L27.696 24.1106L27.7928 24.1285L27.8982 24.0856L27.9294 23.9857L27.9793 23.8754L28.0001 23.7578V23.6009L27.9692 23.4835L27.8529 23.3801L27.752 23.316L27.6307 23.3089L27.5042 23.3374ZM18.2041 35.214L17.9967 35.3597L17.9207 35.4668L17.8956 35.5596L17.9158 35.6343L17.9817 35.6699H18.0423L18.1838 35.6485L18.3303 35.5809L18.4213 35.4845L18.4972 35.3813L18.5426 35.2495L18.5284 35.1748L18.4721 35.1426L18.3609 35.1461L18.2041 35.214ZM19.7261 33.6531L19.5537 33.728L19.4682 33.803L19.4581 33.8669L19.5083 33.9312L19.5947 33.9487L19.7113 33.9204L19.8067 33.8812L19.8837 33.8063L19.9291 33.728L19.9132 33.6639L19.8526 33.6388L19.7261 33.6531ZM22.5789 31.6538L21.8806 32.1495L21.3047 32.5876L20.8949 32.9083L20.8741 32.9974L20.9195 33.0508L21.0156 33.0544L21.1623 32.9866L21.4254 32.8192L21.7598 32.6055L22.1185 32.3418L22.4571 32.1104L22.7554 31.8642L22.9786 31.6326L23.0382 31.5293L22.9786 31.4761L22.9073 31.4652L22.7095 31.5543L22.5789 31.6538ZM24.2676 30.931L24.1662 31.0055L24.1362 31.0661L24.152 31.1267L24.2217 31.1554H24.2829L24.3741 31.084L24.4749 31.0199L24.52 30.9701L24.5159 30.931L24.4648 30.9129L24.3542 30.9092L24.2676 30.931ZM21.8194 28.2191H21.7391L21.7038 28.2512L21.6937 28.3577V28.5361L21.744 28.7286L21.8303 28.8676L22.0123 29.0778L22.1336 29.2025L22.1991 29.2235L22.2349 29.2204L22.2543 29.1883L22.209 29.0243L22.1636 28.9425L22.159 28.8818L22.1538 28.7107L22.0983 28.497L22.0172 28.3367L21.9063 28.2443L21.8194 28.2191ZM10.2642 27.9802L10.0822 28.005L9.9254 28.0408L9.87977 28.0872L9.87485 28.1513L9.95572 28.2225L10.0112 28.2547L10.1328 28.2795L10.2694 28.2762L10.3349 28.2618L10.4158 28.1941L10.4614 28.1192L10.4816 28.0587L10.4663 28.005L10.4008 27.9767L10.2642 27.9802ZM15.4428 28.3865L14.9977 28.2866L14.9319 28.3045L14.9169 28.3794L14.9674 28.447L15.3062 28.5255L15.7816 28.6289L16.3834 28.7355L16.6465 28.75L16.9195 28.7606L17.1826 28.7927L17.4809 28.8283L17.6527 28.8214L17.7085 28.7714V28.7036L17.6631 28.6609L17.5063 28.6324L17.2282 28.5896L16.8842 28.5719L16.52 28.5327L16.1001 28.5007L15.8474 28.4757L15.64 28.4435L15.4428 28.3865ZM19.5242 28.4899L19.3876 28.5611L19.3616 28.6289L19.3876 28.6893L19.4682 28.7144L19.6149 28.6893L19.716 28.6324L19.7714 28.5611V28.5042L19.7362 28.472H19.6247L19.5242 28.4899ZM5.88961 21.7054L5.7429 21.6838L5.68224 21.6946L5.65684 21.7589L5.68744 21.8692L5.76311 21.919L5.86939 21.9331L5.95545 21.8871L5.97048 21.8159L5.95545 21.7554L5.88961 21.7054ZM2.91604 17.2406L2.86031 17.5186L2.87042 17.8L2.93107 18.0423L3.04745 18.2989L3.16384 18.4628L3.24471 18.5875L3.29525 18.6551L3.36082 18.6943H3.39634L3.42666 18.6622L3.45207 18.5661L3.38131 18.2348L3.33077 18.0316L3.21438 17.8L3.11821 17.5827L3.1133 17.4115L3.05756 17.2441L3.00183 17.2085H2.94637L2.91604 17.2406ZM7.14389 16.8949L7.16903 16.8379L7.14881 16.7667L7.02751 16.6881L6.79501 16.6134L6.47126 16.5137L6.19314 16.4175L5.88961 16.364L5.71257 16.3178L5.55083 16.3212L5.67214 16.3853L6.02621 16.5349L6.33985 16.6989L6.65841 16.8379L6.79501 16.8806L6.99199 16.902L7.14389 16.8949ZM2.70868 15.1168L2.55678 15.3022L2.55186 15.4304L2.61251 15.466L2.70349 15.4411L2.79446 15.352L2.85512 15.2523L2.90074 15.1774V15.0706L2.82998 15.0384L2.75403 15.0635L2.70868 15.1168ZM17.1875 7.40227L17.0104 7.42364L16.7779 7.58053L16.3277 8.08641L15.8523 8.73493L15.5846 9.10915L15.286 9.5438L14.922 9.93938L14.8311 10.0891L14.8461 10.1425L14.9423 10.1461L15.2406 10.0641L15.6704 9.74708L16.2367 9.18749L16.5908 8.72434L16.9093 8.35359L17.147 7.91547L17.2533 7.64097L17.2634 7.48774L17.1875 7.40227ZM8.7722 13.4028L8.87328 13.4315L8.90388 13.5169L8.82793 13.8234L8.61538 14.2438L8.42823 14.6465L8.09957 14.9351L7.93264 15.0242L7.7556 15.0706L7.65451 15.0205L7.64441 14.9279L7.7862 14.8211L7.93264 14.65L8.11978 14.3614L8.23125 14.0871L8.33234 13.8163L8.52932 13.5562L8.661 13.4243L8.7722 13.4028ZM2.73409 12.5121L2.52153 12.7722L2.42536 13.1285L2.39996 13.3175V13.4563L2.44558 13.5275L2.57699 13.5027L2.81987 13.239L2.9562 12.9254L3.06248 12.6474L3.06767 12.4515L3.00702 12.3874L2.84528 12.4195L2.73409 12.5121ZM5.41423 13.0501L5.42953 13.1285L5.48991 13.182L5.62651 13.2782L5.7735 13.3637L5.94507 13.4315L6.06664 13.4848L6.11719 13.4813L6.1426 13.4492L6.1374 13.3887L6.07156 13.321L5.96556 13.2319L5.78852 13.157L5.67705 13.0857L5.58116 13.0253L5.4951 13.0145L5.44456 13.0109L5.41423 13.0501ZM3.90204 11.3968L3.64932 11.4181L3.52775 11.4788L3.48731 11.5748L3.52283 11.6463L3.66435 11.6853L3.89685 11.6676L4.13973 11.6033L4.21049 11.5215L4.20557 11.4609L4.1247 11.4076L4.03345 11.3897L3.90204 11.3968ZM16.5301 13.018L16.6971 13.0501L16.7476 13.1142L16.7678 13.2567L16.793 13.4064L16.7427 13.5133L16.6364 13.5562L16.3785 13.5597L16.2067 13.5312L16.1102 13.4421L16.0296 13.3708V13.2567L16.1558 13.1427L16.3482 13.0359L16.5301 13.018ZM12.1504 3.82472L12.3832 3.68574L12.8132 3.53983L13.2429 3.40431L13.6525 3.26879L13.8396 3.20469L13.9814 3.19044L14.0975 3.20835L14.1885 3.31172L14.1278 3.38641L14.0117 3.40797L13.8699 3.4328L13.7131 3.52539L13.3642 3.67515L12.8839 3.76774L12.5856 3.82126L12.2971 3.8355L12.1504 3.82472ZM11.2909 4.43051L11.2149 4.51598L11.2048 4.58008L11.2707 4.63359L11.3515 4.66208L11.4526 4.65862L11.5032 4.64072L11.5387 4.5589L11.5286 4.46612L11.5032 4.4128L11.4324 4.40202H11.3515L11.2909 4.43051ZM12.2821 5.05401L12.2113 5.05766L12.1556 5.1004L12.1455 5.17162L12.1758 5.22879L12.2315 5.24997H12.3277L12.4034 5.22514L12.4187 5.17162L12.3933 5.10752L12.3577 5.06844L12.2821 5.05401ZM15.2354 5.36412L15.7411 5.11118L16.0496 4.97566L16.2367 4.89385H16.3026L16.3127 4.9899L16.1862 5.06113L16.1255 5.20743L15.9687 5.37836L15.6857 5.47442L15.3974 5.521H15.1392L15.0939 5.46037L15.1595 5.39607L15.2354 5.36412ZM16.9397 5.48886L17.1066 5.33909L17.2989 5.21089L17.4708 5.12908L17.5973 5.12176L17.6831 5.16103V5.27153L17.6377 5.39261L17.4454 5.521L17.2178 5.62072L16.9853 5.66345L16.8738 5.63843L16.8588 5.57432L16.9397 5.48886ZM16.97 6.11582L17.0358 6.03401L17.1927 5.98415L17.4656 5.89137L17.7792 5.75604L17.9259 5.68135L18.1483 5.60628L18.2901 5.6313V5.73833L18.2344 5.83458L18.0371 5.9984L17.7642 6.09099L17.491 6.16933L17.2077 6.17299H17.0309L16.97 6.11582ZM16.4239 2.68456L16.2621 2.72364L16.2266 2.80218L16.2924 2.88765L16.4695 2.88052L16.6162 2.84125L16.7222 2.75579L16.6768 2.68456L16.5351 2.64895L16.4239 2.68456ZM19.2761 2.03238L19.1854 1.98599L19.251 1.90071L19.504 1.88281L19.6406 1.91477L19.7471 1.95404L19.7515 2.01814L19.6608 2.04663L19.5193 2.05375L19.3827 2.04663L19.2761 2.03238ZM19.6903 2.43855L19.8378 2.43509L19.9493 2.45299L20.0045 2.47782L19.9845 2.51709L19.9034 2.58485L19.7925 2.59178L19.6608 2.57773L19.5848 2.5527L19.5294 2.50631L19.5947 2.46704L19.6903 2.43855ZM19.6608 4.27016L19.9291 4.19181L20.1613 4.10634L20.4045 4.0101L20.5905 3.9637L20.7028 3.94234L20.8134 3.82472L20.7329 3.77121L20.5763 3.77833L20.3886 3.80701L20.1812 3.86399L20.0345 3.87111L20.0146 3.79277L20.0345 3.643L19.9493 3.58237H19.8269L19.7471 3.65359L19.6701 3.72501L19.5493 3.8176L19.463 3.97083V4.10634L19.504 4.18103L19.4941 4.25938L19.5695 4.27728L19.6608 4.27016ZM19.5594 11.607L19.6903 11.5999L19.8026 11.664L19.8067 11.7175L19.7714 11.7496L19.6701 11.7708L19.5395 11.7637L19.4529 11.7032L19.4739 11.6499L19.5594 11.607ZM19.7714 11.4004H19.9233L20.0247 11.3219L20.0146 11.2649L19.9132 11.2185H19.8067L19.7261 11.2364L19.6903 11.2898V11.3683L19.7714 11.4004ZM19.9392 10.7269L20.0498 10.7126H20.1564L20.222 10.7517L20.2367 10.8124L20.2023 10.8624L20.1001 10.8978L19.9947 10.9086L19.8837 10.8907L19.8479 10.8374V10.7733L19.9392 10.7269ZM20.0548 10.4347L20.2067 10.4383L20.3433 10.4097L20.3984 10.3492L20.3586 10.2743L20.2476 10.2353L20.1154 10.2493L19.9947 10.2886L19.9692 10.3527L19.9744 10.3954L20.0548 10.4347ZM20.3586 9.67932L20.5151 9.64717H20.6364L20.6919 9.69337L20.6717 9.77538L20.5962 9.8466L20.5252 9.91089L20.3842 9.93226H20.2424L20.1211 9.88953L20.111 9.82177L20.1966 9.75767L20.2618 9.70415L20.3586 9.67932ZM20.5151 9.11627L20.6717 9.10202L20.8134 9.12339L20.8741 9.18403V9.24447L20.8083 9.31935L20.6919 9.3336L20.5706 9.35516L20.4187 9.3515L20.3531 9.29799L20.3632 9.21964L20.4143 9.16612L20.5151 9.11627ZM20.6574 8.92743H20.8083L20.9301 8.89894L21.0867 8.85255L21.1069 8.75995L21.0514 8.68507L20.9195 8.65312L20.7831 8.65659L20.687 8.68507L20.6009 8.71722L20.4998 8.78132L20.4799 8.84908L20.5208 8.9024L20.5962 8.92031L20.6574 8.92743ZM1.02956 17.9746L1.16124 17.9854L1.19649 18.078L1.10551 18.1563L0.953607 18.1313L0.87793 18.0279L1.02956 17.9746ZM20.5509 8.26466L20.7935 8.17554L20.9091 8.15763L21.0514 8.16841L21.1069 8.20402V8.24329L21.0514 8.3074L20.955 8.36437L20.8134 8.40018L20.6465 8.41057L20.5099 8.39652L20.4749 8.33935L20.4952 8.29315L20.5509 8.26466ZM20.7684 7.97957L20.9449 7.92606L21.0156 7.86908L21.0514 7.8121V7.75859L21.0214 7.72663L20.9449 7.72297L20.8394 7.7301L20.7329 7.748L20.6416 7.78708L20.5962 7.82635L20.5804 7.8941L20.6009 7.95455L20.6818 7.97245L20.7684 7.97957ZM20.8083 7.48774L20.9602 7.44867L21.0716 7.39515L21.0968 7.34895L21.1126 7.27061L21.0867 7.22056L21.0156 7.20631L20.9091 7.20997L20.7831 7.22768L20.6971 7.27061L20.6364 7.31315L20.6263 7.38437L20.6416 7.44154L20.723 7.4735L20.8083 7.48774ZM20.8083 6.21572L20.935 6.21207L21.0107 6.22997L21.0315 6.27617L20.9902 6.32256L20.9249 6.37242L20.8184 6.39032H20.7072L20.6364 6.34412V6.29061L20.7028 6.24421L20.8083 6.21572ZM20.8184 6.98186L20.976 6.92835L21.0968 6.85347L21.1069 6.74317L21.0968 6.67541L21.0156 6.64326L20.9249 6.62555L20.8495 6.62902L20.8083 6.66482L20.7883 6.71448L20.7684 6.77878L20.723 6.80015H20.6364L20.6115 6.83576L20.6217 6.89986L20.687 6.95703L20.7531 6.97455L20.8184 6.98186ZM20.8394 5.83092L20.9501 5.77741L21.0667 5.78107L21.1369 5.84151L21.1222 5.90215L21.0667 5.95547L20.976 5.98049L20.8897 5.99493L20.8134 6.00205L20.7129 5.99493L20.687 5.952L20.7129 5.89502L20.773 5.85595L20.8394 5.83092ZM20.8596 5.54584L20.9501 5.521L21.0457 5.46037L21.0514 5.4032L21.0416 5.34275L20.9804 5.31773L20.8848 5.32851L20.8236 5.35353L20.7583 5.4032L20.7531 5.46383V5.521L20.7984 5.53871L20.8596 5.54584ZM20.6416 4.97566L20.7028 4.95429L20.7831 4.95083L20.8495 4.97932L20.8637 5.02205L20.8394 5.08615L20.773 5.12176L20.7129 5.14679L20.6318 5.15391L20.5662 5.12542L20.5509 5.07537L20.5804 5.03283L20.6416 4.97566Z" fill="white" stroke="white" stroke-width="0.5" stroke-miterlimit="2.613"/>
</svg>
