<?xml version="1.0" encoding="UTF-8"?>
<svg version="1.1" xmlns="http://www.w3.org/2000/svg" width="186" height="85">
<path d="M0 0 C2.06279119 -0.00218696 4.12504731 -0.02037379 6.18774414 -0.03930664 C7.49936523 -0.04124023 8.81098633 -0.04317383 10.16235352 -0.04516602 C11.95274048 -0.05132935 11.95274048 -0.05132935 13.77929688 -0.05761719 C17.23730883 0.19270816 19.89917698 0.97838706 23.13500977 2.18530273 C35.91286139 5.81406636 48.56917945 7.82472112 61.83349609 8.46459961 C71.56185908 8.99934109 71.56185908 8.99934109 76.13500977 12.18530273 C77.34683364 15.82077437 77.04570605 18.93553898 76.76000977 22.68530273 C76.69426758 23.70043945 76.69426758 23.70043945 76.62719727 24.73608398 C76.41341328 27.74687512 76.09389442 30.30864877 75.13500977 33.18530273 C77.11500977 34.17530273 79.09500977 35.16530273 81.13500977 36.18530273 C81.13500977 39.15530273 81.13500977 42.12530273 81.13500977 45.18530273 C39.95980062 57.67068873 -8.85668574 55.69784297 -51.55249023 56.87280273 C-52.79669739 56.91017548 -52.79669739 56.91017548 -54.06604004 56.94830322 C-63.27107171 57.21722923 -72.43252457 57.23270606 -81.63452148 56.82983398 C-82.86557869 56.78181892 -82.86557869 56.78181892 -84.12150574 56.73283386 C-88.99644917 56.48023943 -93.22429405 55.70894566 -97.86499023 54.18530273 C-97.86499023 52.20530273 -97.86499023 50.22530273 -97.86499023 48.18530273 C-96.37999023 47.69030273 -96.37999023 47.69030273 -94.86499023 47.18530273 C-94.92686523 46.44280273 -94.98874023 45.70030273 -95.05249023 44.93530273 C-94.86499023 42.18530273 -94.86499023 42.18530273 -93.23999023 40.24780273 C-92.55936523 39.22686523 -92.55936523 39.22686523 -91.86499023 38.18530273 C-92.42186523 36.79311523 -92.42186523 36.79311523 -92.98999023 35.37280273 C-93.86499023 32.18530273 -93.86499023 32.18530273 -93.00170898 30.31420898 C-90.83172772 27.23526801 -89.03752238 25.30032417 -85.86499023 23.18530273 C-85.24624023 22.54592773 -84.62749023 21.90655273 -83.98999023 21.24780273 C-80.4143004 17.77728025 -78.117294 16.24689144 -73.05249023 15.99780273 C-71.47467773 16.09061523 -71.47467773 16.09061523 -69.86499023 16.18530273 C-69.53499023 15.52530273 -69.20499023 14.86530273 -68.86499023 14.18530273 C-68.30513428 14.20625 -67.74527832 14.22719727 -67.16845703 14.2487793 C-64.62998437 14.33196475 -62.09179823 14.38396654 -59.55249023 14.43530273 C-58.67141602 14.46881836 -57.7903418 14.50233398 -56.88256836 14.53686523 C-54.47924816 14.57341763 -52.23793472 14.57286265 -49.86499023 14.18530273 C-47.83914936 12.32336092 -47.83914936 12.32336092 -46.86499023 10.18530273 C-46.20499023 10.18530273 -45.54499023 10.18530273 -44.86499023 10.18530273 C-44.53499023 9.19530273 -44.20499023 8.20530273 -43.86499023 7.18530273 C-42.21499023 6.85530273 -40.56499023 6.52530273 -38.86499023 6.18530273 C-38.86499023 7.17530273 -38.86499023 8.16530273 -38.86499023 9.18530273 C-38.49374023 8.71092773 -38.12249023 8.23655273 -37.73999023 7.74780273 C-35.2488368 5.67184154 -33.02482576 5.71194199 -29.86499023 5.18530273 C-29.39834961 4.69288086 -28.93170898 4.20045898 -28.45092773 3.69311523 C-26.43106251 1.77275076 -25.23660588 1.73841092 -22.48999023 1.56030273 C-20.14232189 1.39088337 -17.94375968 1.20314305 -15.64550781 0.68261719 C-10.48214217 -0.24088583 -5.23193675 -0.00062174 0 0 Z M73.13500977 33.18530273 C74.13500977 35.18530273 74.13500977 35.18530273 74.13500977 35.18530273 Z " fill="#F93338" transform="translate(103.864990234375,22.814697265625)"/>
<path d="M0 0 C2.4375 0.8125 2.4375 0.8125 5 2 C6.21182388 5.63547164 5.91069629 8.75023625 5.625 12.5 C5.55925781 13.51513672 5.55925781 13.51513672 5.4921875 14.55078125 C5.27840351 17.56157239 4.95888465 20.12334604 4 23 C5.98 23.99 7.96 24.98 10 26 C10 28.97 10 31.94 10 35 C-31.17520914 47.485386 -79.99169551 45.51254024 -122.6875 46.6875 C-123.93170715 46.72487274 -123.93170715 46.72487274 -125.2010498 46.76300049 C-134.40608147 47.03192649 -143.56753434 47.04740332 -152.76953125 46.64453125 C-154.00058846 46.59651619 -154.00058846 46.59651619 -155.2565155 46.54753113 C-160.13145894 46.2949367 -164.35930381 45.52364292 -169 44 C-169 42.02 -169 40.04 -169 38 C-167.515 37.505 -167.515 37.505 -166 37 C-166.061875 36.2575 -166.12375 35.515 -166.1875 34.75 C-165.96616995 31.50382587 -164.98763075 30.48453844 -163 28 C-163 27.01 -163 26.02 -163 25 C-162.23034912 24.98018066 -161.46069824 24.96036133 -160.66772461 24.93994141 C-137.56927043 24.45751053 -137.56927043 24.45751053 -114.8125 20.8125 C-111.30046008 20.06403248 -110.21437556 19.99506219 -107 21 C-108.65 21.99 -110.3 22.98 -112 24 C-109.71471005 24.58768383 -109.71471005 24.58768383 -107 24 C-105.01558218 21.86004673 -103.4976696 19.49824035 -102 17 C-101.34 17.33 -100.68 17.66 -100 18 C-100.350625 18.639375 -100.70125 19.27875 -101.0625 19.9375 C-102.65932846 25.15380631 -101.89556685 29.9956361 -99.6875 34.9375 C-97.80300528 37.24077132 -96.86906781 38.20303672 -94 39 C-89.95577838 38.85556351 -87.77334968 38.70890388 -84.75 35.9375 C-84.1725 35.298125 -83.595 34.65875 -83 34 C-82.01 34 -81.02 34 -80 34 C-80.020625 32.783125 -80.04125 31.56625 -80.0625 30.3125 C-80.06824116 27.08022678 -79.78766315 24.15065259 -79 21 C-78.505 21.99 -78.505 21.99 -78 23 C-76.07942708 22.93489583 -74.15885417 22.86979167 -72.23828125 22.8046875 C-70 23 -70 23 -67.7421875 23.96875 C-64.13339784 25.32590167 -60.6224366 25.46313445 -56.8125 25.625 C-55.67095459 25.68409546 -55.67095459 25.68409546 -54.50634766 25.74438477 C-50.62126604 25.93271975 -46.76494441 26.02277703 -42.875 25.9375 C-36.20054106 25.83321158 -29.58425332 27.0167515 -23 28 C-23 25.69 -23 23.38 -23 21 C-22.36964844 20.75894531 -21.73929688 20.51789062 -21.08984375 20.26953125 C-18.85433518 19.18544964 -18.85433518 19.18544964 -18.12890625 17.01171875 C-17.94199219 16.24472656 -17.75507813 15.47773437 -17.5625 14.6875 C-16.23026786 10.29396849 -14.89986018 7.68657035 -11 5 C-6.70637666 4.19601475 -2.69873545 4.53417637 1 7 C0.67 4.69 0.34 2.38 0 0 Z M2 23 C3 25 3 25 3 25 Z " fill="#010101" transform="translate(175,33)"/>
<path d="M0 0 C5.42743242 -0.19933809 10.8234763 0.40598582 16.21484375 0.9765625 C16.91963867 1.04649414 17.62443359 1.11642578 18.35058594 1.18847656 C24.18806463 1.87283301 29.30880881 3.52354503 34.58984375 6.1640625 C34.25984375 7.1540625 33.92984375 8.1440625 33.58984375 9.1640625 C32.59984375 9.4940625 31.60984375 9.8240625 30.58984375 10.1640625 C32.06468015 10.4196187 33.54530426 10.64177609 35.02734375 10.8515625 C35.85105469 10.97917969 36.67476563 11.10679688 37.5234375 11.23828125 C40.46308659 11.16713051 42.07745036 10.70947567 44.78125 9.69921875 C49.94030564 7.8503553 54.65664902 7.78584552 60.08984375 7.9140625 C60.99476563 7.91921875 61.8996875 7.924375 62.83203125 7.9296875 C69.43478106 8.00899981 69.43478106 8.00899981 70.58984375 9.1640625 C70.63065158 11.16364614 70.63238731 13.16451504 70.58984375 15.1640625 C70.09484375 14.9990625 69.59984375 14.8340625 69.08984375 14.6640625 C65.49174842 13.94444343 62.26445142 13.9862589 58.58984375 14.1640625 C57.92984375 14.8240625 57.26984375 15.4840625 56.58984375 16.1640625 C53.93447003 16.72926253 51.29839662 16.90194448 48.58984375 17.1640625 C48.58984375 17.8240625 48.58984375 18.4840625 48.58984375 19.1640625 C46.53062242 19.69771137 44.46728268 20.21548439 42.40234375 20.7265625 C41.25378906 21.01660156 40.10523438 21.30664062 38.921875 21.60546875 C34.11484893 22.41133596 31.39884103 21.51276822 26.96484375 19.6015625 C21.04288646 17.30231772 14.77919841 17.63250339 8.58984375 18.6640625 C3.71015318 19.47734426 -2.88533538 20.42647294 -7.41015625 18.1640625 C-7.41015625 17.5040625 -7.41015625 16.8440625 -7.41015625 16.1640625 C-8.07015625 16.1640625 -8.73015625 16.1640625 -9.41015625 16.1640625 C-9.48443463 19.50658974 -9.47562578 21.9676539 -8.41015625 25.1640625 C-11.19213706 24.76663667 -12.2404996 24.35189665 -14.16015625 22.2265625 C-19.06971631 17.72613245 -25.88096402 17.87117167 -32.22436523 17.91455078 C-38.21032085 18.38337189 -43.89574773 20.11682076 -49.66015625 21.7265625 C-52.09946196 22.40685207 -54.5421227 23.07524771 -56.98828125 23.73046875 C-58.0546582 24.02896729 -59.12103516 24.32746582 -60.21972656 24.63500977 C-63.86280507 25.23912295 -66.79996672 24.85099976 -70.41015625 24.1640625 C-55.41954407 10.95068784 -24.9750801 15.23297161 -6.41015625 15.1640625 C-6.41015625 14.5040625 -6.41015625 13.8440625 -6.41015625 13.1640625 C-6.41015625 11.49739583 -6.41015625 9.83072917 -6.41015625 8.1640625 C-8.45383197 8.76139799 -10.49501668 9.36725907 -12.53515625 9.9765625 C-13.67210937 10.31300781 -14.8090625 10.64945313 -15.98046875 10.99609375 C-19.41441714 12.05596181 -19.41441714 12.05596181 -22.37890625 13.7890625 C-26.0644325 15.4608476 -28.7593491 15.46550044 -32.78515625 15.3515625 C-34.03039062 15.32449219 -35.275625 15.29742187 -36.55859375 15.26953125 C-37.49960938 15.23472656 -38.440625 15.19992188 -39.41015625 15.1640625 C-31.76697344 6.73215205 -16.31029495 1.26209533 -5.1640625 0.265625 C-3.44160362 0.20210169 -1.71965026 0.11705885 0 0 Z " fill="#FC7981" transform="translate(105.41015625,24.8359375)"/>
<path d="M0 0 C0.66 0 1.32 0 2 0 C2 0.66 2 1.32 2 2 C4.04159095 2.0272616 6.08328963 2.04651345 8.125 2.0625 C9.83042969 2.07990234 9.83042969 2.07990234 11.5703125 2.09765625 C14.82244648 2.00505562 17.80296292 1.56874514 21 1 C26.90756261 0.46692113 31.6365168 0.58717794 37.0625 3.125 C41.80597027 5.28180842 44.77225905 4.91437849 49.7265625 3.5859375 C52.52336548 2.86511199 55.1262645 2.84875076 58 3 C58 2.34 58 1.68 58 1 C61.465 0.505 61.465 0.505 65 0 C64.24002685 1.79630017 63.46662359 3.58692285 62.6875 5.375 C62.25824219 6.37273438 61.82898438 7.37046875 61.38671875 8.3984375 C60 11 60 11 57 13 C56.26393501 16.56769552 56.26393501 16.56769552 56 20 C54.25008666 20.02715383 52.50005055 20.04646551 50.75 20.0625 C49.28820312 20.07990234 49.28820312 20.07990234 47.796875 20.09765625 C45 20 45 20 43.0078125 19.49609375 C40.33495663 18.83567995 37.87576675 18.94512186 35.125 19 C16.38968674 19.12687571 16.38968674 19.12687571 9 16 C6.33427985 15.50686503 3.70184283 15.27476368 1 15 C0.34 13.35 -0.32 11.7 -1 10 C-0.34 10 0.32 10 1 10 C0.4740625 8.63875 0.4740625 8.63875 -0.0625 7.25 C-0.96468779 4.12241564 -1.13381507 2.94791919 0 0 Z " fill="#B91111" transform="translate(96,41)"/>
<path d="M0 0 C2.06279119 -0.00218696 4.12504731 -0.02037379 6.18774414 -0.03930664 C7.49936523 -0.04124023 8.81098633 -0.04317383 10.16235352 -0.04516602 C11.95274048 -0.05132935 11.95274048 -0.05132935 13.77929688 -0.05761719 C17.23730883 0.19270816 19.89917698 0.97838706 23.13500977 2.18530273 C38.63294429 6.58653878 54.0872423 8.32552899 70.13500977 9.18530273 C70.13500977 9.51530273 70.13500977 9.84530273 70.13500977 10.18530273 C68.86786133 10.22268555 67.60071289 10.26006836 66.29516602 10.29858398 C64.59592046 10.36430066 62.89670297 10.43074597 61.19750977 10.49780273 C60.36670898 10.52036133 59.5359082 10.54291992 58.67993164 10.56616211 C53.40340568 10.79200563 49.11655013 11.74743136 44.16845703 13.55957031 C41.34538483 14.42828613 38.97674075 14.27718933 36.07250977 13.87280273 C34.66291992 13.69297852 34.66291992 13.69297852 33.22485352 13.50952148 C32.19038086 13.3490332 32.19038086 13.3490332 31.13500977 13.18530273 C32.13500977 11.18530273 32.13500977 11.18530273 35.13500977 10.18530273 C35.46500977 9.52530273 35.79500977 8.86530273 36.13500977 8.18530273 C27.15820539 5.76370557 18.47613213 3.52099932 9.13500977 3.18530273 C8.33063477 3.1453418 7.52625977 3.10538086 6.69750977 3.06420898 C4.16215985 2.99513695 1.66824115 3.06413173 -0.86499023 3.18530273 C-1.75831055 3.20592773 -2.65163086 3.22655273 -3.57202148 3.24780273 C-15.64895406 4.26080887 -26.25980243 10.74068114 -36.86499023 16.18530273 C-28.0986929 16.58933048 -21.78578537 15.9735091 -13.86499023 12.18530273 C-12.03806954 11.39939186 -10.20474518 10.62818137 -8.36499023 9.87280273 C-7.55030273 9.52604492 -6.73561523 9.17928711 -5.89624023 8.82202148 C-3.86499023 8.18530273 -3.86499023 8.18530273 -1.86499023 9.18530273 C-2.85499023 10.50530273 -3.84499023 11.82530273 -4.86499023 13.18530273 C-0.90499023 13.18530273 3.05500977 13.18530273 7.13500977 13.18530273 C7.13500977 13.51530273 7.13500977 13.84530273 7.13500977 14.18530273 C1.19500977 14.68030273 1.19500977 14.68030273 -4.86499023 15.18530273 C-4.86499023 15.84530273 -4.86499023 16.50530273 -4.86499023 17.18530273 C-9.78662318 18.14283029 -14.55847242 18.41000668 -19.55249023 18.53686523 C-20.37322021 18.56001801 -21.1939502 18.58317078 -22.03955078 18.60702515 C-23.76743983 18.65444475 -25.49538938 18.69970381 -27.22338867 18.74291992 C-29.85678595 18.81009346 -32.48972555 18.88792408 -35.12280273 18.96655273 C-36.80768145 19.01147028 -38.49257699 19.05576209 -40.17749023 19.09936523 C-40.95890381 19.12326324 -41.74031738 19.14716125 -42.54541016 19.17178345 C-46.78820832 19.26837319 -50.68208192 19.04565848 -54.86499023 18.18530273 C-52.81703017 15.11336264 -51.18208721 13.73328132 -47.86499023 12.18530273 C-47.53499023 11.52530273 -47.20499023 10.86530273 -46.86499023 10.18530273 C-46.20499023 10.18530273 -45.54499023 10.18530273 -44.86499023 10.18530273 C-44.53499023 9.19530273 -44.20499023 8.20530273 -43.86499023 7.18530273 C-42.21499023 6.85530273 -40.56499023 6.52530273 -38.86499023 6.18530273 C-38.86499023 7.17530273 -38.86499023 8.16530273 -38.86499023 9.18530273 C-38.49374023 8.71092773 -38.12249023 8.23655273 -37.73999023 7.74780273 C-35.2488368 5.67184154 -33.02482576 5.71194199 -29.86499023 5.18530273 C-29.39834961 4.69288086 -28.93170898 4.20045898 -28.45092773 3.69311523 C-26.43106251 1.77275076 -25.23660588 1.73841092 -22.48999023 1.56030273 C-20.14232189 1.39088337 -17.94375968 1.20314305 -15.64550781 0.68261719 C-10.48214217 -0.24088583 -5.23193675 -0.00062174 0 0 Z " fill="#2A3137" transform="translate(103.864990234375,22.814697265625)"/>
<path d="M0 0 C-2.475 1.485 -2.475 1.485 -5 3 C-1.37114676 3.15149298 -1.37114676 3.15149298 2 2 C1.71926927 4.14729141 1.42511501 6.29283193 1.125 8.4375 C0.96257812 9.63246094 0.80015625 10.82742187 0.6328125 12.05859375 C0.42398438 13.02925781 0.21515625 13.99992187 0 15 C-5.30572023 17.65286012 -14.256325 17.38237602 -20 16 C-22.1953125 13.8046875 -22.1953125 13.8046875 -23.75 11.0625 C-25.28268858 8.14899936 -25.28268858 8.14899936 -28 6 C-35.1306949 4.34192936 -42.7246898 4.74284894 -50 5 C-49.67 7.97 -49.34 10.94 -49 14 C-45.7 13.67 -42.4 13.34 -39 13 C-39 11.35 -39 9.7 -39 8 C-37 6 -37 6 -34.625 5.5 C-32 6 -32 6 -29.625 8.75 C-28 12 -28 12 -28.3984375 14.203125 C-28.59695312 14.79609375 -28.79546875 15.3890625 -29 16 C-32.35409194 16.05859857 -35.70805017 16.09379582 -39.0625 16.125 C-40.00544922 16.14175781 -40.94839844 16.15851563 -41.91992188 16.17578125 C-47.33268262 16.21350084 -51.94496086 16.02738622 -57 14 C-57.66 13.01 -58.32 12.02 -59 11 C-58.2575 10.1028125 -58.2575 10.1028125 -57.5 9.1875 C-55.71723582 7.02970006 -55.71723582 7.02970006 -56 4 C-54.84552368 3.970271 -54.84552368 3.970271 -53.66772461 3.93994141 C-30.56927043 3.45751053 -30.56927043 3.45751053 -7.8125 -0.1875 C-4.30046008 -0.93596752 -3.21437556 -1.00493781 0 0 Z " fill="#980A0C" transform="translate(68,54)"/>
<path d="M0 0 C8.20999102 -0.30153556 16.46643046 1.10858421 24.58984375 2.1640625 C24.58984375 5.1640625 24.58984375 5.1640625 23.19140625 6.6640625 C14.04119254 13.6080982 4.86371621 14.65161375 -6.41015625 15.1640625 C-6.41015625 12.83072917 -6.41015625 10.49739583 -6.41015625 8.1640625 C-8.45383197 8.76139799 -10.49501668 9.36725907 -12.53515625 9.9765625 C-14.24058594 10.48123047 -14.24058594 10.48123047 -15.98046875 10.99609375 C-19.41441714 12.05596181 -19.41441714 12.05596181 -22.37890625 13.7890625 C-26.0644325 15.4608476 -28.7593491 15.46550044 -32.78515625 15.3515625 C-34.03039062 15.32449219 -35.275625 15.29742187 -36.55859375 15.26953125 C-37.49960938 15.23472656 -38.440625 15.19992188 -39.41015625 15.1640625 C-31.76697344 6.73215205 -16.31029495 1.26209533 -5.1640625 0.265625 C-3.44160362 0.20210169 -1.71965026 0.11705885 0 0 Z " fill="#575F62" transform="translate(105.41015625,24.8359375)"/>
<path d="M0 0 C1.1653125 -0.02578125 2.330625 -0.0515625 3.53125 -0.078125 C5.00078125 0.08429687 5.00078125 0.08429687 6.5 0.25 C7.16 1.24 7.82 2.23 8.5 3.25 C9.49 3.91 10.48 4.57 11.5 5.25 C11.17 5.58 10.84 5.91 10.5 6.25 C10.26346477 8.77596259 10.07826308 11.28107207 9.9375 13.8125 C9.89431641 14.52341797 9.85113281 15.23433594 9.80664062 15.96679688 C9.70028223 17.72761912 9.59961154 19.4887832 9.5 21.25 C8.51 21.25 7.52 21.25 6.5 21.25 C6.2525 21.86875 6.005 22.4875 5.75 23.125 C4.2091547 25.74443701 3.41019654 26.38480643 0.5 27.25 C-3.9656646 27.1688061 -5.93637609 26.72785505 -9.375 23.8125 C-13.241572 19.14986906 -13.78806734 14.23357012 -13.5 8.25 C-10.55658525 1.5071176 -6.97996544 0.09265441 0 0 Z " fill="#606162" transform="translate(85.5,45.75)"/>
<path d="M0 0 C-0.76074843 1.62974564 -1.53398433 3.25366648 -2.3125 4.875 C-2.74175781 5.77992187 -3.17101562 6.68484375 -3.61328125 7.6171875 C-5 10 -5 10 -8 12 C-8.73606499 15.56769552 -8.73606499 15.56769552 -9 19 C-10.74991334 19.02715383 -12.49994945 19.04646551 -14.25 19.0625 C-15.71179688 19.07990234 -15.71179688 19.07990234 -17.203125 19.09765625 C-20 19 -20 19 -21.9921875 18.49609375 C-24.66504337 17.83567995 -27.12423325 17.94512186 -29.875 18 C-48.61031326 18.12687571 -48.61031326 18.12687571 -56 15 C-58.66572015 14.50686503 -61.29815717 14.27476368 -64 14 C-64.66 12.35 -65.32 10.7 -66 9 C-64.1875 8.34375 -64.1875 8.34375 -62 8 C-61.01 8.825 -60.02 9.65 -59 10.5 C-55.56392937 13.18651742 -53.24090304 13.24828155 -48.9375 12.875 C-45.85613873 12.47308331 -42.8118219 11.96743071 -39.75 11.4375 C-36.12625115 10.8609945 -32.66780127 10.93676205 -29 11 C-29 11.66 -29 12.32 -29 13 C-24.71 11.68 -20.42 10.36 -16 9 C-18.475 7.02 -18.475 7.02 -21 5 C-16.07015675 2.96006486 -12.42039575 1.59347032 -7 2 C-7 1.34 -7 0.68 -7 0 C-3.86650268 -1.04449911 -3.01031744 -0.93423645 0 0 Z " fill="#AD171F" transform="translate(161,42)"/>
<path d="M0 0 C2.45862401 -0.05383848 4.9160755 -0.09359038 7.375 -0.125 C8.42300781 -0.15013672 8.42300781 -0.15013672 9.4921875 -0.17578125 C11.32897486 -0.19344267 13.16601963 -0.10303261 15 0 C15.66 0.66 16.32 1.32 17 2 C16.67 2.33 16.34 2.66 16 3 C18.475 3.495 18.475 3.495 21 4 C21 4.66 21 5.32 21 6 C19.16927083 6.45768229 17.33854167 6.91536458 15.5078125 7.37304688 C14.39019531 7.65245117 14.39019531 7.65245117 13.25 7.9375 C11.14095052 8.46476237 9.03190104 8.99202474 6.92285156 9.51928711 C5.57600999 9.8559975 4.23443176 10.21414931 2.89746094 10.58813477 C0.63264244 11.07973909 -0.81689259 10.7017131 -3 10 C-3 10.99 -3 11.98 -3 13 C-3.85464844 13.34933594 -4.70929687 13.69867188 -5.58984375 14.05859375 C-6.69457031 14.51363281 -7.79929687 14.96867187 -8.9375 15.4375 C-10.59072266 16.11619141 -10.59072266 16.11619141 -12.27734375 16.80859375 C-14.86568916 17.74424608 -14.86568916 17.74424608 -16 19 C-8.74 19.33 -1.48 19.66 6 20 C6 20.33 6 20.66 6 21 C-3.57 21 -13.14 21 -23 21 C-23.33 20.01 -23.66 19.02 -24 18 C-23.109375 16.24609375 -23.109375 16.24609375 -21.75 14.4375 C-21.31171875 13.83808594 -20.8734375 13.23867188 -20.421875 12.62109375 C-19 11 -19 11 -16 9 C-15.38125 8.360625 -14.7625 7.72125 -14.125 7.0625 C-10.54931017 3.59197752 -8.25230376 2.06158871 -3.1875 1.8125 C-2.135625 1.874375 -1.08375 1.93625 0 2 C0 1.34 0 0.68 0 0 Z " fill="#F74A4F" transform="translate(34,37)"/>
<path d="M0 0 C0.66 0 1.32 0 2 0 C2 3.3 2 6.6 2 10 C0.64132813 10.10957031 -0.71734375 10.21914063 -2.1171875 10.33203125 C-14.09638264 11.32425172 -26.02824134 12.51001378 -37.95263672 14.03442383 C-44.69062232 14.8611216 -51.21045466 15.12324257 -58 15 C-57.67 11.37 -57.34 7.74 -57 4 C-55.783125 3.95875 -54.56625 3.9175 -53.3125 3.875 C-52.28576172 3.84019531 -52.28576172 3.84019531 -51.23828125 3.8046875 C-49 4 -49 4 -46.7421875 4.96875 C-43.13339784 6.32590167 -39.6224366 6.46313445 -35.8125 6.625 C-34.67095459 6.68409546 -34.67095459 6.68409546 -33.50634766 6.74438477 C-29.62126604 6.93271975 -25.76494441 7.02277703 -21.875 6.9375 C-15.20054106 6.83321158 -8.58425332 8.0167515 -2 9 C-2.04125 7.88625 -2.0825 6.7725 -2.125 5.625 C-2 2 -2 2 0 0 Z " fill="#800A10" transform="translate(154,52)"/>
<path d="M0 0 C0 0.99 0 1.98 0 3 C0.99 2.01 1.98 1.02 3 0 C7.875 1.75 7.875 1.75 9 4 C8.34 4 7.68 4 7 4 C6.9175 4.61875 6.835 5.2375 6.75 5.875 C6 8 6 8 3.953125 9.1328125 C3.30859375 9.41898438 2.6640625 9.70515625 2 10 C10.75573138 10.49405381 17.11011945 9.77342113 25 6 C26.8269207 5.21408912 28.66024506 4.44287864 30.5 3.6875 C31.3146875 3.34074219 32.129375 2.99398438 32.96875 2.63671875 C35 2 35 2 37 3 C36.01 4.32 35.02 5.64 34 7 C37.96 7 41.92 7 46 7 C46 7.33 46 7.66 46 8 C40.06 8.495 40.06 8.495 34 9 C34 9.66 34 10.32 34 11 C29.07836705 11.95752755 24.30651781 12.22470394 19.3125 12.3515625 C18.49177002 12.37471527 17.67104004 12.39786804 16.82543945 12.42172241 C15.0975504 12.46914202 13.36960085 12.51440108 11.64160156 12.55761719 C9.00820429 12.62479072 6.37526469 12.70262134 3.7421875 12.78125 C2.05730878 12.82616755 0.37241324 12.87045935 -1.3125 12.9140625 C-2.48462036 12.94990952 -2.48462036 12.94990952 -3.68041992 12.98648071 C-7.92321808 13.08307046 -11.81709168 12.86035574 -16 12 C-13.95203993 8.9280599 -12.31709697 7.54797859 -9 6 C-8.67 5.34 -8.34 4.68 -8 4 C-7.34 4 -6.68 4 -6 4 C-5.67 3.01 -5.34 2.02 -5 1 C-3 0 -3 0 0 0 Z " fill="#1E262A" transform="translate(65,29)"/>
<path d="M0 0 C4.84614951 -0.10865806 9.46729304 0.29916917 14.23828125 1.12890625 C14.23828125 1.45890625 14.23828125 1.78890625 14.23828125 2.12890625 C12.1975661 2.46801619 10.15565504 2.79993329 8.11328125 3.12890625 C6.40785156 3.40734375 6.40785156 3.40734375 4.66796875 3.69140625 C1.47690523 4.09846674 -1.54989666 4.20700527 -4.76171875 4.12890625 C-5.06335938 5.05509766 -5.06335938 5.05509766 -5.37109375 6 C-7.38632734 9.08511884 -9.50193625 9.26588141 -13.01171875 10.19140625 C-16.51811801 11.13264015 -19.52621559 12.0009019 -22.72265625 13.73828125 C-26.41443283 15.42757747 -29.09856804 15.43069353 -33.13671875 15.31640625 C-34.38195312 15.28933594 -35.6271875 15.26226562 -36.91015625 15.234375 C-37.85117188 15.19957031 -38.7921875 15.16476563 -39.76171875 15.12890625 C-32.1222757 6.70112148 -16.69162553 1.24948954 -5.5546875 0.2265625 C-3.7027172 0.16180829 -1.85108667 0.0864015 0 0 Z " fill="#687176" transform="translate(105.76171875,24.87109375)"/>
<path d="M0 0 C0.89460938 -0.00128906 1.78921875 -0.00257812 2.7109375 -0.00390625 C3.65195313 -0.00003906 4.59296875 0.00382812 5.5625 0.0078125 C6.97402344 0.00201172 6.97402344 0.00201172 8.4140625 -0.00390625 C9.75597656 -0.00197266 9.75597656 -0.00197266 11.125 0 C11.95128906 0.00112793 12.77757812 0.00225586 13.62890625 0.00341797 C15.5625 0.1328125 15.5625 0.1328125 16.5625 1.1328125 C16.60330783 3.13239614 16.60504356 5.13326504 16.5625 7.1328125 C16.0675 6.9678125 15.5725 6.8028125 15.0625 6.6328125 C11.46440467 5.91319343 8.23710767 5.9550089 4.5625 6.1328125 C3.9025 6.7928125 3.2425 7.4528125 2.5625 8.1328125 C-0.09287372 8.69801253 -2.72894713 8.87069448 -5.4375 9.1328125 C-5.4375 9.7928125 -5.4375 10.4528125 -5.4375 11.1328125 C-7.49672133 11.66646137 -9.56006107 12.18423439 -11.625 12.6953125 C-12.77355469 12.98535156 -13.92210937 13.27539062 -15.10546875 13.57421875 C-21.1621313 14.58957953 -25.86793431 12.30399913 -31.4375 10.1328125 C-31.4375 9.8028125 -31.4375 9.4728125 -31.4375 9.1328125 C-25.00721459 7.80893021 -19.0080166 6.88486848 -12.4375 7.1328125 C-12.1075 6.4728125 -11.7775 5.8128125 -11.4375 5.1328125 C-9.37109375 4.28125 -9.37109375 4.28125 -6.875 3.5078125 C-6.04871094 3.24742188 -5.22242188 2.98703125 -4.37109375 2.71875 C-3.73300781 2.52539062 -3.09492188 2.33203125 -2.4375 2.1328125 C-3.4275 1.8028125 -4.4175 1.4728125 -5.4375 1.1328125 C-3.84812444 -0.45656306 -2.19850154 0.00300107 0 0 Z " fill="#F95960" transform="translate(159.4375,32.8671875)"/>
<path d="M0 0 C3.5196947 -0.23413602 7.03737584 -0.37497976 10.5625 -0.5 C12.0484668 -0.60054687 12.0484668 -0.60054687 13.56445312 -0.703125 C20.8487483 -0.89672753 20.8487483 -0.89672753 24.24169922 1.74609375 C26.53967654 4.34416471 28.44824616 6.89649232 30 10 C36.6 10 43.2 10 50 10 C49 12 49 12 47.39501953 12.61450195 C42.04431895 13.47574112 36.54630173 13.18589374 31.13623047 13.18530273 C28.87578784 13.18749923 26.61582576 13.2057035 24.35546875 13.22460938 C22.92187667 13.22754169 21.48828227 13.22952757 20.0546875 13.23046875 C18.09764893 13.23663208 18.09764893 13.23663208 16.10107422 13.24291992 C13 13 13 13 11 11 C14.3 11 17.6 11 21 11 C20.20771875 6.22582008 20.20771875 6.22582008 18 2 C15.44480079 1.18828772 15.44480079 1.18828772 13 1 C13.061875 2.175625 13.061875 2.175625 13.125 3.375 C13 6 13 6 11 8 C11.66 8.33 12.32 8.66 13 9 C9.04 9 5.08 9 1 9 C-0.4783226 6.04335481 -0.06032783 3.25770263 0 0 Z " fill="#0F171B" transform="translate(18,59)"/>
<path d="M0 0 C0.33 0 0.66 0 1 0 C1 2.64 1 5.28 1 8 C2.299375 7.87625 3.59875 7.7525 4.9375 7.625 C5.66839844 7.55539063 6.39929688 7.48578125 7.15234375 7.4140625 C7.76207031 7.27742188 8.37179688 7.14078125 9 7 C9.33 6.34 9.66 5.68 10 5 C11.63109367 6.63109367 11.24872283 8.44187222 11.3125 10.6875 C11.26368357 15.56216941 10.33759825 18.2915575 7 22 C4.24390336 24.18586975 3.02355952 24.0016533 -0.5625 23.75 C-4 23 -4 23 -7 21 C-6.67 20.34 -6.34 19.68 -6 19 C-5.67 19 -5.34 19 -5 19 C-4.67 16.36 -4.34 13.72 -4 11 C-6.475 10.01 -6.475 10.01 -9 9 C-8.67 8.01 -8.34 7.02 -8 6 C-8 6.66 -8 7.32 -8 8 C-6.35 8.33 -4.7 8.66 -3 9 C-3 8.34 -3 7.68 -3 7 C-2.34 7 -1.68 7 -1 7 C-0.67 4.69 -0.34 2.38 0 0 Z " fill="#AAAAAB" transform="translate(83,49)"/>
<path d="M0 0 C-2.475 1.485 -2.475 1.485 -5 3 C-1.37114676 3.15149298 -1.37114676 3.15149298 2 2 C1.34 5.63 0.68 9.26 0 13 C-2.37570543 13.0816082 -4.74855841 13.14077222 -7.125 13.1875 C-7.79015625 13.21263672 -8.4553125 13.23777344 -9.140625 13.26367188 C-13.85799257 13.33304493 -17.01690783 12.52586332 -21 10 C-21.875 7.8125 -21.875 7.8125 -22 6 C-20.02 5.67 -18.04 5.34 -16 5 C-16 4.34 -16 3.68 -16 3 C-17.32 2.67 -18.64 2.34 -20 2 C-17.41842632 1.46867611 -14.83538244 0.94965621 -12.25 0.4375 C-11.52039062 0.28603516 -10.79078125 0.13457031 -10.0390625 -0.02148438 C-6.33442927 -0.74557178 -3.60677678 -1.09817231 0 0 Z " fill="#BF1012" transform="translate(68,54)"/>
<path d="M0 0 C3.49665998 0.71522591 4.31810552 1.95276661 6.34375 4.8125 C8.76724902 9.55178697 8.5094545 14.3752825 7.75 19.5625 C5.625 22.8125 5.625 22.8125 2.75 24.5625 C-0.4375 25.0625 -0.4375 25.0625 -3.25 24.5625 C-3.91 23.5725 -4.57 22.5825 -5.25 21.5625 C-2.94 21.5625 -0.63 21.5625 1.75 21.5625 C1.40213292 19.58713255 1.40213292 19.58713255 0.75 17.5625 C0.09 17.2325 -0.57 16.9025 -1.25 16.5625 C-1.58 17.8825 -1.91 19.2025 -2.25 20.5625 C-2.58 20.5625 -2.91 20.5625 -3.25 20.5625 C-3.353125 19.469375 -3.45625 18.37625 -3.5625 17.25 C-4.22307727 13.70690371 -4.4527092 12.63006277 -7.25 10.5625 C-5.6 10.5625 -3.95 10.5625 -2.25 10.5625 C-2.25 8.5825 -2.25 6.6025 -2.25 4.5625 C-2.70375 5.0575 -3.1575 5.5525 -3.625 6.0625 C-5.25 7.5625 -5.25 7.5625 -7.25 7.5625 C-7.58 8.5525 -7.91 9.5425 -8.25 10.5625 C-8.58 9.5725 -8.91 8.5825 -9.25 7.5625 C-7.02624896 3.52167612 -4.58302791 0.79321637 0 0 Z " fill="#96948D" transform="translate(168.25,38.4375)"/>
<path d="M0 0 C0 1.98 0 3.96 0 6 C-1.60433809 5.52140759 -3.20846416 5.04210442 -4.8125 4.5625 C-5.70582031 4.29566406 -6.59914062 4.02882813 -7.51953125 3.75390625 C-9.35473055 3.19612127 -11.18033726 2.60655425 -13 2 C-21.86425595 1.10116996 -29.77048004 3.19454895 -38.25 5.5625 C-40.68930571 6.24278957 -43.13196645 6.91118521 -45.578125 7.56640625 C-46.64450195 7.86490479 -47.71087891 8.16340332 -48.80957031 8.47094727 C-52.45264882 9.07506045 -55.38981047 8.68693726 -59 8 C-44.85894612 -4.59033779 -17.49220898 -0.47933962 0 0 Z " fill="#FCACB2" transform="translate(94,41)"/>
<path d="M0 0 C2.75 1 2.75 1 5.75 3 C5.42 3.99 5.09 4.98 4.75 6 C3.76 6.33 2.77 6.66 1.75 7 C4.72 7.33 7.69 7.66 10.75 8 C1.27544856 12.73727572 -10.86322263 12.31528161 -21.25 12 C-21.25 11.34 -21.25 10.68 -21.25 10 C-20.18072266 9.67128906 -20.18072266 9.67128906 -19.08984375 9.3359375 C-14.17921225 7.71007566 -10.19928542 6.32219808 -6.4375 2.6875 C-3.61460957 0 -3.61460957 0 0 0 Z " fill="#FCA0A1" transform="translate(134.25,28)"/>
<path d="M0 0 C1.32 0 2.64 0 4 0 C4 0.66 4 1.32 4 2 C4.99 2 5.98 2 7 2 C7 2.66 7 3.32 7 4 C5.35 4.66 3.7 5.32 2 6 C4.64 6 7.28 6 10 6 C9.67 6.66 9.34 7.32 9 8 C13.29 8 17.58 8 22 8 C22 8.33 22 8.66 22 9 C17.75054147 10.03987597 13.64072144 10.12989631 9.29296875 10.09765625 C8.20487663 10.09553383 8.20487663 10.09553383 7.09480286 10.09336853 C4.7923255 10.08779931 2.48994765 10.07525261 0.1875 10.0625 C-1.37955588 10.05748102 -2.9466133 10.05291881 -4.51367188 10.04882812 C-8.34248589 10.03783998 -12.17122611 10.02059673 -16 10 C-13.22845783 7.87266395 -10.63910857 6.22640835 -7.4375 4.8125 C-6.67308594 4.46832031 -5.90867187 4.12414063 -5.12109375 3.76953125 C-3 3 -3 3 0 3 C0 2.01 0 1.02 0 0 Z " fill="#F85A60" transform="translate(31,47)"/>
<path d="M0 0 C2.625 1.25 2.625 1.25 4.421875 2.84375 C7.36469678 4.72214688 9.06893664 4.40160029 12.5 4 C13.56476563 3.88269531 14.62953125 3.76539063 15.7265625 3.64453125 C17.78176844 3.3647795 19.83122711 3.04122992 21.875 2.6875 C25.49874885 2.1109945 28.95719873 2.18676205 32.625 2.25 C32.295 3.57 31.965 4.89 31.625 6.25 C22.76421467 8.40272876 14.21557493 9.84541634 5.625 6.25 C2.95927985 5.75686503 0.32684283 5.52476368 -2.375 5.25 C-3.035 3.6 -3.695 1.95 -4.375 0.25 C-2.375 -0.75 -2.375 -0.75 0 0 Z " fill="#F43741" transform="translate(99.375,50.75)"/>
<path d="M0 0 C2.625 0.5 2.625 0.5 5 3.25 C6.625 6.5 6.625 6.5 6.2265625 8.703125 C6.02804688 9.29609375 5.82953125 9.8890625 5.625 10.5 C2.27090806 10.55859857 -1.08305017 10.59379582 -4.4375 10.625 C-5.38044922 10.64175781 -6.32339844 10.65851563 -7.29492188 10.67578125 C-12.70768262 10.71350084 -17.31996086 10.52738622 -22.375 8.5 C-23.035 7.51 -23.695 6.52 -24.375 5.5 C-23.055 4.51 -21.735 3.52 -20.375 2.5 C-20.705 4.15 -21.035 5.8 -21.375 7.5 C-15.765 7.5 -10.155 7.5 -4.375 7.5 C-4.375 5.85 -4.375 4.2 -4.375 2.5 C-2.375 0.5 -2.375 0.5 0 0 Z " fill="#1D2C31" transform="translate(33.375,59.5)"/>
<path d="M0 0 C4.19912272 -0.08233574 7.90158386 0.17606223 12 1 C13.98302032 1.20582821 15.96922994 1.38224846 17.95703125 1.53515625 C19.62475586 1.66567383 19.62475586 1.66567383 21.32617188 1.79882812 C23.0519043 1.9293457 23.0519043 1.9293457 24.8125 2.0625 C26.56723633 2.19881836 26.56723633 2.19881836 28.35742188 2.33789062 C31.23808437 2.56128894 34.11893262 2.78189606 37 3 C37 3.33 37 3.66 37 4 C35.73285156 4.03738281 34.46570313 4.07476562 33.16015625 4.11328125 C31.46091069 4.17899793 29.7616932 4.24544323 28.0625 4.3125 C27.23169922 4.33505859 26.40089844 4.35761719 25.54492188 4.38085938 C20.26839592 4.6067029 15.98154037 5.56212862 11.03344727 7.37426758 C8.21037506 8.2429834 5.84173099 8.09188659 2.9375 7.6875 C1.52791016 7.50767578 1.52791016 7.50767578 0.08984375 7.32421875 C-0.59980469 7.21722656 -1.28945312 7.11023437 -2 7 C-1 5 -1 5 2 4 C2.33 3.34 2.66 2.68 3 2 C2.01 1.67 1.02 1.34 0 1 C0 0.67 0 0.34 0 0 Z " fill="#B81229" transform="translate(137,29)"/>
<path d="M0 0 C0.33 0 0.66 0 1 0 C1 2.64 1 5.28 1 8 C2.299375 7.87625 3.59875 7.7525 4.9375 7.625 C5.66839844 7.55539063 6.39929688 7.48578125 7.15234375 7.4140625 C7.76207031 7.27742188 8.37179688 7.14078125 9 7 C9.33 6.34 9.66 5.68 10 5 C11.66561399 6.66561399 11.17115945 8.65962705 11.1875 10.9375 C11.20167969 11.83339844 11.21585938 12.72929688 11.23046875 13.65234375 C11 16 11 16 9 18 C8.15545644 14.62182575 7.89155081 12.32534757 9 9 C7.35 9.66 5.7 10.32 4 11 C4.57584432 13.38564077 5.22227595 15.66682784 6 18 C5.4225 17.690625 4.845 17.38125 4.25 17.0625 C2.13104488 16.06188231 0.3073576 15.3845596 -2 15 C-2.99 15.495 -2.99 15.495 -4 16 C-4 14.35 -4 12.7 -4 11 C-6.475 10.01 -6.475 10.01 -9 9 C-8.67 8.01 -8.34 7.02 -8 6 C-8 6.66 -8 7.32 -8 8 C-6.35 8.33 -4.7 8.66 -3 9 C-3 8.34 -3 7.68 -3 7 C-2.34 7 -1.68 7 -1 7 C-0.67 4.69 -0.34 2.38 0 0 Z " fill="#A9A8A2" transform="translate(83,49)"/>
<path d="M0 0 C0.66 0.33 1.32 0.66 2 1 C1.67 1.99 1.34 2.98 1 4 C2.98 4 4.96 4 7 4 C6.67 4.99 6.34 5.98 6 7 C2.4375 8.1875 2.4375 8.1875 -1 9 C-1 9.99 -1 10.98 -1 12 C6.26 12.33 13.52 12.66 21 13 C21 13.33 21 13.66 21 14 C11.43 14 1.86 14 -8 14 C-8.33 13.01 -8.66 12.02 -9 11 C-8.109375 9.24609375 -8.109375 9.24609375 -6.75 7.4375 C-6.31171875 6.83808594 -5.8734375 6.23867188 -5.421875 5.62109375 C-4 4 -4 4 -1 2 C-0.67 1.34 -0.34 0.68 0 0 Z " fill="#D55452" transform="translate(19,44)"/>
<path d="M0 0 C5.75 1.625 5.75 1.625 8 5 C10.12694665 5.41527124 10.12694665 5.41527124 12.5703125 5.29296875 C13.46621094 5.28330078 14.36210938 5.27363281 15.28515625 5.26367188 C16.22230469 5.23853516 17.15945312 5.21339844 18.125 5.1875 C19.06988281 5.17396484 20.01476562 5.16042969 20.98828125 5.14648438 C23.32608779 5.11106306 25.66276237 5.06167271 28 5 C27 7 27 7 25.39501953 7.61450195 C20.04431895 8.47574112 14.54630173 8.18589374 9.13623047 8.18530273 C6.87578784 8.18749923 4.61582576 8.2057035 2.35546875 8.22460938 C0.92187667 8.22754169 -0.51171773 8.22952757 -1.9453125 8.23046875 C-3.90235107 8.23663208 -3.90235107 8.23663208 -5.89892578 8.24291992 C-9 8 -9 8 -11 6 C-7.7 6 -4.4 6 -1 6 C-1 4.35 -1 2.7 -1 1 C-0.67 0.67 -0.34 0.34 0 0 Z " fill="#25282C" transform="translate(40,64)"/>
<path d="M0 0 C-2.475 1.485 -2.475 1.485 -5 3 C-1.37114676 3.15149298 -1.37114676 3.15149298 2 2 C1.34 4.97 0.68 7.94 0 11 C-0.33 10.34 -0.66 9.68 -1 9 C-2.7634375 9.3403125 -2.7634375 9.3403125 -4.5625 9.6875 C-9.2116614 10.30075837 -11.89316512 9.1389765 -16 7 C-14 5 -12 3 -10 1 C-10 0.67 -10 0.34 -10 0 C-6.33694766 -0.74926071 -3.57644848 -1.2380014 0 0 Z " fill="#DB1618" transform="translate(68,54)"/>
<path d="M0 0 C2.4375 0.8125 2.4375 0.8125 5 2 C6.2091737 5.62752111 5.94791443 8.75431297 5.6875 12.5 C5.65205078 13.17675781 5.61660156 13.85351562 5.58007812 14.55078125 C5.34175529 18.15763732 5.04833462 19.92749808 3 23 C2.34 23 1.68 23 1 23 C0.96261719 22.33613281 0.92523438 21.67226563 0.88671875 20.98828125 C0.5100897 15.92963621 0.18794705 12.15819181 -3 8 C-1.68 7.67 -0.36 7.34 1 7 C0.67 4.69 0.34 2.38 0 0 Z " fill="#921920" transform="translate(175,33)"/>
<path d="M0 0 C0 2.31 0 4.62 0 7 C-1.65 7.33 -3.3 7.66 -5 8 C-4.525625 8.391875 -4.05125 8.78375 -3.5625 9.1875 C-1.64820367 11.40808374 -1.38733012 13.13375709 -1 16 C-0.67 15.01 -0.34 14.02 0 13 C1.32 13.66 2.64 14.32 4 15 C3.67 16.32 3.34 17.64 3 19 C-4.50481431 18.51581843 -4.50481431 18.51581843 -6.5 16.4375 C-7.3342192 12.37068139 -7.89696778 7.79393557 -6 4 C-5.34 4 -4.68 4 -4 4 C-3.67 3.01 -3.34 2.02 -3 1 C-1 0 -1 0 0 0 Z " fill="#655051" transform="translate(167,42)"/>
<path d="M0 0 C2.76671126 0.26055193 5.53792012 0.41124944 8.3125 0.5625 C9.05306641 0.60568359 9.79363281 0.64886719 10.55664062 0.69335938 C12.37091464 0.79870432 14.1854355 0.89978316 16 1 C16 1.33 16 1.66 16 2 C-5.85368537 5.57315732 -5.85368537 5.57315732 -11 3 C-11 2.34 -11 1.68 -11 1 C-11.66 1 -12.32 1 -13 1 C-13.07427838 4.34252724 -13.06546953 6.8035914 -12 10 C-13.32 9.67 -14.64 9.34 -16 9 C-16 6.03 -16 3.06 -16 0 C-14.27185839 -0.19672365 -12.54240803 -0.38196799 -10.8125 -0.5625 C-9.84957031 -0.66691406 -8.88664062 -0.77132812 -7.89453125 -0.87890625 C-5.00611323 -0.99974425 -2.81587259 -0.59630243 0 0 Z " fill="#EB4749" transform="translate(109,40)"/>
<path d="M0 0 C0.66 0.33 1.32 0.66 2 1 C2.7742915 9.86133603 2.7742915 9.86133603 -0.125 14.125 C-3.4595728 16.29972139 -5.09685718 16.69389206 -9 16 C-9.66 15.01 -10.32 14.02 -11 13 C-8.69 13 -6.38 13 -4 13 C-4.34786708 11.02463255 -4.34786708 11.02463255 -5 9 C-5.66 8.67 -6.32 8.34 -7 8 C-7.33 9.32 -7.66 10.64 -8 12 C-8.33 12 -8.66 12 -9 12 C-9.103125 10.906875 -9.20625 9.81375 -9.3125 8.6875 C-9.97307727 5.14440371 -10.2027092 4.06756277 -13 2 C-11.02 2 -9.04 2 -7 2 C-7.33 3.65 -7.66 5.3 -8 7 C-7.34 7 -6.68 7 -6 7 C-6 5.68 -6 4.36 -6 3 C-4.35 2.67 -2.7 2.34 -1 2 C-1.99 2.99 -2.98 3.98 -4 5 C-3.34 6.32 -2.68 7.64 -2 9 C-0.55475116 4.57394994 -0.55475116 4.57394994 0 0 Z " fill="#C5C5C6" transform="translate(174,47)"/>
<path d="M0 0 C4.5416125 -0.05823729 9.0831284 -0.09367675 13.625 -0.125 C14.91019531 -0.14175781 16.19539063 -0.15851562 17.51953125 -0.17578125 C18.76347656 -0.18222656 20.00742188 -0.18867188 21.2890625 -0.1953125 C22.43068848 -0.20578613 23.57231445 -0.21625977 24.74853516 -0.22705078 C28.15554792 0.01086196 30.81146001 0.81237469 34 2 C36.28541881 2.56745023 38.5773718 3.10920591 40.875 3.625 C42.02742188 3.88539062 43.17984375 4.14578125 44.3671875 4.4140625 C45.23601562 4.60742188 46.10484375 4.80078125 47 5 C47 5.33 47 5.66 47 6 C42.34831816 5.55698268 37.71206207 5.0929085 33.078125 4.48828125 C24.69389624 3.39510943 16.64147105 2.81467922 8.171875 3.02734375 C5.28455743 3.00245308 2.79706208 2.67823498 0 2 C0 1.34 0 0.68 0 0 Z " fill="#2B2C31" transform="translate(93,23)"/>
<path d="M0 0 C-3.04010306 3.04010306 -6.79897302 4.37408013 -10.6875 6.125 C-11.47833984 6.49753906 -12.26917969 6.87007812 -13.08398438 7.25390625 C-17.99650087 9.46879808 -21.61195247 10.44720073 -27 10 C-26.67 9.01 -26.34 8.02 -26 7 C-24.68 7 -23.36 7 -22 7 C-22 6.34 -22 5.68 -22 5 C-20.10546779 4.35035977 -18.20931351 3.70544885 -16.3125 3.0625 C-15.25675781 2.70285156 -14.20101562 2.34320313 -13.11328125 1.97265625 C-8.63408438 0.57325848 -4.69253936 -0.13407255 0 0 Z " fill="#AF9AA4" transform="translate(72,44)"/>
<path d="M0 0 C4.53099675 0.54371961 7.83672603 1.71302455 11.8125 3.9375 C12.76769531 4.46214844 13.72289062 4.98679687 14.70703125 5.52734375 C17 7 17 7 18 9 C16.42249576 9.41846009 14.83755752 9.80896389 13.25 10.1875 C11.92742187 10.51814453 11.92742187 10.51814453 10.578125 10.85546875 C8 11 8 11 5.671875 9.80078125 C4 8 4 8 4 4 C3.34 4 2.68 4 2 4 C2 3.01 2 2.02 2 1 C1.34 0.67 0.68 0.34 0 0 Z " fill="#100C0F" transform="translate(128,43)"/>
<path d="M0 0 C-7.92 0.495 -7.92 0.495 -16 1 C-15.01 2.32 -14.02 3.64 -13 5 C-13 5.66 -13 6.32 -13 7 C-18.94 7.495 -18.94 7.495 -25 8 C-25 5 -25 5 -23 2 C-23 1.34 -23 0.68 -23 0 C-15.17943939 -2.11570722 -7.46041494 -3.73020747 0 0 Z " fill="#454F53" transform="translate(124,29)"/>
<path d="M0 0 C1.09957031 0.00451172 2.19914062 0.00902344 3.33203125 0.01367188 C6.01308003 0.02532861 8.69400932 0.04168983 11.375 0.0625 C11.375 0.3925 11.375 0.7225 11.375 1.0625 C9.78631104 1.19096313 9.78631104 1.19096313 8.16552734 1.32202148 C4.21805096 1.64189489 0.27085382 1.96510837 -3.67626953 2.28930664 C-5.38127382 2.42888345 -7.08635149 2.56756692 -8.79150391 2.70532227 C-11.24922428 2.90403463 -13.70665863 3.10600921 -16.1640625 3.30859375 C-16.92055084 3.3690538 -17.67703918 3.42951385 -18.45645142 3.49180603 C-22.55937908 3.83350155 -26.56453707 4.36139141 -30.625 5.0625 C-32.58240193 5.12638388 -34.54170147 5.14888169 -36.5 5.125 C-37.46679688 5.11597656 -38.43359375 5.10695313 -39.4296875 5.09765625 C-40.15414062 5.08605469 -40.87859375 5.07445313 -41.625 5.0625 C-41.295 4.0725 -40.965 3.0825 -40.625 2.0625 C-39.44164063 2.00191406 -38.25828125 1.94132812 -37.0390625 1.87890625 C-35.44270186 1.79439304 -33.84634805 1.70975065 -32.25 1.625 C-31.47527344 1.58568359 -30.70054688 1.54636719 -29.90234375 1.50585938 C-25.85365836 1.28836801 -21.84144729 0.98869747 -17.8125 0.53125 C-11.87416275 -0.08850825 -5.96464375 -0.04710836 0 0 Z " fill="#520A0E" transform="translate(137.625,61.9375)"/>
<path d="M0 0 C10.56 0 21.12 0 32 0 C32 0.33 32 0.66 32 1 C23.42 1 14.84 1 6 1 C6.33 3.97 6.66 6.94 7 10 C4.69 9.67 2.38 9.34 0 9 C0 6.03 0 3.06 0 0 Z " fill="#300406" transform="translate(12,58)"/>
<path d="M0 0 C-8.72847041 5.18048867 -22.2222858 4.29679402 -32 4 C-32 3.34 -32 2.68 -32 2 C-30.576875 1.814375 -30.576875 1.814375 -29.125 1.625 C-26.9842004 1.33501121 -24.93181674 0.98276957 -22.8359375 0.453125 C-15.11604621 -1.45748355 -7.83612435 -0.77316427 0 0 Z " fill="#FBA4A8" transform="translate(145,36)"/>
<path d="M0 0 C0.33 0.66 0.66 1.32 1 2 C-0.216875 1.87625 -1.43375 1.7525 -2.6875 1.625 C-6.26302123 1.66961435 -7.00766546 2.00536582 -10.125 4.1875 C-12.58187838 7.61723626 -12.03383341 10.6339853 -11.5 14.6875 C-10.59122143 20.11176978 -10.59122143 20.11176978 -7 24 C-4.39388923 24.72197162 -4.39388923 24.72197162 -2 25 C-2.33 25.66 -2.66 26.32 -3 27 C-6.78106289 26.74220026 -8.52421963 26.47578037 -11.25 23.75 C-12.88780593 21.17630497 -14.0379226 18.8862322 -15 16 C-15.2165625 15.37222656 -15.433125 14.74445312 -15.65625 14.09765625 C-16.41411358 9.472966 -12.79839044 5.14055777 -10.25 1.5 C-6.81879642 -0.78746905 -4.06651658 -0.27110111 0 0 Z " fill="#1B1113" transform="translate(172,38)"/>
<path d="M0 0 C5.08263005 -0.17229254 8.30426371 0.00431208 13 2 C15.66372269 2.45478192 18.30883034 2.72632173 21 3 C21 3.33 21 3.66 21 4 C14.01812817 5.55994099 7.13393752 6.48462048 0 7 C0 4.69 0 2.38 0 0 Z " fill="#A91014" transform="translate(97,56)"/>
<path d="M0 0 C0.99 0.99 1.98 1.98 3 3 C-0.73470101 6.04308971 -4.46668034 7.48889345 -9 9 C-11.48046875 8.22265625 -11.48046875 8.22265625 -14.1875 7.0625 C-15.08855469 6.68222656 -15.98960937 6.30195312 -16.91796875 5.91015625 C-17.94857422 5.45962891 -17.94857422 5.45962891 -19 5 C-19 4.67 -19 4.34 -19 4 C-12.56971459 2.67611771 -6.5705166 1.75205598 0 2 C0 1.34 0 0.68 0 0 Z " fill="#F44A52" transform="translate(147,38)"/>
<path d="M0 0 C-1.32 1.65 -2.64 3.3 -4 5 C-0.04 4.34 3.92 3.68 8 3 C7.34 4.32 6.68 5.64 6 7 C0.72 7 -4.56 7 -10 7 C-9.67 6.34 -9.34 5.68 -9 5 C-12.96 5 -16.92 5 -21 5 C-14.85062801 0.90041867 -7.3133957 -0.48755971 0 0 Z " fill="#E02326" transform="translate(49,49)"/>
<path d="M0 0 C3.31248187 -0.02888146 6.62493167 -0.04675799 9.9375 -0.0625 C10.88302734 -0.07087891 11.82855469 -0.07925781 12.80273438 -0.08789062 C14.15141602 -0.09272461 14.15141602 -0.09272461 15.52734375 -0.09765625 C16.77632446 -0.10551147 16.77632446 -0.10551147 18.05053711 -0.11352539 C20 0 20 0 21 1 C21.04080783 2.99958364 21.04254356 5.00045254 21 7 C19.68 6.67 18.36 6.34 17 6 C17 5.34 17 4.68 17 4 C15.7625 4.04125 14.525 4.0825 13.25 4.125 C9.86044709 4.13689317 7.99438538 3.59700554 5 2 C1.83304044 1.83275263 1.83304044 1.83275263 -1 2 C-0.67 1.34 -0.34 0.68 0 0 Z " fill="#F76572" transform="translate(155,33)"/>
<path d="M0 0 C0 0.99 0 1.98 0 3 C-7.01842425 6.27323474 -13.26529967 7.70590493 -21 8 C-18.03619449 5.62756413 -15.0637287 3.91627683 -11.625 2.3125 C-10.70976563 1.87550781 -9.79453125 1.43851563 -8.8515625 0.98828125 C-5.73154988 -0.09303819 -3.27823745 -0.17890086 0 0 Z " fill="#BFCAD0" transform="translate(96,27)"/>
<path d="M0 0 C2.12438339 -0.08078641 4.2496323 -0.13909141 6.375 -0.1875 C7.55835937 -0.22230469 8.74171875 -0.25710937 9.9609375 -0.29296875 C11.46527344 -0.14794922 11.46527344 -0.14794922 13 0 C13.66 0.99 14.32 1.98 15 3 C15.99 3.66 16.98 4.32 18 5 C17.67 5.33 17.34 5.66 17 6 C16.76346477 8.52596259 16.57826308 11.03107207 16.4375 13.5625 C16.39431641 14.27341797 16.35113281 14.98433594 16.30664062 15.71679688 C16.20028223 17.47761912 16.09961154 19.2387832 16 21 C15.34 21 14.68 21 14 21 C14.04640625 20.19175781 14.0928125 19.38351563 14.140625 18.55078125 C14.41188667 12.0655067 14.41188667 12.0655067 12.625 5.9375 C8.77567323 3.09633024 4.61601633 2.08353055 0 1 C0 0.67 0 0.34 0 0 Z " fill="#402222" transform="translate(79,46)"/>
<path d="M0 0 C9.17286652 1.17286652 9.17286652 1.17286652 12.625 4.625 C13.07875 5.40875 13.5325 6.1925 14 7 C12.875 8.5 12.875 8.5 11 10 C7.8125 10.1875 7.8125 10.1875 5 10 C5 7.36 5 4.72 5 2 C3.02 2.66 1.04 3.32 -1 4 C-0.67 2.68 -0.34 1.36 0 0 Z " fill="#808383" transform="translate(79,47)"/>
<path d="M0 0 C2.45862401 -0.05383848 4.9160755 -0.09359038 7.375 -0.125 C8.42300781 -0.15013672 8.42300781 -0.15013672 9.4921875 -0.17578125 C11.32897486 -0.19344267 13.16601963 -0.10303261 15 0 C15.66 0.66 16.32 1.32 17 2 C16.67 2.33 16.34 2.66 16 3 C18.475 3.495 18.475 3.495 21 4 C21 4.66 21 5.32 21 6 C19.27318563 6.50806447 17.54342021 7.00610467 15.8125 7.5 C14.36810547 7.91765625 14.36810547 7.91765625 12.89453125 8.34375 C10.14654124 8.96677608 7.80401584 9.12302812 5 9 C7.61514317 6.87961365 10.19637616 4.86908256 13 3 C8.98980464 1.9384777 6.05002539 2.27999549 2 3 C1.34 2.67 0.68 2.34 0 2 C0 1.34 0 0.68 0 0 Z " fill="#D11518" transform="translate(34,37)"/>
<path d="M0 0 C-2.86198212 1.43099106 -5.25151321 0.63573496 -8.3359375 0.2734375 C-19.54871087 -0.87743367 -29.23214411 1.14218043 -40 4 C-40 4.66 -40 5.32 -40 6 C-41.32 5.34 -42.64 4.68 -44 4 C-44 3.67 -44 3.34 -44 3 C-40.23485759 1.97771558 -36.46217819 0.98643738 -32.6875 0 C-31.63498047 -0.28617188 -30.58246094 -0.57234375 -29.49804688 -0.8671875 C-19.00804337 -3.57844994 -10.12522206 -4.20009211 0 0 Z " fill="#F75055" transform="translate(90,45)"/>
<path d="M0 0 C11.55 0 23.1 0 35 0 C35 1.98 35 3.96 35 6 C33.39566191 5.52140759 31.79153584 5.04210442 30.1875 4.5625 C28.84751953 4.16224609 28.84751953 4.16224609 27.48046875 3.75390625 C25.64526945 3.19612127 23.81966274 2.60655425 22 2 C20.30132812 1.85222064 18.59822511 1.75252934 16.89453125 1.68359375 C15.42016602 1.62075195 15.42016602 1.62075195 13.91601562 1.55664062 C12.89185547 1.51732422 11.86769531 1.47800781 10.8125 1.4375 C9.77673828 1.39431641 8.74097656 1.35113281 7.67382812 1.30664062 C5.1160181 1.20055634 2.55811155 1.09849854 0 1 C0 0.67 0 0.34 0 0 Z " fill="#D69EA4" transform="translate(59,41)"/>
<path d="M0 0 C0.66 0.33 1.32 0.66 2 1 C1.649375 1.639375 1.29875 2.27875 0.9375 2.9375 C-0.65932846 8.15380631 0.10443315 12.9956361 2.3125 17.9375 C4.07642935 20.09341365 5.41529698 21.01959541 8 22 C8 22.66 8 23.32 8 24 C5.25 23.9375 5.25 23.9375 2 23 C0.21334975 20.78477632 -0.76509775 18.60701585 -2 16 C-2.33 15.34 -2.66 14.68 -3 14 C-3.55564585 8.561082 -3.46467618 4.47520673 0 0 Z " fill="#251C1E" transform="translate(73,50)"/>
<path d="M0 0 C1.32 0 2.64 0 4 0 C4 0.66 4 1.32 4 2 C4.99 2 5.98 2 7 2 C7 2.66 7 3.32 7 4 C4.69 4.66 2.38 5.32 0 6 C2.97 6.495 2.97 6.495 6 7 C6 7.33 6 7.66 6 8 C-3.405 8.495 -3.405 8.495 -13 9 C-9.76496924 5.76496924 -7.24319191 4.59119697 -3 3 C-2.01 3 -1.02 3 0 3 C0 2.01 0 1.02 0 0 Z " fill="#F37379" transform="translate(31,47)"/>
<path d="M0 0 C1.32 0 2.64 0 4 0 C4 0.66 4 1.32 4 2 C4.66 2 5.32 2 6 2 C6 2.99 6 3.98 6 5 C6.66 5 7.32 5 8 5 C8.28875 5.804375 8.5775 6.60875 8.875 7.4375 C9.73262568 10.1326468 9.73262568 10.1326468 12 11 C12 11.66 12 12.32 12 13 C10.68 13 9.36 13 8 13 C8 12.01 8 11.02 8 10 C7.01 9.67 6.02 9.34 5 9 C5 8.01 5 7.02 5 6 C4.05125 6.020625 3.1025 6.04125 2.125 6.0625 C-1 6 -1 6 -3 5 C-2.67 4.01 -2.34 3.02 -2 2 C-1.34 2 -0.68 2 0 2 C0 1.34 0 0.68 0 0 Z " fill="#6F0D10" transform="translate(124,42)"/>
<path d="M0 0 C-2.61417005 3.92125507 -4.52881918 3.80768511 -9 5 C-10.010625 5.5775 -11.02125 6.155 -12.0625 6.75 C-15 8 -15 8 -18.375 7.1875 C-19.24125 6.795625 -20.1075 6.40375 -21 6 C-20 4 -20 4 -16.8125 2.875 C-13.36250398 2.08319763 -10.515707 1.8285021 -7 2 C-7 1.34 -7 0.68 -7 0 C-3.86650268 -1.04449911 -3.01031744 -0.93423645 0 0 Z " fill="#E1262F" transform="translate(161,42)"/>
<path d="M0 0 C0.33 0.66 0.66 1.32 1 2 C0.67 2.99 0.34 3.98 0 5 C0.67579102 5.01981934 1.35158203 5.03963867 2.04785156 5.06005859 C5.11562044 5.15543238 8.18271998 5.26506165 11.25 5.375 C12.31347656 5.4059375 13.37695312 5.436875 14.47265625 5.46875 C16.00986328 5.52675781 16.00986328 5.52675781 17.578125 5.5859375 C18.52075195 5.6173584 19.46337891 5.6487793 20.43457031 5.68115234 C23.04835429 6.00600977 24.74353034 6.67676162 27 8 C23.64590806 8.05859857 20.29194983 8.09379582 16.9375 8.125 C15.99455078 8.14175781 15.05160156 8.15851563 14.08007812 8.17578125 C8.66731738 8.21350084 4.05503914 8.02738622 -1 6 C-1.66 5.01 -2.32 4.02 -3 3 C-2.01 2.01 -1.02 1.02 0 0 Z " fill="#961C1F" transform="translate(12,62)"/>
<path d="M0 0 C1.26714844 0.03738281 2.53429687 0.07476563 3.83984375 0.11328125 C4.83769897 0.13648437 4.83769897 0.13648437 5.85571289 0.16015625 C11.18861925 0.31460268 16.48881391 0.72893967 21.77734375 1.42578125 C21.77734375 1.75578125 21.77734375 2.08578125 21.77734375 2.42578125 C20.92184937 2.46336548 20.92184937 2.46336548 20.04907227 2.50170898 C17.47908218 2.61734674 14.90948848 2.74021749 12.33984375 2.86328125 C11.44201172 2.90259766 10.54417969 2.94191406 9.61914062 2.98242188 C8.76513672 3.02431641 7.91113281 3.06621094 7.03125 3.109375 C6.24049072 3.14603271 5.44973145 3.18269043 4.63500977 3.22045898 C2.76332934 3.23141382 2.76332934 3.23141382 1.77734375 4.42578125 C-0.89324476 4.56693286 -3.54697863 4.46825232 -6.22265625 4.42578125 C-4.47981026 1.16518008 -3.74772644 0.49515416 0 0 Z " fill="#942233" transform="translate(152.22265625,30.57421875)"/>
<path d="M0 0 C0.33 0.99 0.66 1.98 1 3 C-5.93 6.465 -5.93 6.465 -13 10 C-12.67 8.02 -12.34 6.04 -12 4 C-10.29296875 2.79296875 -10.29296875 2.79296875 -8.1875 2.1875 C-7.15689453 1.86845703 -7.15689453 1.86845703 -6.10546875 1.54296875 C-4.0726131 1.01872583 -2.0390929 0.4994632 0 0 Z " fill="#20282E" transform="translate(85,26)"/>
<path d="M0 0 C1.32 0 2.64 0 4 0 C4 2 4 2 2.5 3.625 C2.005 4.07875 1.51 4.5325 1 5 C3.64 5.33 6.28 5.66 9 6 C9.33 7.32 9.66 8.64 10 10 C8.02 10 6.04 10 4 10 C4 9.34 4 8.68 4 8 C3.34 8 2.68 8 2 8 C2 7.34 2 6.68 2 6 C-0.97 5.67 -3.94 5.34 -7 5 C-6.67 4.34 -6.34 3.68 -6 3 C-2.9375 2.375 -2.9375 2.375 0 2 C0 1.34 0 0.68 0 0 Z " fill="#9D1010" transform="translate(120,42)"/>
<path d="M0 0 C-2.54656278 2.81940879 -4.1720512 4.56252014 -8 5 C-10.33300933 5.03888349 -12.66709801 5.0448635 -15 5 C-14.34 4.67 -13.68 4.34 -13 4 C-13 3.01 -13 2.02 -13 1 C-8.20862412 -0.6290678 -4.94367454 -1.20577428 0 0 Z " fill="#FD6064" transform="translate(48,39)"/>
<path d="M0 0 C1.8871875 0.0309375 1.8871875 0.0309375 3.8125 0.0625 C3.4825 1.3825 3.1525 2.7025 2.8125 4.0625 C-3.65544133 5.57483701 -9.54340042 6.27682579 -16.1875 6.0625 C-16.1875 5.7325 -16.1875 5.4025 -16.1875 5.0625 C-12.8875 4.4025 -9.5875 3.7425 -6.1875 3.0625 C-6.5175 2.4025 -6.8475 1.7425 -7.1875 1.0625 C-4.43671116 0.14557039 -2.82801087 -0.04636083 0 0 Z " fill="#F54855" transform="translate(128.1875,52.9375)"/>
<path d="M0 0 C0.66 0.33 1.32 0.66 2 1 C2.05395478 2.62463842 2.09277195 4.24978541 2.125 5.875 C2.14820312 6.77992187 2.17140625 7.68484375 2.1953125 8.6171875 C2 11 2 11 0 13 C-0.84454356 9.62182575 -1.10844919 7.32534757 0 4 C-1.65 4.66 -3.3 5.32 -5 6 C-4.42415568 8.38564077 -3.77772405 10.66682784 -3 13 C-4.9375 12.1875 -4.9375 12.1875 -7 11 C-8.04449911 7.86650268 -7.93423645 7.01031744 -7 4 C-4.69 3.34 -2.38 2.68 0 2 C0 1.34 0 0.68 0 0 Z " fill="#C4C3C4" transform="translate(92,54)"/>
<path d="M0 0 C4.62 0 9.24 0 14 0 C14.33 1.32 14.66 2.64 15 4 C13.35 4.66 11.7 5.32 10 6 C9.649375 5.54625 9.29875 5.0925 8.9375 4.625 C6.22903794 2.35338666 3.39204672 1.83201146 0 1 C0 0.67 0 0.34 0 0 Z " fill="#697276" transform="translate(109,29)"/>
<path d="M0 0 C3.2542015 2.83430453 4.5206753 4.68607774 5 9 C5.33 6.69 5.66 4.38 6 2 C6.33 2 6.66 2 7 2 C7.05410687 3.77049689 7.09284119 5.54146849 7.125 7.3125 C7.14820313 8.29863281 7.17140625 9.28476562 7.1953125 10.30078125 C7 13 7 13 5 16 C4.34 16 3.68 16 3 16 C2.96261719 15.33613281 2.92523438 14.67226563 2.88671875 13.98828125 C2.5100897 8.92963621 2.18794705 5.15819181 -1 1 C-0.67 0.67 -0.34 0.34 0 0 Z " fill="#3C1E1F" transform="translate(173,40)"/>
<path d="M0 0 C0.66 0 1.32 0 2 0 C2 3.3 2 6.6 2 10 C-1.63 10 -5.26 10 -9 10 C-9 9.67 -9 9.34 -9 9 C-6.69 9 -4.38 9 -2 9 C-2.04125 7.88625 -2.0825 6.7725 -2.125 5.625 C-2 2 -2 2 0 0 Z " fill="#901018" transform="translate(154,52)"/>
<path d="M0 0 C-3.50764693 1.96428228 -7.14694189 2.90951185 -11 4 C-11.33 4.33 -11.66 4.66 -12 5 C-14.33297433 5.04092937 -16.66705225 5.04241723 -19 5 C-15.14219855 0.75641841 -11.47472724 -0.3115034 -5.90625 -0.9140625 C-3.76588297 -1.01055446 -2.00913875 -0.75342703 0 0 Z " fill="#88929A" transform="translate(85,35)"/>
<path d="M0 0 C1.875 0.25 1.875 0.25 4 1 C5.25 3.0625 5.25 3.0625 6 5 C2.77208445 7.1519437 1.71599191 7.20086443 -2 7 C-2.33 6.34 -2.66 5.68 -3 5 C-1.5625 2.375 -1.5625 2.375 0 0 Z " fill="#262626" transform="translate(82,64)"/>
<path d="M0 0 C0 0.33 0 0.66 0 1 C-1.65 1 -3.3 1 -5 1 C-5 1.99 -5 2.98 -5 4 C-9.29 5.65 -13.58 7.3 -18 9 C-18 8.34 -18 7.68 -18 7 C-15 5 -15 5 -11 5 C-10.7525 4.38125 -10.505 3.7625 -10.25 3.125 C-7.64543 -1.302769 -4.65971537 -1.29436538 0 0 Z " fill="#7B1C1E" transform="translate(36,46)"/>
<path d="M0 0 C0 0.33 0 0.66 0 1 C-2.9162118 1.22201613 -5.83207744 1.42808498 -8.75 1.625 C-9.575 1.68945312 -10.4 1.75390625 -11.25 1.8203125 C-12.04921875 1.871875 -12.8484375 1.9234375 -13.671875 1.9765625 C-14.77160645 2.05511475 -14.77160645 2.05511475 -15.89355469 2.13525391 C-18.34775441 1.97767085 -19.88853213 1.22264839 -22 0 C-14.83171158 -1.91154358 -7.22751457 -1.25695906 0 0 Z " fill="#A7B1B8" transform="translate(120,26)"/>
<path d="M0 0 C0 0.66 0 1.32 0 2 C-3.80463807 5.80463807 -6.76597499 6.40746887 -12 7 C-11.8125 5.1875 -11.8125 5.1875 -11 3 C-7.33874929 0.07099943 -4.6175429 -0.32215416 0 0 Z " fill="#9D1E20" transform="translate(33,39)"/>
<path d="M0 0 C0 0.99 0 1.98 0 3 C-4.1205746 4.99785435 -7.45194365 5.17835515 -12 5 C-11.67 4.01 -11.34 3.02 -11 2 C-7.12137916 0.60955102 -4.13537997 0 0 0 Z " fill="#3F4B52" transform="translate(57,49)"/>
<path d="M0 0 C2.4375 1.125 2.4375 1.125 5 3 C5.8125 6.1875 5.8125 6.1875 6 9 C3.69 8.67 1.38 8.34 -1 8 C-0.67 5.36 -0.34 2.72 0 0 Z " fill="#7A1113" transform="translate(13,59)"/>
<path d="M0 0 C3.20787899 1.64124041 5.25902549 3.73837053 7.6875 6.375 C4.3875 6.045 1.0875 5.715 -2.3125 5.375 C-2.9725 3.725 -3.6325 2.075 -4.3125 0.375 C-2.3125 -0.625 -2.3125 -0.625 0 0 Z " fill="#DA2F2F" transform="translate(99.3125,50.625)"/>
<path d="M0 0 C4.21912747 0.4794463 6.79663178 1.16625119 10 4 C9.01 5.485 9.01 5.485 8 7 C7.34 7 6.68 7 6 7 C5.67 7.66 5.34 8.32 5 9 C4.67 7.35 4.34 5.7 4 4 C3.34 4 2.68 4 2 4 C2 3.01 2 2.02 2 1 C1.34 0.67 0.68 0.34 0 0 Z " fill="#210C0D" transform="translate(128,43)"/>
<path d="M0 0 C0.66 0.33 1.32 0.66 2 1 C1.01 3.97 0.02 6.94 -1 10 C-3.0625 8.25 -3.0625 8.25 -5 6 C-5 3.875 -5 3.875 -4 2 C-2.0625 0.6875 -2.0625 0.6875 0 0 Z " fill="#211919" transform="translate(91,57)"/>
<path d="M0 0 C0.73154297 0.06123047 1.46308594 0.12246094 2.21679688 0.18554688 C4.00011042 0.33707025 5.78157951 0.51004934 7.5625 0.6875 C7.5625 1.0175 7.5625 1.3475 7.5625 1.6875 C4.2625 2.0175 0.9625 2.3475 -2.4375 2.6875 C-2.4375 2.0275 -2.4375 1.3675 -2.4375 0.6875 C-5.4075 1.3475 -8.3775 2.0075 -11.4375 2.6875 C-11.4375 3.3475 -11.4375 4.0075 -11.4375 4.6875 C-13.7475 5.0175 -16.0575 5.3475 -18.4375 5.6875 C-13.57121556 -0.32379255 -7.08509415 -0.73249372 0 0 Z " fill="#E11D22" transform="translate(80.4375,44.3125)"/>
<path d="M0 0 C1.58409994 0.11487748 3.16728963 0.24234508 4.75 0.375 C5.63171875 0.44460937 6.5134375 0.51421875 7.421875 0.5859375 C9.99066382 0.99850055 11.75841015 1.71160957 14 3 C12.02 3 10.04 3 8 3 C8 3.66 8 4.32 8 5 C4.02022924 5.8441938 0.02992782 6.44687265 -4 7 C-1.68143083 5.45428722 0.50638429 4.20381448 3 3 C2.01 2.01 1.02 1.02 0 0 Z " fill="#818B92" transform="translate(93,26)"/>
<path d="M0 0 C4.67692308 1.47692308 4.67692308 1.47692308 6.3125 4.125 C6.539375 4.74375 6.76625 5.3625 7 6 C6 7 6 7 2.9375 7.0625 C1.4834375 7.0315625 1.4834375 7.0315625 0 7 C0 4.69 0 2.38 0 0 Z " fill="#3F1616" transform="translate(84,50)"/>
<path d="M0 0 C-4.35590568 1.62849969 -8.23934612 2.34118446 -12.875 2.625 C-14.02742188 2.69976562 -15.17984375 2.77453125 -16.3671875 2.8515625 C-17.23601562 2.90054688 -18.10484375 2.94953125 -19 3 C-19 2.34 -19 1.68 -19 1 C-16.2317752 -0.3841124 -13.70568665 -0.3826988 -10.625 -0.625 C-9.48289062 -0.72039063 -8.34078125 -0.81578125 -7.1640625 -0.9140625 C-4.45995988 -0.98750726 -2.54015001 -0.83837463 0 0 Z " fill="#565456" transform="translate(118,37)"/>
<path d="M0 0 C2.475 0.495 2.475 0.495 5 1 C5 3.64 5 6.28 5 9 C4.01 9 3.02 9 2 9 C1.34 6.03 0.68 3.06 0 0 Z " fill="#1F1F20" transform="translate(74,59)"/>
<path d="M0 0 C0.33 0.66 0.66 1.32 1 2 C3.31 2 5.62 2 8 2 C6 4 6 4 2.8125 4.265625 C0.9253125 4.25789063 0.9253125 4.25789063 -1 4.25 C-2.258125 4.25515625 -3.51625 4.2603125 -4.8125 4.265625 C-8 4 -8 4 -10 2 C-6.7 2 -3.4 2 0 2 C0 1.34 0 0.68 0 0 Z " fill="#1D1E1E" transform="translate(39,68)"/>
<path d="M0 0 C0 0.99 0 1.98 0 3 C-2.4377963 3.05397335 -4.87439685 3.09365616 -7.3125 3.125 C-8.34793945 3.15013672 -8.34793945 3.15013672 -9.40429688 3.17578125 C-13.17135396 3.21217794 -14.78431704 3.14378864 -18 1 C-12.03325384 -0.32594359 -6.07416385 -0.0884587 0 0 Z " fill="#A31018" transform="translate(139,57)"/>
<path d="M0 0 C2.75 0.5625 2.75 0.5625 4.75 2.5625 C2.04120665 3.91689668 -0.25933268 3.62751451 -3.25 3.5625 C-3.91 4.8825 -4.57 6.2025 -5.25 7.5625 C-5.91 7.5625 -6.57 7.5625 -7.25 7.5625 C-7.58 8.5525 -7.91 9.5425 -8.25 10.5625 C-8.58 9.5725 -8.91 8.5825 -9.25 7.5625 C-7.02624896 3.52167612 -4.58302791 0.79321637 0 0 Z " fill="#4C5050" transform="translate(168.25,38.4375)"/>
<path d="M0 0 C9.1146833 -0.62619962 9.1146833 -0.62619962 12.5625 1.8125 C14 4 14 4 15 7 C12.50638429 5.79618552 10.31856917 4.54571278 8 3 C5.95415921 2.33841957 5.95415921 2.33841957 3.8125 1.875 C2.554375 1.58625 1.29625 1.2975 0 1 C0 0.67 0 0.34 0 0 Z " fill="#323333" transform="translate(79,46)"/>
<path d="M0 0 C2.54055845 0.25552438 5.03852505 0.56707159 7.5625 0.9375 C8.27341797 1.03740234 8.98433594 1.13730469 9.71679688 1.24023438 C11.47856957 1.48853791 13.23938152 1.74364039 15 2 C15 2.33 15 2.66 15 3 C12.02148438 3.29296875 12.02148438 3.29296875 9.04296875 3.5859375 C6.70011858 3.92665391 6.70011858 3.92665391 4 6 C4 5.34 4 4.68 4 4 C3.01 3.67 2.02 3.34 1 3 C0.34 2.34 -0.32 1.68 -1 1 C-0.67 0.67 -0.34 0.34 0 0 Z " fill="#F33F4A" transform="translate(157,35)"/>
<path d="M0 0 C1.33332095 2.6666419 0.67102033 4.16680303 0 7 C-0.66 7 -1.32 7 -2 7 C-2 7.66 -2 8.32 -2 9 C-3.65 8.67 -5.3 8.34 -7 8 C-6.01 7.67 -5.02 7.34 -4 7 C-4.33 5.68 -4.66 4.36 -5 3 C-3.35 2.01 -1.7 1.02 0 0 Z " fill="#2B2B2C" transform="translate(82,49)"/>
<path d="M0 0 C3.73487777 0.4979837 5.81237635 0.87491756 9 3 C8.67 3.99 8.34 4.98 8 6 C5.21788056 5.62403791 3.4120716 5.32681541 1.1875 3.5625 C0 2 0 2 0 0 Z " fill="#F88D93" transform="translate(131,28)"/>
<path d="M0 0 C5.28 0 10.56 0 16 0 C16 0.33 16 0.66 16 1 C10.44860651 3.48351814 5.83475015 2.85330338 0 2 C0 1.34 0 0.68 0 0 Z " fill="#393F44" transform="translate(93,23)"/>
<path d="M0 0 C2.72426311 2.35277269 3.8141763 4.62496331 5 8 C2.08517222 8.80967438 0.53886783 9.21845993 -2.3125 8.0625 C-2.869375 7.711875 -3.42625 7.36125 -4 7 C-2.35 7 -0.7 7 1 7 C0.67 4.69 0.34 2.38 0 0 Z " fill="#2F4248" transform="translate(35,60)"/>
<path d="M0 0 C0.99 0 1.98 0 3 0 C3.125 2.375 3.125 2.375 3 5 C1 7 1 7 -2.125 7.125 C-3.548125 7.063125 -3.548125 7.063125 -5 7 C-5.33 6.34 -5.66 5.68 -6 5 C-5.195625 4.54625 -4.39125 4.0925 -3.5625 3.625 C-0.91143428 2.25274335 -0.91143428 2.25274335 0 0 Z " fill="#132127" transform="translate(28,60)"/>
<path d="M0 0 C1.32 0 2.64 0 4 0 C4 0.66 4 1.32 4 2 C4.99 2 5.98 2 7 2 C7 2.66 7 3.32 7 4 C3.7 4.33 0.4 4.66 -3 5 C-3 4.34 -3 3.68 -3 3 C-2.01 3 -1.02 3 0 3 C0 2.01 0 1.02 0 0 Z " fill="#F59298" transform="translate(31,47)"/>
<path d="M0 0 C0 2.31 0 4.62 0 7 C-1.32 7.33 -2.64 7.66 -4 8 C-4.75 6.25 -4.75 6.25 -5 4 C-1.66666667 0 -1.66666667 0 0 0 Z " fill="#4A3737" transform="translate(167,42)"/>
<path d="M0 0 C0.99 0.33 1.98 0.66 3 1 C-2.625 4 -2.625 4 -6 4 C-6 4.66 -6 5.32 -6 6 C-10.455 6.495 -10.455 6.495 -15 7 C-14 5 -14 5 -11.09375 3.96484375 C-9.9078125 3.62582031 -8.721875 3.28679688 -7.5 2.9375 C-3.44157905 2.05586097 -3.44157905 2.05586097 0 0 Z " fill="#3A4347" transform="translate(95,33)"/>
<path d="M0 0 C1.258125 -0.020625 2.51625 -0.04125 3.8125 -0.0625 C4.52019531 -0.07410156 5.22789063 -0.08570313 5.95703125 -0.09765625 C8 0 8 0 11 1 C11 1.66 11 2.32 11 3 C7.7 3 4.4 3 1 3 C0.67 2.01 0.34 1.02 0 0 Z " fill="#C21416" transform="translate(97,56)"/>
<path d="M0 0 C0 0.99 0 1.98 0 3 C-1.41377782 3.36552803 -2.83120576 3.71695495 -4.25 4.0625 C-5.03890625 4.25972656 -5.8278125 4.45695312 -6.640625 4.66015625 C-9.10394822 5.01497267 -10.65604132 4.76877544 -13 4 C-9.15902469 0.46630272 -5.10845088 0 0 0 Z " fill="#FD3D44" transform="translate(67,50)"/>
<path d="M0 0 C-0.33 0.99 -0.66 1.98 -1 3 C-4.91390601 4.47694566 -7.99434629 5.60226148 -12 4 C-4.71428571 -0.57142857 -4.71428571 -0.57142857 0 0 Z " fill="#D21A21" transform="translate(158,45)"/>
<path d="M0 0 C0.53625 0.37125 1.0725 0.7425 1.625 1.125 C1.625 1.785 1.625 2.445 1.625 3.125 C-2.83 3.62 -2.83 3.62 -7.375 4.125 C-7.705 3.135 -8.035 2.145 -8.375 1.125 C-2.95961538 -1.09038462 -2.95961538 -1.09038462 0 0 Z " fill="#F94C56" transform="translate(159.375,37.875)"/>
<path d="M0 0 C1.49739583 1.26953125 2.99479167 2.5390625 4.4921875 3.80859375 C6.00594079 5.0878152 6.00594079 5.0878152 8 6 C8 6.66 8 7.32 8 8 C2.53099511 7.51386623 2.53099511 7.51386623 0.0625 5.125 C-0.288125 4.42375 -0.63875 3.7225 -1 3 C-0.67 2.01 -0.34 1.02 0 0 Z " fill="#101314" transform="translate(73,66)"/>
<path d="M0 0 C0.33 0.99 0.66 1.98 1 3 C-1.97 3 -4.94 3 -8 3 C-7.67 2.01 -7.34 1.02 -7 0 C-4.3333581 -1.33332095 -2.83319697 -0.67102033 0 0 Z " fill="#EE4B4D" transform="translate(110,33)"/>
<path d="M0 0 C2.64 0 5.28 0 8 0 C8 1.98 8 3.96 8 6 C4.125 4.25 4.125 4.25 3 2 C2.01 1.34 1.02 0.68 0 0 Z " fill="#E18C80" transform="translate(86,41)"/>
<path d="M0 0 C-0.33 1.65 -0.66 3.3 -1 5 C-1.99 4.67 -2.98 4.34 -4 4 C-4 4.66 -4 5.32 -4 6 C-5.32 5.67 -6.64 5.34 -8 5 C-7.34 4.67 -6.68 4.34 -6 4 C-5.67 3.01 -5.34 2.02 -5 1 C-3 0 -3 0 0 0 Z " fill="#7E3033" transform="translate(65,29)"/>
<path d="M0 0 C0 0.66 0 1.32 0 2 C1.65 2 3.3 2 5 2 C5 2.33 5 2.66 5 3 C1.37 3.66 -2.26 4.32 -6 5 C-5.67 3.68 -5.34 2.36 -5 1 C-2 0 -2 0 0 0 Z " fill="#1A2127" transform="translate(93,23)"/>
<path d="M0 0 C0.66 0.33 1.32 0.66 2 1 C1.01 2.98 0.02 4.96 -1 7 C0.65 7.33 2.3 7.66 4 8 C4 8.33 4 8.66 4 9 C-1.625 9.25 -1.625 9.25 -5 7 C-3.68221547 4.36443095 -1.85780102 2.27730447 0 0 Z " fill="#D2D2D2" transform="translate(81,63)"/>
<path d="M0 0 C0.50015625 0.15339844 1.0003125 0.30679688 1.515625 0.46484375 C4.90327766 1.19457396 8.29961519 1.36356477 11.75 1.5625 C12.44738281 1.60568359 13.14476562 1.64886719 13.86328125 1.69335938 C15.57531922 1.79889596 17.28763561 1.8998991 19 2 C19 2.33 19 2.66 19 3 C13.06 3 7.12 3 1 3 C0.67 2.01 0.34 1.02 0 0 Z " fill="#810507" transform="translate(47,67)"/>
<path d="M0 0 C1.98 0 3.96 0 6 0 C5.34 0.66 4.68 1.32 4 2 C6.64 2.33 9.28 2.66 12 3 C12 3.33 12 3.66 12 4 C8.04 4 4.08 4 0 4 C0 2.68 0 1.36 0 0 Z " fill="#1F161A" transform="translate(19,64)"/>
<path d="M0 0 C-1 2 -1 2 -2.99609375 2.88671875 C-3.80175781 3.15097656 -4.60742188 3.41523437 -5.4375 3.6875 C-6.24058594 3.95949219 -7.04367188 4.23148438 -7.87109375 4.51171875 C-10 5 -10 5 -12 4 C-10.720327 1.44065399 -9.75798964 1.3010767 -7.125 0.3125 C-6.07699219 -0.09548828 -6.07699219 -0.09548828 -5.0078125 -0.51171875 C-3 -1 -3 -1 0 0 Z " fill="#565F64" transform="translate(100,31)"/>
<path d="M0 0 C0.33 0 0.66 0 1 0 C1.66 2.97 2.32 5.94 3 9 C1.68 9.99 0.36 10.98 -1 12 C-1.02698189 10.37509046 -1.04638757 8.75005367 -1.0625 7.125 C-1.07410156 6.22007813 -1.08570312 5.31515625 -1.09765625 4.3828125 C-1 2 -1 2 0 0 Z " fill="#180708" transform="translate(69,58)"/>
<path d="M0 0 C1.32 0.66 2.64 1.32 4 2 C3.67 3.32 3.34 4.64 3 6 C1.35 6 -0.3 6 -2 6 C-1.34 4.02 -0.68 2.04 0 0 Z " fill="#1C1C1C" transform="translate(167,55)"/>
<path d="M0 0 C0 0.66 0 1.32 0 2 C0.99 2.33 1.98 2.66 3 3 C-4.625 4.25 -4.625 4.25 -8 2 C-4.91190305 0.23537317 -3.76687864 0 0 0 Z " fill="#FCA3A9" transform="translate(43,46)"/>
<path d="M0 0 C-0.33 2.31 -0.66 4.62 -1 7 C-2.32 6.01 -3.64 5.02 -5 4 C-4.67 3.01 -4.34 2.02 -4 1 C-2 0 -2 0 0 0 Z " fill="#151515" transform="translate(174,50)"/>
<path d="M0 0 C1.32 0.33 2.64 0.66 4 1 C3.34 1 2.68 1 2 1 C1.67 1.99 1.34 2.98 1 4 C2.32 4.66 3.64 5.32 5 6 C-0.75 6.125 -0.75 6.125 -3 5 C-2.67 4.01 -2.34 3.02 -2 2 C-1.34 2 -0.68 2 0 2 C0 1.34 0 0.68 0 0 Z " fill="#830E0E" transform="translate(124,42)"/>
<path d="M0 0 C0.99 0.33 1.98 0.66 3 1 C-0.60957611 4.2910841 -3.12637153 5.54663921 -8 6 C-6.8125 4 -6.8125 4 -5 2 C-2.3125 1.75 -2.3125 1.75 0 2 C0 1.34 0 0.68 0 0 Z " fill="#283137" transform="translate(61,33)"/>
<path d="M0 0 C0.99 0.33 1.98 0.66 3 1 C2.01 1.66 1.02 2.32 0 3 C0.57584432 5.38564077 1.22227595 7.66682784 2 10 C0.0625 9.1875 0.0625 9.1875 -2 8 C-3.03864166 4.88407501 -3.09036928 3.9737344 -2 1 C-1.34 0.67 -0.68 0.34 0 0 Z " fill="#E1E1E2" transform="translate(87,57)"/>
<path d="M0 0 C-0.99 0.495 -0.99 0.495 -2 1 C-2.33 1.99 -2.66 2.98 -3 4 C-6 3 -6 3 -8 0 C-4.71023192 -1.09658936 -3.28696233 -0.79953138 0 0 Z " fill="#E23D41" transform="translate(41,44)"/>
<path d="M0 0 C3.96 0 7.92 0 12 0 C12 0.33 12 0.66 12 1 C8.04 1.66 4.08 2.32 0 3 C0 2.01 0 1.02 0 0 Z " fill="#FDC5CC" transform="translate(58,42)"/>
<path d="M0 0 C4.29 0 8.58 0 13 0 C13 0.33 13 0.66 13 1 C7.06 1.495 7.06 1.495 1 2 C1 2.66 1 3.32 1 4 C0.01 4 -0.98 4 -2 4 C-1.34 2.68 -0.68 1.36 0 0 Z " fill="#1D1213" transform="translate(98,36)"/>
<path d="M0 0 C-2.85306797 2.32472205 -5.54074837 3.7508258 -9 5 C-9 4.01 -9 3.02 -9 2 C-3.375 -1.125 -3.375 -1.125 0 0 Z " fill="#353E45" transform="translate(85,29)"/>
<path d="M0 0 C0.33 0.66 0.66 1.32 1 2 C0.67 2.99 0.34 3.98 0 5 C2.64 5.33 5.28 5.66 8 6 C8 6.33 8 6.66 8 7 C1.6 7.49230769 1.6 7.49230769 -1.4375 5 C-1.953125 4.34 -2.46875 3.68 -3 3 C-2.01 2.01 -1.02 1.02 0 0 Z " fill="#D05859" transform="translate(12,62)"/>
<path d="M0 0 C0 0.99 0 1.98 0 3 C-2.64 3 -5.28 3 -8 3 C-8 2.34 -8 1.68 -8 1 C-5.07175348 0.02391783 -3.04386724 -0.08226668 0 0 Z " fill="#C41B22" transform="translate(151,58)"/>
<path d="M0 0 C0.99 0.33 1.98 0.66 3 1 C1.48065294 4.03869411 -0.98004772 4.64410306 -4 6 C-4.66 6 -5.32 6 -6 6 C-6 5.34 -6 4.68 -6 4 C-3.1875 1.8125 -3.1875 1.8125 0 0 Z " fill="#F89796" transform="translate(126,32)"/>
<path d="M0 0 C1.64666203 0.1135629 3.29236082 0.24117381 4.9375 0.375 C5.85402344 0.44460937 6.77054687 0.51421875 7.71484375 0.5859375 C8.84599609 0.79089844 8.84599609 0.79089844 10 1 C10.33 1.66 10.66 2.32 11 3 C9.35 3.33 7.7 3.66 6 4 C6 3.34 6 2.68 6 2 C4.02 2 2.04 2 0 2 C0 1.34 0 0.68 0 0 Z " fill="#6C7579" transform="translate(120,26)"/>
<path d="M0 0 C0.66 0 1.32 0 2 0 C1.979375 0.928125 1.95875 1.85625 1.9375 2.8125 C1.84230396 6.02286011 1.84230396 6.02286011 3 9 C1.68 8.67 0.36 8.34 -1 8 C-0.67 5.36 -0.34 2.72 0 0 Z " fill="#F75254" transform="translate(94,41)"/>
<path d="M0 0 C0.94875 0.350625 1.8975 0.70125 2.875 1.0625 C2.875 1.7225 2.875 2.3825 2.875 3.0625 C1.125 3.8125 1.125 3.8125 -1.125 4.0625 C-3.375 2.125 -3.375 2.125 -5.125 0.0625 C-3.125 -0.9375 -3.125 -0.9375 0 0 Z " fill="#556065" transform="translate(111.125,29.9375)"/>
<path d="M0 0 C-1.5 1.5625 -1.5 1.5625 -4 3 C-6.77437543 2.96823234 -9.25286467 2.50364148 -12 2 C-12 1.67 -12 1.34 -12 1 C-7.95858806 0.36605303 -4.0934693 -0.12404452 0 0 Z " fill="#B50C0D" transform="translate(60,55)"/>
<path d="M0 0 C1.32 0.99 2.64 1.98 4 3 C3.67 3.99 3.34 4.98 3 6 C1.68 6 0.36 6 -1 6 C-0.67 4.02 -0.34 2.04 0 0 Z " fill="#090909" transform="translate(169,43)"/>
<path d="M0 0 C0.66 0 1.32 0 2 0 C2 0.66 2 1.32 2 2 C3.65 2.33 5.3 2.66 7 3 C7 3.33 7 3.66 7 4 C4.36 4.66 1.72 5.32 -1 6 C-0.67 4.02 -0.34 2.04 0 0 Z " fill="#EB1819" transform="translate(96,41)"/>
<path d="M0 0 C2.97 0.33 5.94 0.66 9 1 C9 1.66 9 2.32 9 3 C2.25 3.125 2.25 3.125 0 2 C0 1.34 0 0.68 0 0 Z " fill="#FD4347" transform="translate(98,41)"/>
<path d="M0 0 C-0.33 0.99 -0.66 1.98 -1 3 C-3.31 3 -5.62 3 -8 3 C-5.53387212 -0.1151089 -3.89156016 -0.31553191 0 0 Z " fill="#CED9DE" transform="translate(92,28)"/>
<path d="M0 0 C2.64 0.33 5.28 0.66 8 1 C6 3 6 3 2.375 3.125 C1.26125 3.08375 0.1475 3.0425 -1 3 C-0.67 2.01 -0.34 1.02 0 0 Z " fill="#6D898F" transform="translate(46,51)"/>
<path d="M0 0 C1.9375 0.75 1.9375 0.75 4 2 C4.8125 4 4.8125 4 5 6 C4.67 6.66 4.34 7.32 4 8 C3.01 7.67 2.02 7.34 1 7 C1.020625 6.21625 1.04125 5.4325 1.0625 4.625 C1.18684063 2.01885039 1.18684063 2.01885039 0 0 Z " fill="#9F9FA0" transform="translate(171,42)"/>
<path d="M0 0 C0 3 0 3 -1 5 C-3.32156597 5.40729228 -5.6568787 5.74438677 -8 6 C-5.63379989 3.38472619 -3.057952 1.73559438 0 0 Z " fill="#303A3D" transform="translate(97,35)"/>
<path d="M0 0 C-3.22515763 1.73662334 -6.51329166 2.8905928 -10 4 C-10.66 3.01 -11.32 2.02 -12 1 C-7.95858806 0.36605303 -4.0934693 -0.12404452 0 0 Z " fill="#FB6D7A" transform="translate(161,34)"/>
<path d="M0 0 C1.125 3.75 1.125 3.75 0 6 C-0.99 5.67 -1.98 5.34 -3 5 C-2.625 3.0625 -2.625 3.0625 -2 1 C-1.34 0.67 -0.68 0.34 0 0 Z " fill="#982022" transform="translate(89,58)"/>
<path d="M0 0 C1.65 1.65 3.3 3.3 5 5 C4.34 5.66 3.68 6.32 3 7 C1.35 5.02 -0.3 3.04 -2 1 C-1.34 0.67 -0.68 0.34 0 0 Z " fill="#959495" transform="translate(88,49)"/>
<path d="M0 0 C2.97 0.495 2.97 0.495 6 1 C5.67 3.31 5.34 5.62 5 8 C4.67 6.68 4.34 5.36 4 4 C3.34 4 2.68 4 2 4 C2 3.01 2 2.02 2 1 C1.34 0.67 0.68 0.34 0 0 Z " fill="#420A0B" transform="translate(128,43)"/>
<path d="M0 0 C0.99 0.33 1.98 0.66 3 1 C3 2.98 3 4.96 3 7 C1.68 6.67 0.36 6.34 -1 6 C-0.34 5.67 0.32 5.34 1 5 C0.67 3.35 0.34 1.7 0 0 Z " fill="#EA454F" transform="translate(173,33)"/>
<path d="M0 0 C1.32 0.66 2.64 1.32 4 2 C3.67 2.66 3.34 3.32 3 4 C1.02 4 -0.96 4 -3 4 C-2.01 2.68 -1.02 1.36 0 0 Z " fill="#87071D" transform="translate(149,31)"/>
<path d="M0 0 C0.66 0.33 1.32 0.66 2 1 C1.01 1.66 0.02 2.32 -1 3 C-0.67 2.01 -0.34 1.02 0 0 Z " fill="#000000" transform="translate(10,61)"/>
<path d="M0 0 C0 3 0 3 0 3 Z " fill="#000000" transform="translate(12,49)"/>
<path d="M0 0 C0.66 0 1.32 0 2 0 C1.67 0.66 1.34 1.32 1 2 C0.67 1.34 0.34 0.68 0 0 Z " fill="#000000" transform="translate(179,33)"/>
<path d="M0 0 C2 1 2 1 2 1 Z " fill="#000000" transform="translate(13,48)"/>
<path d="M0 0 C2 1 2 1 2 1 Z " fill="#000000" transform="translate(177,32)"/>
<path d="M0 0 C2 1 2 1 2 1 Z " fill="#000000" transform="translate(70,28)"/>
<path d="" fill="#000000" transform="translate(0,0)"/>
<path d="M0 0 C2 1 2 1 2 1 Z " fill="#000000" transform="translate(60,28)"/>
<path d="M0 0 C2 1 2 1 2 1 Z " fill="#000000" transform="translate(140,27)"/>
<path d="M0 0 C2 1 2 1 2 1 Z " fill="#000000" transform="translate(72,27)"/>
<path d="" fill="#000000" transform="translate(0,0)"/>
<path d="" fill="#000000" transform="translate(0,0)"/>
<path d="" fill="#000000" transform="translate(0,0)"/>
<path d="" fill="#000000" transform="translate(0,0)"/>
<path d="" fill="#000000" transform="translate(0,0)"/>
<path d="" fill="#000000" transform="translate(0,0)"/>
<path d="" fill="#000000" transform="translate(0,0)"/>
<path d="" fill="#000000" transform="translate(0,0)"/>
<path d="" fill="#000000" transform="translate(0,0)"/>
<path d="" fill="#000000" transform="translate(0,0)"/>
<path d="" fill="#000000" transform="translate(0,0)"/>
<path d="" fill="#000000" transform="translate(0,0)"/>
<path d="" fill="#000000" transform="translate(0,0)"/>
<path d="" fill="#000000" transform="translate(0,0)"/>
<path d="" fill="#000000" transform="translate(0,0)"/>
<path d="" fill="#000000" transform="translate(0,0)"/>
<path d="" fill="#000000" transform="translate(0,0)"/>
<path d="" fill="#000000" transform="translate(0,0)"/>
<path d="" fill="#000000" transform="translate(0,0)"/>
<path d="" fill="#000000" transform="translate(0,0)"/>
<path d="" fill="#000000" transform="translate(0,0)"/>
<path d="" fill="#000000" transform="translate(0,0)"/>
<path d="" fill="#000000" transform="translate(0,0)"/>
</svg>
