<svg width="20" height="20" viewBox="0 0 20 20" fill="none" xmlns="http://www.w3.org/2000/svg">
<path d="M10 0.5C15.2464 0.5 19.5 4.75364 19.5 10C19.5 15.2464 15.2464 19.5 10 19.5C4.75364 19.5 0.5 15.2464 0.5 10C0.5 4.75364 4.75364 0.5 10 0.5ZM2 10C2 13.9542 4.88725 17.2205 8.65527 17.8662L9.24805 17.9678L9.24023 17.3662C9.17949 13.1002 6.27032 9.5 2.5 9.5H2V10ZM17.5 9.5C13.7297 9.5 10.8205 13.1002 10.7598 17.3662L10.752 17.9678L11.3447 17.8662C15.1128 17.2205 18 13.9542 18 10V9.5H17.5ZM10 8.25C9.03323 8.25 8.25 9.03323 8.25 10C8.25 10.9668 9.03323 11.75 10 11.75C10.9668 11.75 11.75 10.9668 11.75 10C11.75 9.03323 10.9668 8.25 10 8.25ZM10 2C6.52349 2 3.59378 4.23982 2.48828 7.33203L2.24902 8H17.751L17.5117 7.33203C16.4062 4.23982 13.4765 2 10 2Z" fill="white" stroke="#767676"/>
</svg>
