<svg width="21" height="21" viewBox="0 0 21 21" fill="none" xmlns="http://www.w3.org/2000/svg">
<path d="M16.665 10.6702C16.2618 11.1444 15.5167 11.1479 15.0466 10.6777L10.327 5.95825C9.85678 5.48811 9.86026 4.74301 10.3345 4.33983L11.6303 3.2382C12.5617 2.44628 13.6975 1.92124 14.9286 1.71352L15.6917 1.58477C16.4124 1.46317 17.1702 1.7149 17.7108 2.25547L18.7494 3.29416C19.29 3.83474 19.5417 4.5925 19.4202 5.31314L19.2914 6.07623C19.0837 7.30726 18.5587 8.44302 17.7667 9.37446L16.665 10.6702Z" fill="white" stroke="#767676"/>
<path d="M18.3945 2.6052L20.4998 0.5L18.3945 2.6052Z" fill="white"/>
<path d="M18.3945 2.6052L20.4998 0.5" stroke="#767676" stroke-linecap="round" stroke-linejoin="round"/>
<path d="M0.5 20.4958L2.60526 18.3906L0.5 20.4958Z" fill="white"/>
<path d="M0.5 20.4958L2.60526 18.3906" stroke="#767676" stroke-linecap="round" stroke-linejoin="round"/>
<path d="M4.3399 10.3345C4.74311 9.86026 5.48822 9.85679 5.95838 10.327L10.6779 15.0464C11.1482 15.5165 11.1447 16.2617 10.6705 16.6648L9.37468 17.7665C8.44321 18.5584 7.30742 19.0835 6.07636 19.2912L5.31324 19.4199C4.59259 19.5415 3.8348 19.2898 3.29421 18.7492L2.25549 17.7106C1.7149 17.17 1.46317 16.4122 1.58477 15.6916L1.71353 14.9284C1.92125 13.6974 2.4463 12.5617 3.23825 11.6302L4.3399 10.3345Z" fill="white" stroke="#767676"/>
<path d="M6.81641 11.0271L8.92167 8.92188L6.81641 11.0271ZM9.9743 14.1849L12.0796 12.0797L9.9743 14.1849Z" fill="white"/>
<path d="M6.81641 11.0271L8.92167 8.92188M9.9743 14.1849L12.0796 12.0797" stroke="#767676" stroke-linecap="round" stroke-linejoin="round"/>
</svg>
