<svg width="21" height="21" viewBox="0 0 21 21" fill="none" xmlns="http://www.w3.org/2000/svg">
<path d="M10.5 20.5C16.0228 20.5 20.5 16.0228 20.5 10.5C20.5 4.97715 16.0228 0.5 10.5 0.5C4.97715 0.5 0.5 4.97715 0.5 10.5C0.5 16.0228 4.97715 20.5 10.5 20.5Z" fill="white" stroke="#767676"/>
<path d="M7.5 11.5V6.9C7.5 6.52774 7.5 6.34162 7.54894 6.19098C7.64786 5.88655 7.88655 5.64786 8.19098 5.54894C8.34162 5.5 8.5277 5.5 8.9 5.5H11.5C13.1569 5.5 14.5 6.84315 14.5 8.5C14.5 10.1569 13.1569 11.5 11.5 11.5H7.5ZM7.5 11.5V16.5" stroke="#767676" stroke-linecap="round" stroke-linejoin="round"/>
</svg>
