<svg width="20" height="20" viewBox="0 0 20 20" fill="none" xmlns="http://www.w3.org/2000/svg">
<path d="M10.1387 0.500977C12.5814 0.539623 14.9326 1.67209 16.6895 3.6875L16.7334 3.73828C18.4277 5.7191 19.4211 8.37786 19.4951 11.1865C19.5698 14.02 18.7039 16.77 17.0879 18.876L17.0859 18.8789L16.9521 19.0469C16.8332 19.1959 16.693 19.3099 16.543 19.3857C16.3934 19.4613 16.2352 19.4992 16.0781 19.499C15.9212 19.4988 15.7636 19.4606 15.6143 19.3848C15.4644 19.3086 15.3238 19.1943 15.2051 19.0449V19.0439L14.9521 18.7432C14.3473 18.0593 13.636 17.5032 12.8506 17.1055C11.9524 16.6506 10.9783 16.4141 9.99121 16.4141C9.00412 16.4141 8.03003 16.6506 7.13184 17.1055C6.23417 17.5601 5.43313 18.2215 4.77734 19.0439L4.77637 19.0459C4.65867 19.1942 4.51968 19.3075 4.37109 19.3838C4.22279 19.4599 4.06613 19.4987 3.91016 19.5C3.75404 19.5013 3.59627 19.4652 3.44727 19.3916C3.2981 19.3179 3.15827 19.2067 3.03906 19.0605L3.0293 19.0488L2.94141 18.9395L2.92773 18.9209L2.91211 18.9043V18.9033C2.90994 18.9006 2.9073 18.8986 2.90332 18.8936C2.90027 18.8897 2.89618 18.8845 2.8916 18.8789H2.89258C1.25231 16.7275 0.392973 13.9127 0.510742 11.0283C0.628597 8.14378 1.71369 5.43745 3.51855 3.47754C5.32131 1.52004 7.69639 0.462431 10.1387 0.500977ZM14.707 4.81348C14.4144 4.81352 14.1458 4.93205 13.9414 5.125L13.8574 5.21191L12.9141 6.30078L12.9062 6.31055C12.7064 6.55331 12.605 6.86442 12.6084 7.1748C12.6099 7.31071 12.6327 7.44584 12.6738 7.5752C12.6404 7.57127 12.6066 7.56641 12.5723 7.56641C12.4167 7.56644 12.2685 7.60825 12.1387 7.68164L12.0352 7.75098L8.88574 10.0371L8.87109 10.0479L8.85742 10.0596C8.4876 10.3716 8.25347 10.8255 8.18555 11.3125C8.11776 11.7993 8.2175 12.3029 8.47363 12.7168C8.73074 13.1322 9.13424 13.4356 9.61035 13.5303C10.089 13.6254 10.5731 13.4954 10.9531 13.1895L10.959 13.1846C11.1139 13.0556 11.2476 12.901 11.3555 12.7285L11.3633 12.7158L11.3701 12.7021L13.3516 9.06836L13.3506 9.06738C13.4684 8.86434 13.5119 8.62635 13.4795 8.39844C13.4788 8.39383 13.4773 8.38937 13.4766 8.38477C13.5673 8.41089 13.6619 8.42726 13.7598 8.42871C14.0885 8.43356 14.3901 8.28953 14.6045 8.05469L14.6133 8.04492L15.5566 6.95605C15.7662 6.71417 15.875 6.39955 15.875 6.08398C15.875 5.7684 15.7662 5.45381 15.5566 5.21191C15.3451 4.96786 15.0416 4.81348 14.707 4.81348ZM3.31543 10.2588C2.98092 10.2588 2.67734 10.4132 2.46582 10.6572C2.25623 10.8991 2.14845 11.2138 2.14844 11.5293C2.14844 11.8449 2.25623 12.1595 2.46582 12.4014C2.67734 12.6455 2.9809 12.7998 3.31543 12.7998H4.65039C4.98491 12.7997 5.28849 12.6455 5.5 12.4014C5.70959 12.1595 5.81738 11.8448 5.81738 11.5293C5.81737 11.2138 5.70959 10.8991 5.5 10.6572C5.28849 10.4132 4.98489 10.2588 4.65039 10.2588H3.31543ZM15.3271 10.2588C14.9926 10.2588 14.6891 10.4132 14.4775 10.6572C14.268 10.8991 14.1602 11.2138 14.1602 11.5293C14.1602 11.8449 14.2679 12.1595 14.4775 12.4014C14.6891 12.6455 14.9926 12.7998 15.3271 12.7998H16.6621C16.9966 12.7997 17.3002 12.6454 17.5117 12.4014C17.7213 12.1595 17.8291 11.8448 17.8291 11.5293C17.8291 11.2138 17.7213 10.8991 17.5117 10.6572C17.3002 10.4132 16.9966 10.2589 16.6621 10.2588H15.3271ZM5.27051 4.81348C4.93589 4.81348 4.63148 4.96776 4.41992 5.21191C4.21045 5.45378 4.10254 5.76851 4.10254 6.08398C4.10255 6.39947 4.21043 6.71419 4.41992 6.95605H4.4209L5.36426 8.04492C5.5758 8.28888 5.87942 8.44238 6.21387 8.44238C6.54828 8.44236 6.85195 8.28887 7.06348 8.04492C7.2729 7.80308 7.38086 7.48828 7.38086 7.17285C7.38084 6.85745 7.27289 6.54261 7.06348 6.30078L6.12012 5.21191L6.03613 5.125C5.83179 4.93204 5.56317 4.81357 5.27051 4.81348ZM9.98828 2.55859C9.65385 2.55872 9.35014 2.71202 9.13867 2.95605C8.92911 3.1979 8.82132 3.51262 8.82129 3.82812V5.36816C8.82129 5.68361 8.92923 5.99839 9.13867 6.24023C9.35014 6.48427 9.65385 6.63855 9.98828 6.63867C10.3229 6.63867 10.6273 6.48437 10.8389 6.24023C11.0483 5.9984 11.1562 5.68357 11.1562 5.36816V3.82812C11.1562 3.51266 11.0484 3.19789 10.8389 2.95605C10.6273 2.71192 10.3229 2.55859 9.98828 2.55859Z" fill="white" stroke="#767676"/>
</svg>
