<?xml version="1.0" encoding="UTF-8"?>
<svg version="1.1" xmlns="http://www.w3.org/2000/svg" width="186" height="88">
<path d="M0 0 C0.68592224 -0.00006042 1.37184448 -0.00012085 2.07855225 -0.00018311 C10.72664449 0.010662 19.3252845 0.20136086 27.9375 1.0625 C28.72858154 1.14089111 29.51966309 1.21928223 30.3347168 1.30004883 C35.40355639 1.88558429 39.63216826 2.50716826 43.3125 6.1875 C44.158125 6.5175 45.00375 6.8475 45.875 7.1875 C48.3125 8.1875 48.3125 8.1875 49.3125 10.1875 C50.3025 10.8475 51.2925 11.5075 52.3125 12.1875 C52.6425 12.8475 52.9725 13.5075 53.3125 14.1875 C55.42577425 15.09475434 55.42577425 15.09475434 57.875 15.8125 C59.11443359 16.20308594 59.11443359 16.20308594 60.37890625 16.6015625 C61.33603516 16.89160156 61.33603516 16.89160156 62.3125 17.1875 C62.42207031 17.99574219 62.53164062 18.80398437 62.64453125 19.63671875 C62.80308594 20.70535156 62.96164063 21.77398438 63.125 22.875 C63.35123047 24.45861328 63.35123047 24.45861328 63.58203125 26.07421875 C64.34166104 29.3117853 65.51489262 31.41795793 67.3125 34.1875 C69.43832955 40.56498866 68.22481894 45.75148567 65.6484375 51.75390625 C62.58347174 57.33716259 57.93661659 61.29369582 52.3125 64.1875 C50.14041246 64.66065537 47.94887873 65.04823925 45.75 65.375 C39.61937014 66.44986049 34.17082789 68.2984338 28.4375 70.6875 C24.73657632 72.2061497 21.02484332 73.697019 17.3125 75.1875 C16.20325668 75.64289658 15.09401337 76.09829315 13.95115662 76.56748962 C-8.43126514 85.56551698 -28.42966126 87.76410223 -52.4263916 87.17596436 C-55.81835178 87.10712262 -59.20951703 87.09598653 -62.60208511 87.08595943 C-65.92607104 87.07314352 -69.24951052 87.03814417 -72.57323456 86.99533272 C-74.13103735 86.97537558 -75.68889121 86.95900367 -77.24677277 86.94663811 C-89.50340843 86.81563659 -101.2502476 85.58987448 -111.19921875 77.75 C-114.82522551 73.94316875 -115.61546096 69.3202813 -115.6875 64.1875 C-114.76191228 56.24287206 -114.76191228 56.24287206 -112.14453125 53.671875 C-109.98273467 51.46950851 -110.20076271 49.07581356 -109.9296875 46.12109375 C-109.48851522 42.5988312 -108.15252356 40.65252356 -105.6875 38.1875 C-105.3575 37.5275 -105.0275 36.8675 -104.6875 36.1875 C-102.6875 33.1875 -102.6875 33.1875 -99.6875 32.1875 C-98.34613633 31.53714186 -97.01217746 30.8712045 -95.6875 30.1875 C-95.0275 29.8575 -94.3675 29.5275 -93.6875 29.1875 C-93.0275 29.5175 -92.3675 29.8475 -91.6875 30.1875 C-91.6875 29.5275 -91.6875 28.8675 -91.6875 28.1875 C-90.3675 28.5175 -89.0475 28.8475 -87.6875 29.1875 C-87.6875 28.5275 -87.6875 27.8675 -87.6875 27.1875 C-86.945 27.043125 -86.2025 26.89875 -85.4375 26.75 C-82.49034356 26.14717255 -79.59296539 25.42978273 -76.6875 24.65234375 C-76.0275 24.47832031 -75.3675 24.30429687 -74.6875 24.125 C-74.0275 23.94839844 -73.3675 23.77179687 -72.6875 23.58984375 C-70.6875 23.1875 -70.6875 23.1875 -66.6875 23.1875 C-66.6875 22.5275 -66.6875 21.8675 -66.6875 21.1875 C-64.3775 20.5275 -62.0675 19.8675 -59.6875 19.1875 C-59.3575 17.8675 -59.0275 16.5475 -58.6875 15.1875 C-58.15640625 15.10242187 -57.6253125 15.01734375 -57.078125 14.9296875 C-53.81532469 13.91672662 -51.30287179 12.16616469 -48.4375 10.3125 C-39.57015942 4.73888368 -32.0346423 2.65612665 -21.6875 1.1875 C-20.60952148 1.01710205 -19.53154297 0.8467041 -18.42089844 0.67114258 C-12.29600051 -0.12230647 -6.1670477 -0.00826165 0 0 Z " fill="#2F2F2F" transform="translate(115.6875,1.8125)"/>
<path d="M0 0 C4.11248216 3.71450001 4.77442822 5.74428223 5.3125 11.125 C4.66961757 19.09674216 1.66538692 25.0630801 -4.12109375 30.52734375 C-8.52498986 33.9790461 -12.02123938 35.3640501 -17.5625 36.1875 C-23.69312986 37.26236049 -29.14167211 39.1109338 -34.875 41.5 C-38.57592368 43.0186497 -42.28765668 44.509519 -46 46 C-47.10924332 46.45539658 -48.21848663 46.91079315 -49.36134338 47.37998962 C-71.74376514 56.37801698 -91.74216126 58.57660223 -115.7388916 57.98846436 C-119.13085178 57.91962262 -122.52201703 57.90848653 -125.91458511 57.89845943 C-129.23857104 57.88564352 -132.56201052 57.85064417 -135.88573456 57.80783272 C-137.44353735 57.78787558 -139.00139121 57.77150367 -140.55927277 57.75913811 C-152.81590843 57.62813659 -164.5627476 56.40237448 -174.51171875 48.5625 C-178.13772551 44.75566875 -178.92796096 40.1327813 -179 35 C-178.07404729 27.05223922 -178.07404729 27.05223922 -175.4609375 24.4921875 C-173.62480078 22.61677513 -173.5583355 21.51867089 -173.375 18.9375 C-173 15 -173 15 -172 13 C-171.34 13 -170.68 13 -170 13 C-169.67 15.64 -169.34 18.28 -169 21 C-168.34 20.01 -167.68 19.02 -167 18 C-163.97824649 18.45281022 -160.95770493 18.91206513 -157.9375 19.375 C-156.66616211 19.56449219 -156.66616211 19.56449219 -155.36914062 19.7578125 C-151.52513084 20.35148196 -147.80523087 20.98992374 -144.08203125 22.12890625 C-140.61210637 23.1096328 -138.48716915 22.7132846 -135 22 C-134.01 22.33 -133.02 22.66 -132 23 C-130.59175107 23.08021999 -129.18002769 23.10765977 -127.76953125 23.09765625 C-126.56586914 23.09282227 -126.56586914 23.09282227 -125.33789062 23.08789062 C-124.50451172 23.07951172 -123.67113281 23.07113281 -122.8125 23.0625 C-121.96751953 23.05798828 -121.12253906 23.05347656 -120.25195312 23.04882812 C-118.16793845 23.03705403 -116.08396023 23.0191189 -114 23 C-113.505 24.485 -113.505 24.485 -113 26 C-114.485 26.495 -114.485 26.495 -116 27 C-103.31564921 25.50574308 -103.31564921 25.50574308 -92 20 C-90.515 20.495 -90.515 20.495 -89 21 C-88.01 20.505 -88.01 20.505 -87 20 C-86.24011648 22.36408207 -85.9179763 23.69013267 -86.5625 26.125 C-86.706875 26.74375 -86.85125 27.3625 -87 28 C-86.01 28.99 -86.01 28.99 -85 30 C-85 30.99 -85 31.98 -85 33 C-86.32 33 -87.64 33 -89 33 C-89 33.99 -89 34.98 -89 36 C-87.68 36 -86.36 36 -85 36 C-86.875 39.875 -86.875 39.875 -88 41 C-87.71530797 46.02499694 -87.71530797 46.02499694 -85 50 C-81.22302568 50.41966381 -78.92873472 50.64495467 -75.75 48.4375 C-71.50564097 42.52571421 -70.5307098 37.47446024 -70.6875 30.375 C-70.68266602 29.26898438 -70.68266602 29.26898438 -70.67773438 28.140625 C-70.71824556 24.0305808 -71.0042568 20.63435341 -73 17 C-75.04105639 16.11306697 -75.04105639 16.11306697 -77 16 C-77 16.66 -77 17.32 -77 18 C-80 17 -80 17 -83 15 C-80.44496838 13.32940241 -79.0961367 12.9959943 -76 13.125 C-71.91237323 14.31722447 -70.03610457 16.23765392 -67.90283203 19.86621094 C-66.91076525 22.21090096 -66.76850405 23.79528328 -66.8046875 26.328125 C-66.81113281 27.12734375 -66.81757812 27.9265625 -66.82421875 28.75 C-66.84935547 29.9875 -66.84935547 29.9875 -66.875 31.25 C-66.88402344 32.09046875 -66.89304687 32.9309375 -66.90234375 33.796875 C-66.92584183 35.86470604 -66.96171092 37.93238995 -67 40 C-65.96182129 39.65219482 -64.92364258 39.30438965 -63.85400391 38.94604492 C-59.95934623 37.64173938 -56.06400094 36.3394978 -52.16845703 35.0378418 C-50.49053776 34.47687109 -48.81279925 33.91535939 -47.13525391 33.35327148 C-41.76196532 31.5531078 -36.38471624 29.76570437 -31 28 C-29.93749023 27.65146973 -28.87498047 27.30293945 -27.78027344 26.94384766 C-26.47751465 26.53271729 -26.47751465 26.53271729 -25.1484375 26.11328125 C-24.44638184 25.89067627 -23.74432617 25.66807129 -23.02099609 25.4387207 C-20.63984455 24.92181694 -18.4291998 24.92456723 -16 25 C-15.67 25.99 -15.34 26.98 -15 28 C-9.91696314 28.11320856 -9.91696314 28.11320856 -5 27 C-4.94392578 26.14728516 -4.94392578 26.14728516 -4.88671875 25.27734375 C-4.54978658 21.32004243 -4.13037464 18.29334295 -2.5 14.625 C-0.5027266 9.79825596 -0.27149144 5.17706093 0 0 Z " fill="#222222" transform="translate(179,31)"/>
<path d="M0 0 C0.99 0 1.98 0 3 0 C3.495 1.485 3.495 1.485 4 3 C2.68 4.32 1.36 5.64 0 7 C0.99 6.835 1.98 6.67 3 6.5 C7.02732942 5.91525483 10.93474623 5.92867976 15 6 C15 7.32 15 8.64 15 10 C14 11 14 11 11.04077148 11.11352539 C9.74727783 11.10828857 8.45378418 11.10305176 7.12109375 11.09765625 C6.09110008 11.09553383 6.09110008 11.09553383 5.04029846 11.09336853 C2.83932199 11.08775479 0.63844591 11.07520007 -1.5625 11.0625 C-3.05143083 11.05748676 -4.54036324 11.05292355 -6.02929688 11.04882812 C-9.68623075 11.03778093 -13.34310558 11.02050713 -17 11 C-15.46279297 11.09087891 -15.46279297 11.09087891 -13.89453125 11.18359375 C-12.53384305 11.26805026 -11.17316657 11.35269567 -9.8125 11.4375 C-9.13896484 11.47681641 -8.46542969 11.51613281 -7.77148438 11.55664062 C-4.10300898 11.78927565 -0.58305794 12.17207011 3 13 C3 13.33 3 13.66 3 14 C1.35 14 -0.3 14 -2 14 C-2 14.66 -2 15.32 -2 16 C0.31 15.34 2.62 14.68 5 14 C5 14.99 5 15.98 5 17 C3.44148245 17.82011312 1.87798284 18.63076213 0.3125 19.4375 C-0.99267578 20.11619141 -0.99267578 20.11619141 -2.32421875 20.80859375 C-4.92973124 21.96871245 -7.20055219 22.52582643 -10 23 C-11.216875 23.350625 -12.43375 23.70125 -13.6875 24.0625 C-17 25 -17 25 -19 25 C-19 25.99 -19 26.98 -19 28 C-18.38125 28.12375 -17.7625 28.2475 -17.125 28.375 C-15 29 -15 29 -13 31 C-13.92844214 32.14979258 -14.89513624 33.26870221 -15.875 34.375 C-16.40867187 35.00148437 -16.94234375 35.62796875 -17.4921875 36.2734375 C-24.30752283 40.96561541 -33.55383249 40.26421857 -41.5 40.125 C-42.98113281 40.11146484 -42.98113281 40.11146484 -44.4921875 40.09765625 C-46.99500743 40.07365661 -49.49736731 40.03804283 -52 40 C-52.66 40 -53.32 40 -54 40 C-58.19969517 39.67497267 -62.1940344 39.23249008 -66.25 38.0625 C-69.75027263 37.07075609 -73.17083602 36.32889886 -76.75 35.6875 C-77.85859375 35.48511719 -78.9671875 35.28273437 -80.109375 35.07421875 C-83.01596455 34.69560847 -83.01596455 34.69560847 -84.890625 36.45703125 C-85.25671875 36.96621094 -85.6228125 37.47539063 -86 38 C-86.22151549 36.20991533 -86.42682213 34.41781838 -86.625 32.625 C-86.74101563 31.62726562 -86.85703125 30.62953125 -86.9765625 29.6015625 C-86.98429687 28.74304688 -86.99203125 27.88453125 -87 27 C-86.34 26.34 -85.68 25.68 -85 25 C-84.67 24.34 -84.34 23.68 -84 23 C-82 20 -82 20 -79 19 C-77.65863633 18.34964186 -76.32467746 17.6837045 -75 17 C-74.34 16.67 -73.68 16.34 -73 16 C-72.34 16.33 -71.68 16.66 -71 17 C-71 16.34 -71 15.68 -71 15 C-69.68 15.33 -68.36 15.66 -67 16 C-67 15.34 -67 14.68 -67 14 C-66.2575 13.855625 -65.515 13.71125 -64.75 13.5625 C-61.80284356 12.95967255 -58.90546539 12.24228273 -56 11.46484375 C-55.34 11.29082031 -54.68 11.11679687 -54 10.9375 C-53.34 10.76089844 -52.68 10.58429687 -52 10.40234375 C-50 10 -50 10 -46 10 C-46 9.34 -46 8.68 -46 8 C-43.69 7.34 -41.38 6.68 -39 6 C-38.67 4.68 -38.34 3.36 -38 2 C-35.525 2.495 -35.525 2.495 -33 3 C-34 6 -34 6 -37.0625 7.6875 C-38.031875 8.120625 -39.00125 8.55375 -40 9 C-37.11584117 10.44207941 -34.58278472 10.09394887 -31.375 10.0625 C-29.59222656 10.04896484 -29.59222656 10.04896484 -27.7734375 10.03515625 C-26.40058594 10.01775391 -26.40058594 10.01775391 -25 10 C-26.98 9.67 -28.96 9.34 -31 9 C-31 8.67 -31 8.34 -31 8 C-20.605 6.515 -20.605 6.515 -10 5 C-10 5.66 -10 6.32 -10 7 C-7.36 7.33 -4.72 7.66 -2 8 C-1.855625 6.865625 -1.71125 5.73125 -1.5625 4.5625 C-1 1 -1 1 0 0 Z M6 14 C9 15 9 15 9 15 Z " fill="#585858" transform="translate(95,15)"/>
<path d="M0 0 C4.11248216 3.71450001 4.77442822 5.74428223 5.3125 11.125 C4.66961757 19.09674216 1.66538692 25.0630801 -4.12109375 30.52734375 C-8.52498986 33.9790461 -12.02123938 35.3640501 -17.5625 36.1875 C-23.69312986 37.26236049 -29.14167211 39.1109338 -34.875 41.5 C-38.57592368 43.0186497 -42.28765668 44.509519 -46 46 C-47.10924332 46.45539658 -48.21848663 46.91079315 -49.36134338 47.37998962 C-71.74376514 56.37801698 -91.74216126 58.57660223 -115.7388916 57.98846436 C-119.13085178 57.91962262 -122.52201703 57.90848653 -125.91458511 57.89845943 C-129.23857104 57.88564352 -132.56201052 57.85064417 -135.88573456 57.80783272 C-137.44353735 57.78787558 -139.00139121 57.77150367 -140.55927277 57.75913811 C-152.81590843 57.62813659 -164.5627476 56.40237448 -174.51171875 48.5625 C-178.13772551 44.75566875 -178.92796096 40.1327813 -179 35 C-178.4247512 30.06244784 -177.85698947 26.3589716 -174 23 C-172.92578125 25.9296875 -172.92578125 25.9296875 -171.8515625 28.859375 C-171.57054687 29.56578125 -171.28953125 30.2721875 -171 31 C-170.68482422 32.05767578 -170.68482422 32.05767578 -170.36328125 33.13671875 C-168.17862893 36.12261891 -165.01101423 36.36561194 -161.5625 37.0625 C-160.82201416 37.22459961 -160.08152832 37.38669922 -159.31860352 37.55371094 C-150.61070179 39.40185937 -141.80677091 40.7239366 -133 42 C-133.66 43.65 -134.32 45.3 -135 47 C-136.98 47 -138.96 47 -141 47 C-141 47.66 -141 48.32 -141 49 C-135.00470228 49.85925386 -129.15358309 50.17357529 -123.1015625 50.24609375 C-121.22265076 50.27898446 -119.34374462 50.31219678 -117.46484375 50.34570312 C-114.52851643 50.39336597 -111.59221922 50.43793395 -108.65576172 50.47680664 C-105.80414728 50.51634006 -102.95294954 50.56786857 -100.1015625 50.62109375 C-98.77664291 50.63371498 -98.77664291 50.63371498 -97.42495728 50.64659119 C-91.22682965 50.77317035 -91.22682965 50.77317035 -89 53 C-85.37064877 54.09606407 -81.65800749 54.78537197 -78.14453125 53.12109375 C-73.26115317 49.2746799 -71.95743456 44.87226529 -71 39 C-70.83422686 36.16560441 -70.81495138 33.33869729 -70.8125 30.5 C-70.80025391 29.75363281 -70.78800781 29.00726563 -70.77539062 28.23828125 C-70.76435873 24.08293484 -70.93035426 20.72824686 -73 17 C-75.04105639 16.11306697 -75.04105639 16.11306697 -77 16 C-77 16.66 -77 17.32 -77 18 C-80 17 -80 17 -83 15 C-80.44496838 13.32940241 -79.0961367 12.9959943 -76 13.125 C-71.91237323 14.31722447 -70.03610457 16.23765392 -67.90283203 19.86621094 C-66.91076525 22.21090096 -66.76850405 23.79528328 -66.8046875 26.328125 C-66.81113281 27.12734375 -66.81757812 27.9265625 -66.82421875 28.75 C-66.84935547 29.9875 -66.84935547 29.9875 -66.875 31.25 C-66.88402344 32.09046875 -66.89304687 32.9309375 -66.90234375 33.796875 C-66.92584183 35.86470604 -66.96171092 37.93238995 -67 40 C-65.96182129 39.65219482 -64.92364258 39.30438965 -63.85400391 38.94604492 C-59.95934623 37.64173938 -56.06400094 36.3394978 -52.16845703 35.0378418 C-50.49053776 34.47687109 -48.81279925 33.91535939 -47.13525391 33.35327148 C-41.76196532 31.5531078 -36.38471624 29.76570437 -31 28 C-29.93749023 27.65146973 -28.87498047 27.30293945 -27.78027344 26.94384766 C-26.47751465 26.53271729 -26.47751465 26.53271729 -25.1484375 26.11328125 C-24.44638184 25.89067627 -23.74432617 25.66807129 -23.02099609 25.4387207 C-20.63984455 24.92181694 -18.4291998 24.92456723 -16 25 C-15.67 25.99 -15.34 26.98 -15 28 C-9.91696314 28.11320856 -9.91696314 28.11320856 -5 27 C-4.94392578 26.14728516 -4.94392578 26.14728516 -4.88671875 25.27734375 C-4.54978658 21.32004243 -4.13037464 18.29334295 -2.5 14.625 C-0.5027266 9.79825596 -0.27149144 5.17706093 0 0 Z " fill="#000000" transform="translate(179,31)"/>
<path d="M0 0 C0.99235657 -0.00143509 0.99235657 -0.00143509 2.00476074 -0.00289917 C3.392986 -0.00357474 4.78121454 -0.00176434 6.16943359 0.00244141 C8.27578938 0.00779861 10.38193198 0.00247514 12.48828125 -0.00390625 C13.84635463 -0.00324536 15.20442788 -0.00196397 16.5625 0 C17.78001953 0.00112793 18.99753906 0.00225586 20.25195312 0.00341797 C23.82481238 0.13440963 27.25383474 0.56392923 30.78125 1.1328125 C28.84878465 2.120422 26.93381792 3.07095198 24.921875 3.88671875 C16.41304796 7.52582453 11.30959894 15.06948095 6.203125 22.50390625 C3.5454459 25.54855511 1.44114223 26.0875934 -2.58203125 26.36328125 C-28.80095211 26.07801109 -28.80095211 26.07801109 -33.21875 23.1328125 C-21.99875 23.1328125 -10.77875 23.1328125 0.78125 23.1328125 C1.27625 21.6478125 1.27625 21.6478125 1.78125 20.1328125 C-3.68012814 20.03528789 -8.81130982 20.36032105 -14.21875 21.1328125 C-13.744375 20.3696875 -13.27 19.6065625 -12.78125 18.8203125 C-11.11768903 16.16870702 -11.11768903 16.16870702 -10.21875 13.1328125 C-11.20875 13.4628125 -12.19875 13.7928125 -13.21875 14.1328125 C-14.44844878 17.64472059 -14.44844878 17.64472059 -15.21875 21.1328125 C-17.85875 20.8028125 -20.49875 20.4728125 -23.21875 20.1328125 C-23.21875 19.4728125 -23.21875 18.8128125 -23.21875 18.1328125 C-28.33240014 19.2009972 -33.29102969 20.36388726 -38.21875 22.1328125 C-37.22875 22.7928125 -36.23875 23.4528125 -35.21875 24.1328125 C-37.82319348 24.18675955 -40.42651998 24.22645719 -43.03125 24.2578125 C-43.76923828 24.27457031 -44.50722656 24.29132812 -45.26757812 24.30859375 C-49.13121426 24.34355878 -50.92778668 24.32678805 -54.21875 22.1328125 C-50.59375 19.1328125 -50.59375 19.1328125 -47.21875 19.1328125 C-47.3425 18.39289062 -47.46625 17.65296875 -47.59375 16.890625 C-47.21875 14.1328125 -47.21875 14.1328125 -44.65625 12 C-34.39089999 6.05076306 -26.01124932 2.8065866 -14.21875 1.1328125 C-13.15019775 0.96168945 -12.08164551 0.79056641 -10.98071289 0.61425781 C-7.27404702 0.13988925 -3.73488849 0.00346006 0 0 Z " fill="#131312" transform="translate(108.21875,1.8671875)"/>
<path d="M0 0 C2.11970075 3.49127182 2.11970075 3.49127182 1.5 6.125 C1.335 6.74375 1.17 7.3625 1 8 C1.66 8.66 2.32 9.32 3 10 C3 10.99 3 11.98 3 13 C1.68 13 0.36 13 -1 13 C-1 13.99 -1 14.98 -1 16 C0.32 16 1.64 16 3 16 C1.125 19.875 1.125 19.875 0 21 C0.28469203 26.02499694 0.28469203 26.02499694 3 30 C7.02104757 30.44678306 9.13756416 30.6808704 12.375 28.125 C14.02699185 26.10274318 14.02699185 26.10274318 15 24 C15.66 24 16.32 24 17 24 C15.60450665 28.88422674 13.13195327 31.13941697 9 34 C4.57809953 35.353643 2.11490415 35.00184526 -2 33 C-5.84384939 31.71871687 -9.5072558 31.80540835 -13.515625 31.75390625 C-15.26042057 31.72090876 -17.00521212 31.68769831 -18.75 31.65429688 C-21.48108514 31.60736851 -24.21216168 31.56305221 -26.94335938 31.52319336 C-38.1155982 31.35233586 -48.96050392 30.80717354 -60 29 C-59.01 27.515 -59.01 27.515 -58 26 C-55.46875 25.77734375 -55.46875 25.77734375 -52.5 25.9375 C-49.60479498 26.12905186 -49.60479498 26.12905186 -47 26 C-46.34 25.34 -45.68 24.68 -45 24 C-42.60236815 21.60236815 -41.66726502 21.65719414 -38.375 21.375 C-37.55773437 21.30023438 -36.74046875 21.22546875 -35.8984375 21.1484375 C-35.27195312 21.09945312 -34.64546875 21.05046875 -34 21 C-36.31 21 -38.62 21 -41 21 C-35.85913339 17.57275559 -30.99202204 17.8984403 -25 18 C-24.505 18.99 -24.505 18.99 -24 20 C-24.66 21.98 -25.32 23.96 -26 26 C-30.29 26.66 -34.58 27.32 -39 28 C-36.24993392 28.0270203 -33.50013454 28.04684883 -30.75 28.0625 C-29.97269531 28.07087891 -29.19539063 28.07925781 -28.39453125 28.08789062 C-27.64042969 28.09111328 -26.88632813 28.09433594 -26.109375 28.09765625 C-25.41811523 28.10289307 -24.72685547 28.10812988 -24.01464844 28.11352539 C-21.90026102 27.99437971 -20.03358485 27.57618237 -18 27 C-19.65 26.67 -21.3 26.34 -23 26 C-22.4225 25.7525 -21.845 25.505 -21.25 25.25 C-18.6997003 23.83316683 -16.98214299 22.12372463 -15 20 C-15.33 21.32 -15.66 22.64 -16 24 C-14.35 24 -12.7 24 -11 24 C-10.505 24.99 -10.505 24.99 -10 26 C-9.01 26 -8.02 26 -7 26 C-6.90203125 25.03320312 -6.8040625 24.06640625 -6.703125 23.0703125 C-4.57941834 4.57941834 -4.57941834 4.57941834 0 0 Z " fill="#171717" transform="translate(91,51)"/>
<path d="M0 0 C3.5 0.5625 3.5 0.5625 5.875 2.9375 C9.39148952 8.61798307 9.17278224 13.97514863 8.5 20.5625 C6.79077606 25.65057591 5.01431872 29.55295419 0.5 32.5625 C-2.9375 33 -2.9375 33 -6.5 32.5625 C-9.16710047 30.1689483 -10.29687397 28.57813017 -11 25.0625 C-10.33950484 21.7600242 -8.743735 20.01658516 -6.5 17.5625 C-7.82 17.5625 -9.14 17.5625 -10.5 17.5625 C-10.5 16.5725 -10.5 15.5825 -10.5 14.5625 C-9.18 14.5625 -7.86 14.5625 -6.5 14.5625 C-7.304375 13.4796875 -7.304375 13.4796875 -8.125 12.375 C-9.5 9.5625 -9.5 9.5625 -8.9375 7 C-6.43400421 2.75494192 -5.02840362 0.8081363 0 0 Z " fill="#7A7573" transform="translate(100.5,49.4375)"/>
<path d="M0 0 C0.66 0 1.32 0 2 0 C2.33 2.64 2.66 5.28 3 8 C3.66 7.01 4.32 6.02 5 5 C8.06645286 5.39033305 11.12681776 5.81690565 14.1875 6.25 C15.48397461 6.41435547 15.48397461 6.41435547 16.80664062 6.58203125 C21.92827493 7.32770981 25.26386193 8.13657867 29 12 C29.33 12.66 29.66 13.32 30 14 C30.928125 14.12375 31.85625 14.2475 32.8125 14.375 C36.49918698 15.0978798 37.70666472 16.08922829 40 19 C40 19.66 40 20.32 40 21 C37.11584117 22.44207941 34.58278472 22.09394887 31.375 22.0625 C30.18648437 22.05347656 28.99796875 22.04445313 27.7734375 22.03515625 C26.85820313 22.02355469 25.94296875 22.01195313 25 22 C25 22.66 25 23.32 25 24 C26.98 24 28.96 24 31 24 C31.495 24.99 31.495 24.99 32 26 C27.05 25.67 22.1 25.34 17 25 C17 24.34 17 23.68 17 23 C19.31 23 21.62 23 24 23 C24 21.02 24 19.04 24 17 C23.43152344 16.93941406 22.86304687 16.87882812 22.27734375 16.81640625 C7.72961957 15.23777174 7.72961957 15.23777174 4 13 C3.67 14.32 3.34 15.64 3 17 C0.01564867 11.87064616 -1.61021235 8.10212353 -1 2 C-0.67 1.34 -0.34 0.68 0 0 Z " fill="#080807" transform="translate(7,44)"/>
<path d="M0 0 C0.495 1.485 0.495 1.485 1 3 C-0.32 3.33 -1.64 3.66 -3 4 C-1.35 4 0.3 4 2 4 C2 4.66 2 5.32 2 6 C-1.63 6.33 -5.26 6.66 -9 7 C-9 7.66 -9 8.32 -9 9 C-9.99 9.33 -10.98 9.66 -12 10 C-12 9.34 -12 8.68 -12 8 C-13.32 8 -14.64 8 -16 8 C-15.67 9.32 -15.34 10.64 -15 12 C-11.98968256 12.93423645 -11.13349732 13.04449911 -8 12 C-8.33 13.32 -8.66 14.64 -9 16 C-9.58007812 16.12117188 -10.16015625 16.24234375 -10.7578125 16.3671875 C-15.28028442 17.33735474 -19.63750966 18.43397783 -24 20 C-23.01 20.66 -22.02 21.32 -21 22 C-23.60444348 22.05394705 -26.20776998 22.09364469 -28.8125 22.125 C-29.55048828 22.14175781 -30.28847656 22.15851562 -31.04882812 22.17578125 C-34.91246426 22.21074628 -36.70903668 22.19397555 -40 20 C-36.375 17 -36.375 17 -33 17 C-33.12375 16.26007812 -33.2475 15.52015625 -33.375 14.7578125 C-33 12 -33 12 -30.4375 9.8671875 C-29.303125 9.20976562 -28.16875 8.55234375 -27 7.875 C-26.40493652 7.52880615 -25.80987305 7.1826123 -25.19677734 6.82592773 C-17.09569834 2.20789478 -9.43235677 -0.28582899 0 0 Z " fill="#191B1A" transform="translate(94,4)"/>
<path d="M0 0 C2.22189824 2.22189824 2.92598892 4.08482708 4 7 C4.33 6.01 4.66 5.02 5 4 C11.70774643 5.17855732 18.36181939 6.47648314 25 8 C25 9.98 25 11.96 25 14 C22.69 14 20.38 14 18 14 C18 14.66 18 15.32 18 16 C19.918125 15.9690625 19.918125 15.9690625 21.875 15.9375 C25.75 15.875 25.75 15.875 28 17 C33.79619744 17.64481888 33.79619744 17.64481888 38.7421875 14.93359375 C43.04860445 12.37762685 45.60749019 12.88788249 50.375 13.75 C51.11105469 13.8634375 51.84710938 13.976875 52.60546875 14.09375 C54.40709624 14.37452312 56.20415631 14.68434101 58 15 C58 15.33 58 15.66 58 16 C54.37 16.66 50.74 17.32 47 18 C50.96 18 54.92 18 59 18 C54.77746115 20.11126943 52.85998477 20.2171997 48.25 20.125 C47.07953125 20.10695313 45.9090625 20.08890625 44.703125 20.0703125 C43.81109375 20.04710938 42.9190625 20.02390625 42 20 C41.34 21.32 40.68 22.64 40 24 C40 22.68 40 21.36 40 20 C38.92298828 19.96132812 38.92298828 19.96132812 37.82421875 19.921875 C30.70115613 19.5315702 23.91321167 18.52487972 16.9375 17.0625 C16.11660889 16.89266602 15.29571777 16.72283203 14.44995117 16.54785156 C10.6564352 15.72377134 7.44174879 14.84539393 4 13 C3.67 14.32 3.34 15.64 3 17 C3 15.35 3 13.7 3 12 C2.34 11.67 1.68 11.34 1 11 C0.5859375 8.49609375 0.5859375 8.49609375 0.375 5.4375 C0.30023437 4.42558594 0.22546875 3.41367187 0.1484375 2.37109375 C0.09945313 1.58863281 0.05046875 0.80617187 0 0 Z " fill="#545454" transform="translate(6,53)"/>
<path d="M0 0 C3.62502472 0.47697694 6.97220179 1.28104048 10.4375 2.40625 C16.41831147 4.22499869 22.45743165 5.22452001 28.625 6.1875 C30.27435547 6.45336914 30.27435547 6.45336914 31.95703125 6.72460938 C34.63712114 7.15575427 37.31802651 7.58076149 40 8 C39.34 9.65 38.68 11.3 38 13 C36.02 13 34.04 13 32 13 C32 13.33 32 13.66 32 14 C22.62219793 15.97427412 12.92682483 13.89371541 4.66796875 9.04296875 C2 7 2 7 0 4 C0 2.68 0 1.36 0 0 Z " fill="#0B0B0A" transform="translate(6,65)"/>
<path d="M0 0 C8.66725664 -0.29380531 8.66725664 -0.29380531 13 2 C13.66 2.66 14.32 3.32 15 4 C15.845625 4.33 16.69125 4.66 17.5625 5 C20 6 20 6 21 8 C21.99 8.66 22.98 9.32 24 10 C24.33 10.66 24.66 11.32 25 12 C25.99 12.66 26.98 13.32 28 14 C23.38 15.32 18.76 16.64 14 18 C16.64 18.33 19.28 18.66 22 19 C21.67 19.66 21.34 20.32 21 21 C19.68 21 18.36 21 17 21 C17 21.66 17 22.32 17 23 C15.06441401 23.67220351 13.12645628 24.33758077 11.1875 25 C10.10855469 25.37125 9.02960938 25.7425 7.91796875 26.125 C5 27 5 27 2 27 C1.67 28.65 1.34 30.3 1 32 C-1.475 32.495 -1.475 32.495 -4 33 C-3.34 32.21625 -2.68 31.4325 -2 30.625 C0.20201441 28.28487188 0.20201441 28.28487188 0 26 C0.66 26 1.32 26 2 26 C2 25.34 2 24.68 2 24 C0.68 23.67 -0.64 23.34 -2 23 C-1.01 22.67 -0.02 22.34 1 22 C1.33 21.34 1.66 20.68 2 20 C3.30846 19.2857489 4.6487899 18.62964552 6 18 C7.92017797 16.96482025 9.8366671 15.92277754 11.75 14.875 C12.73484375 14.33617187 13.7196875 13.79734375 14.734375 13.2421875 C15.48203125 12.83226562 16.2296875 12.42234375 17 12 C16.37374436 8.73667038 16.37374436 8.73667038 14.0625 6.375 C9.83966673 4.47903404 5.54883862 3.75077919 1 3 C0.67 2.01 0.34 1.02 0 0 Z " fill="#646464" transform="translate(144,4)"/>
<path d="M0 0 C0.33 0.99 0.66 1.98 1 3 C2.65 3 4.3 3 6 3 C6 2.01 6 1.02 6 0 C6.99 0 7.98 0 9 0 C10.5912689 4.873261 11.21192221 8.80790596 11 14 C10.01 14.33 9.02 14.66 8 15 C7.34 13.68 6.68 12.36 6 11 C5.34 11 4.68 11 4 11 C4 11.66 4 12.32 4 13 C1.03 13 -1.94 13 -5 13 C-5.2475 13.78375 -5.495 14.5675 -5.75 15.375 C-7 18 -7 18 -8.9375 19.375 C-11 20 -11 20 -14 19 C-12.25 14.125 -12.25 14.125 -10 13 C-9.566875 12.113125 -9.13375 11.22625 -8.6875 10.3125 C-6.63271944 6.27904186 -4.1717161 2.08585805 0 0 Z " fill="#131313" transform="translate(131,9)"/>
<path d="M0 0 C1.07591401 3.38029701 0.97215966 6.17368132 0.625 9.6875 C0.48964844 11.14736328 0.48964844 11.14736328 0.3515625 12.63671875 C0 15 0 15 -1 16 C-2.66617115 16.04063832 -4.33388095 16.042721 -6 16 C-5.67 15.34 -5.34 14.68 -5 14 C-7.475 13.505 -7.475 13.505 -10 13 C-10 12.01 -10 11.02 -10 10 C-10.99 11.32 -11.98 12.64 -13 14 C-11.35 14.66 -9.7 15.32 -8 16 C-8 16.33 -8 16.66 -8 17 C-14.53686384 17.98831156 -20.89577115 18.11883529 -27.5 18.0625 C-28.51320313 18.05798828 -29.52640625 18.05347656 -30.5703125 18.04882812 C-33.04693827 18.03714593 -35.52343657 18.02076582 -38 18 C-38 17.67 -38 17.34 -38 17 C-31.93184478 15.77100654 -26.20104812 14.72439786 -20 15 C-19.67 13.02 -19.34 11.04 -19 9 C-17.68 9 -16.36 9 -15 9 C-15 8.34 -15 7.68 -15 7 C-13.02 7 -11.04 7 -9 7 C-8.67 6.01 -8.34 5.02 -8 4 C-5.525 4.495 -5.525 4.495 -3 5 C-2.01 3.35 -1.02 1.7 0 0 Z " fill="#5B5B5B" transform="translate(85,62)"/>
<path d="M0 0 C-0.81071693 1.12087757 -1.65024233 2.22092299 -2.5 3.3125 C-2.9640625 3.92738281 -3.428125 4.54226562 -3.90625 5.17578125 C-9.70569743 10.22865802 -16.50136841 10.45518407 -23.8125 10.3125 C-25.0799707 10.31733398 -25.0799707 10.31733398 -26.37304688 10.32226562 C-32.59818599 10.26787601 -32.59818599 10.26787601 -36 8 C-25.44280483 1.71060713 -12.19828574 -0.94846282 0 0 Z " fill="#9C9DA2" transform="translate(82,45)"/>
<path d="M0 0 C0.99 0 1.98 0 3 0 C3.495 1.485 3.495 1.485 4 3 C2.68 4.32 1.36 5.64 0 7 C0.99 6.835 1.98 6.67 3 6.5 C7.02732942 5.91525483 10.93474623 5.92867976 15 6 C15 7.32 15 8.64 15 10 C13.2927807 11.7072193 11.08062795 11.13014326 8.75 11.1328125 C7.66589844 11.13410156 6.58179688 11.13539062 5.46484375 11.13671875 C4.32144531 11.13285156 3.17804688 11.12898438 2 11.125 C0.88753906 11.12886719 -0.22492188 11.13273437 -1.37109375 11.13671875 C-7.66537634 11.12930499 -13.76044242 10.8328223 -20 10 C-20 10.66 -20 11.32 -20 12 C-23.3 12 -26.6 12 -30 12 C-30 11.67 -30 11.34 -30 11 C-28.35 10.67 -26.7 10.34 -25 10 C-27.97 9.505 -27.97 9.505 -31 9 C-31 8.67 -31 8.34 -31 8 C-20.605 6.515 -20.605 6.515 -10 5 C-10 5.66 -10 6.32 -10 7 C-7.36 7.33 -4.72 7.66 -2 8 C-1.855625 6.865625 -1.71125 5.73125 -1.5625 4.5625 C-1 1 -1 1 0 0 Z " fill="#424242" transform="translate(95,15)"/>
<path d="M0 0 C2.97 0 5.94 0 9 0 C9.495 0.99 9.495 0.99 10 2 C11.32 1.67 12.64 1.34 14 1 C12.6009212 2.88081289 11.19643091 4.75721575 9.78515625 6.62890625 C8.57625121 8.23460725 7.37595626 9.84682065 6.18359375 11.46484375 C5.58675781 12.26019531 4.98992187 13.05554688 4.375 13.875 C3.82585937 14.61492188 3.27671875 15.35484375 2.7109375 16.1171875 C-0.16058786 19.27717659 -2.0834696 19.93719478 -6.36328125 20.23046875 C-32.58220211 19.94519859 -32.58220211 19.94519859 -37 17 C-25.78 17 -14.56 17 -3 17 C-2.67 15.68 -2.34 14.36 -2 13 C-1.01 13 -0.02 13 1 13 C-1.475 12.01 -1.475 12.01 -4 11 C-3.67 9.68 -3.34 8.36 -3 7 C-2.34 7 -1.68 7 -1 7 C-0.34 6.67 0.32 6.34 1 6 C1.65555119 3.47266765 1.65555119 3.47266765 2 1 C1.34 0.67 0.68 0.34 0 0 Z M8 3 C7.67 3.66 7.34 4.32 7 5 C7.66 5 8.32 5 9 5 C8.67 4.34 8.34 3.68 8 3 Z " fill="#0B0B0B" transform="translate(112,8)"/>
<path d="M0 0 C2.1462026 0.14029419 4.29196218 0.28738164 6.4375 0.4375 C7.63246094 0.51871094 8.82742187 0.59992187 10.05859375 0.68359375 C13 1 13 1 14 2 C14.928125 2.103125 15.85625 2.20625 16.8125 2.3125 C20.46722392 3.10077379 21.71566202 4.10064795 24 7 C24 7.66 24 8.32 24 9 C21.11584117 10.44207941 18.58278472 10.09394887 15.375 10.0625 C14.18648437 10.05347656 12.99796875 10.04445313 11.7734375 10.03515625 C10.85820313 10.02355469 9.94296875 10.01195313 9 10 C9 10.66 9 11.32 9 12 C10.98 12 12.96 12 15 12 C15.33 12.66 15.66 13.32 16 14 C11.05 13.67 6.1 13.34 1 13 C1 12.34 1 11.68 1 11 C3.31 11 5.62 11 8 11 C8 9.02 8 7.04 8 5 C5.03 4.01 2.06 3.02 -1 2 C-0.67 1.34 -0.34 0.68 0 0 Z " fill="#040403" transform="translate(23,56)"/>
<path d="M0 0 C0.33 0.99 0.66 1.98 1 3 C-0.32 3.33 -1.64 3.66 -3 4 C-1.35 4 0.3 4 2 4 C2 4.66 2 5.32 2 6 C-1.63 6.33 -5.26 6.66 -9 7 C-9 7.66 -9 8.32 -9 9 C-9.99 9.33 -10.98 9.66 -12 10 C-12 9.34 -12 8.68 -12 8 C-13.32 8 -14.64 8 -16 8 C-15.67 9.32 -15.34 10.64 -15 12 C-11.98968256 12.93423645 -11.13349732 13.04449911 -8 12 C-8.375 13.9375 -8.375 13.9375 -9 16 C-11.70879335 17.35439668 -14.00933268 17.06501451 -17 17 C-17 16.01 -17 15.02 -17 14 C-18.32 14.33 -19.64 14.66 -21 15 C-21 14.34 -21 13.68 -21 13 C-19.68 13 -18.36 13 -17 13 C-18.1858237 9.62496331 -19.27573689 7.35277269 -22 5 C-15.30850254 1.02127178 -7.73032763 -0.1817256 0 0 Z " fill="#222925" transform="translate(94,4)"/>
<path d="M0 0 C1.32 0.66 2.64 1.32 4 2 C4 2.99 4 3.98 4 5 C2.68 5 1.36 5 0 5 C0 5.99 0 6.98 0 8 C1.32 8 2.64 8 4 8 C2.125 11.875 2.125 11.875 1 13 C1.28469203 18.02499694 1.28469203 18.02499694 4 22 C8.02104757 22.44678306 10.13756416 22.6808704 13.375 20.125 C15.02699185 18.10274318 15.02699185 18.10274318 16 16 C16.66 16 17.32 16 18 16 C16.60450665 20.88422674 14.13195327 23.13941697 10 26 C6.63151988 27.03116738 4.6735098 27.15307041 1.25 26.375 C-1.69293214 24.57654147 -2.16988892 23.32044432 -3 20 C-3.125 16.6875 -3.125 16.6875 -3 14 C-2.34 14 -1.68 14 -1 14 C-1.01160156 13.24074219 -1.02320312 12.48148438 -1.03515625 11.69921875 C-1.04417969 10.70535156 -1.05320312 9.71148437 -1.0625 8.6875 C-1.07410156 7.70136719 -1.08570312 6.71523437 -1.09765625 5.69921875 C-1 3 -1 3 0 0 Z " fill="#202020" transform="translate(90,59)"/>
<path d="M0 0 C2 0.1875 2 0.1875 4 1 C6.85069228 5.27603842 6.49336779 8.98282911 6 14 C5.31449069 16.78707071 4.50002613 18.48209899 3 21 C0.8125 21.9375 0.8125 21.9375 -1 22 C-0.67 21.01 -0.34 20.02 0 19 C0.66 19.33 1.32 19.66 2 20 C1.34 19.01 0.68 18.02 0 17 C-0.99 17.99 -1.98 18.98 -3 20 C-3 17.36 -3 14.72 -3 12 C0.13349732 10.95550089 0.98968256 11.06576355 4 12 C4 11.34 4 10.68 4 10 C3.01 9.67 2.02 9.34 1 9 C0.34 8.67 -0.32 8.34 -1 8 C-1 8.66 -1 9.32 -1 10 C-1.66 10 -2.32 10 -3 10 C-2.25 2.25 -2.25 2.25 0 0 Z " fill="#D0CDCD" transform="translate(170,35)"/>
<path d="M0 0 C7.4659249 -0.36717663 7.4659249 -0.36717663 10 1.375 C11 3 11 3 11 5 C11.99 5.33 12.98 5.66 14 6 C13.8125 8.375 13.8125 8.375 13 11 C10.4375 12.3125 10.4375 12.3125 8 13 C8 13.66 8 14.32 8 15 C7.34 15 6.68 15 6 15 C6 14.34 6 13.68 6 13 C5.01 13 4.02 13 3 13 C2.01 8.71 1.02 4.42 0 0 Z " fill="#363636" transform="translate(143,9)"/>
<path d="M0 0 C0.99 0 1.98 0 3 0 C3 0.66 3 1.32 3 2 C4.27875 1.79375 5.5575 1.5875 6.875 1.375 C9.0546875 1.0234375 9.0546875 1.0234375 11 1 C11.66 1.66 12.32 2.32 13 3 C12.525625 3.391875 12.05125 3.78375 11.5625 4.1875 C9.64820367 6.40808374 9.38733012 8.13375709 9 11 C8.34 10.34 7.68 9.68 7 9 C6.67 10.65 6.34 12.3 6 14 C5.01 14 4.02 14 3 14 C2.67 12.68 2.34 11.36 2 10 C1.01 10.66 0.02 11.32 -1 12 C-1.66 11.67 -2.32 11.34 -3 11 C-3.1875 8.6875 -3.1875 8.6875 -3 6 C-1.5 4.375 -1.5 4.375 0 3 C0 2.01 0 1.02 0 0 Z " fill="#776F6D" transform="translate(93,66)"/>
<path d="M0 0 C0.33 0 0.66 0 1 0 C1.69361367 8.10757314 0.71127779 14.21841422 -4 21 C-7.69486103 23.46324069 -9.63293092 23.38991688 -14 23 C-15.9375 21.5 -15.9375 21.5 -17 20 C-15.74458443 17.48916886 -14.49936512 17.12874554 -12 16 C-12 17.65 -12 19.3 -12 21 C-11.01 21 -10.02 21 -9 21 C-9 19.02 -9 17.04 -9 15 C-8.01 15.66 -7.02 16.32 -6 17 C-5.67 15.35 -5.34 13.7 -5 12 C-4.34 12 -3.68 12 -3 12 C-3.66868314 8.88667752 -3.66868314 8.88667752 -6.0625 7.8125 C-6.701875 7.544375 -7.34125 7.27625 -8 7 C-5.69 6.34 -3.38 5.68 -1 5 C-0.67 3.35 -0.34 1.7 0 0 Z " fill="#CBC7C6" transform="translate(108,59)"/>
<path d="M0 0 C0.33 0.66 0.66 1.32 1 2 C1.763125 2 2.52625 2 3.3125 2 C5.20833333 2 7.10416667 2 9 2 C8 4 8 4 6.1875 4.875 C3.8839972 5.88594913 3.8839972 5.88594913 2.31640625 7.9609375 C-0.74700968 10.65757008 -3.25665495 11.0224675 -7.25 11.75 C-7.91588135 11.87286377 -8.5817627 11.99572754 -9.26782227 12.12231445 C-13.92542135 12.93749371 -18.290713 13.28832369 -23 13 C-23 12.67 -23 12.34 -23 12 C-21.906875 11.71125 -20.81375 11.4225 -19.6875 11.125 C-15.95986155 10.18106796 -15.95986155 10.18106796 -13 8 C-11.71765497 7.53588768 -10.42494875 7.09974056 -9.125 6.6875 C-5.00974582 5.21451234 -2.83954045 3.28321864 0 0 Z " fill="#494848" transform="translate(81,46)"/>
<path d="M0 0 C2.07356262 4.24586632 2.3111218 8.10910895 2.25 12.75 C2.24613281 13.45576172 2.24226563 14.16152344 2.23828125 14.88867188 C2.15050128 20.1993602 1.45448399 24.90930602 0 30 C-0.33 30 -0.66 30 -1 30 C-0.98839844 28.80761719 -0.97679687 27.61523438 -0.96484375 26.38671875 C-0.95546408 24.82031406 -0.94636407 23.25390769 -0.9375 21.6875 C-0.92912109 20.90181641 -0.92074219 20.11613281 -0.91210938 19.30664062 C-0.90888672 18.54931641 -0.90566406 17.79199219 -0.90234375 17.01171875 C-0.89710693 16.31522217 -0.89187012 15.61872559 -0.88647461 14.90112305 C-0.93104009 12.77502032 -0.93104009 12.77502032 -2 10 C-1.66666667 8.33333333 -1.33333333 6.66666667 -1 5 C-1.33 4.01 -1.66 3.02 -2 2 C-4.31 2 -6.62 2 -9 2 C-8.814375 2.61875 -8.62875 3.2375 -8.4375 3.875 C-8 6 -8 6 -9 8 C-12.71748397 6.76083868 -16.36836991 5.47228247 -20 4 C-14.15241063 0.10160709 -6.89388918 -0.29973431 0 0 Z " fill="#383838" transform="translate(177,18)"/>
<path d="M0 0 C0.66 0.99 1.32 1.98 2 3 C1.67 3.99 1.34 4.98 1 6 C1.66 6 2.32 6 3 6 C3 5.34 3 4.68 3 4 C6 5 6 5 8 6 C8 6.66 8 7.32 8 8 C5.69 8 3.38 8 1 8 C1.33 9.98 1.66 11.96 2 14 C2.99 13.01 3.98 12.02 5 11 C5.33 12.65 5.66 14.3 6 16 C5.34 16 4.68 16 4 16 C3.67 16.66 3.34 17.32 3 18 C6.16115776 16.63016497 6.9927092 16.0109362 9 13 C8.25 17.75 8.25 17.75 6 20 C3.31160615 20.26991906 0.70858064 20.08737357 -2 20 C-3.1171875 18.515625 -3.1171875 18.515625 -4 16 C-3.5004408 13.14045424 -2.91436709 10.52504206 -2.125 7.75 C-1.92519531 7.00492188 -1.72539062 6.25984375 -1.51953125 5.4921875 C-1.02571014 3.65799482 -0.51452906 1.82849171 0 0 Z " fill="#111111" transform="translate(166,39)"/>
<path d="M0 0 C3.37802337 2.72118549 5.69137527 5.68654905 6.2746582 10.05883789 C6.30284893 12.39392548 6.32177435 14.72721897 6.3125 17.0625 C6.32861328 17.87783203 6.34472656 18.69316406 6.36132812 19.53320312 C6.36229492 20.70979492 6.36229492 20.70979492 6.36328125 21.91015625 C6.36626221 22.62308838 6.36924316 23.33602051 6.37231445 24.07055664 C5.8995277 26.52067711 4.87631266 27.41950659 3 29 C2.34 28.67 1.68 28.34 1 28 C1.33 27.01 1.66 26.02 2 25 C2.12276572 22.19637366 2.18513218 19.42849845 2.1875 16.625 C2.19974609 15.86960937 2.21199219 15.11421875 2.22460938 14.3359375 C2.23558475 10.15066253 2.0911725 6.75245239 0 3 C-2.04105639 2.11306697 -2.04105639 2.11306697 -4 2 C-4 2.66 -4 3.32 -4 4 C-7 3 -7 3 -10 1 C-6.4215878 -1.33973105 -4.05713232 -1.18333026 0 0 Z " fill="#0E0E0E" transform="translate(106,45)"/>
<path d="M0 0 C4.39453125 0.73242188 4.39453125 0.73242188 8.7890625 1.46484375 C10.37847656 1.72974609 10.37847656 1.72974609 12 2 C14 2.33333333 16 2.66666667 18 3 C18 4.98 18 6.96 18 9 C11.74892565 8.57045059 5.95795479 7.98598493 0 6 C0 4.02 0 2.04 0 0 Z " fill="#ADADAD" transform="translate(13,58)"/>
<path d="M0 0 C0.99 0.33 1.98 0.66 3 1 C-0.29107045 4.94357382 -3.92479352 6.35065783 -8.6875 7.8671875 C-9.42701904 8.11042755 -10.16653809 8.3536676 -10.9284668 8.60427856 C-12.48646278 9.11273977 -14.04650236 9.6149765 -15.60839844 10.11132812 C-17.99856431 10.87454156 -20.37792493 11.66633203 -22.7578125 12.4609375 C-24.27547573 12.95227236 -25.79368821 13.44191462 -27.3125 13.9296875 C-28.02301514 14.16807343 -28.73353027 14.40645935 -29.46557617 14.65206909 C-34.43749608 16.19743002 -34.43749608 16.19743002 -37.48046875 15.12939453 C-37.98191406 14.75669434 -38.48335938 14.38399414 -39 14 C-37.854104 13.61142822 -36.70820801 13.22285645 -35.52758789 12.82250977 C-31.29057423 11.38488166 -27.05487969 9.94340154 -22.81958008 8.50073242 C-20.98367697 7.87597588 -19.14741418 7.25227527 -17.31079102 6.62963867 C-14.67630044 5.73631397 -12.04311184 4.83924343 -9.41015625 3.94140625 C-8.58411392 3.6622084 -7.75807159 3.38301056 -6.90699768 3.09535217 C-3.16592793 2.05762217 -3.16592793 2.05762217 0 0 Z " fill="#1E1E1E" transform="translate(159,52)"/>
<path d="M0 0 C2.475 0.495 2.475 0.495 5 1 C4 4 4 4 0.9375 5.6875 C-0.031875 6.120625 -1.00125 6.55375 -2 7 C-1.34 7.66 -0.68 8.32 0 9 C-5.97332123 12.4753869 -10.11509775 13.57374185 -17 13 C-17 12.34 -17 11.68 -17 11 C-17.99 10.67 -18.98 10.34 -20 10 C-18.7625 9.67 -17.525 9.34 -16.25 9 C-15.20585938 8.7215625 -15.20585938 8.7215625 -14.140625 8.4375 C-12 8 -12 8 -8 8 C-8 7.34 -8 6.68 -8 6 C-5.69 5.34 -3.38 4.68 -1 4 C-0.67 2.68 -0.34 1.36 0 0 Z " fill="#3E413E" transform="translate(57,17)"/>
<path d="M0 0 C8.66725664 -0.29380531 8.66725664 -0.29380531 13 2 C13.66 2.66 14.32 3.32 15 4 C16.2684375 4.495 16.2684375 4.495 17.5625 5 C20 6 20 6 21 8 C21.99 8.66 22.98 9.32 24 10 C24.33 10.66 24.66 11.32 25 12 C25.99 12.66 26.98 13.32 28 14 C23.82262526 15.59138085 20.46839215 16.21278058 16 16 C16.66 14.35 17.32 12.7 18 11 C14.02305056 5.74474538 9.9105523 4.96856714 3.546875 3.7734375 C2.70640625 3.51820312 1.8659375 3.26296875 1 3 C0.67 2.01 0.34 1.02 0 0 Z " fill="#424542" transform="translate(144,4)"/>
<path d="M0 0 C2.22189824 2.22189824 2.92598892 4.08482708 4 7 C4.33 6.01 4.66 5.02 5 4 C5.99 4.33 6.98 4.66 8 5 C7.67 6.98 7.34 8.96 7 11 C12.94 11.99 12.94 11.99 19 13 C18.67 13.99 18.34 14.98 18 16 C12.34605369 16.34615998 8.96993194 15.43425238 4 13 C3.67 14.32 3.34 15.64 3 17 C3 15.35 3 13.7 3 12 C2.34 11.67 1.68 11.34 1 11 C0.5859375 8.49609375 0.5859375 8.49609375 0.375 5.4375 C0.30023437 4.42558594 0.22546875 3.41367187 0.1484375 2.37109375 C0.09945313 1.58863281 0.05046875 0.80617187 0 0 Z " fill="#2C2C2C" transform="translate(6,53)"/>
<path d="M0 0 C0.33 0.66 0.66 1.32 1 2 C0.01 2.495 0.01 2.495 -1 3 C-0.67 3.99 -0.34 4.98 0 6 C-1.65 6 -3.3 6 -5 6 C-5.33 5.34 -5.66 4.68 -6 4 C-10.04580863 7.90131547 -13.69704835 11.8183588 -16 17 C-16.33 16.34 -16.66 15.68 -17 15 C-18.32 15.99 -19.64 16.98 -21 18 C-21 13.92038884 -19.3965241 12.66923044 -16.8125 9.5625 C-16.03519531 8.61503906 -15.25789063 7.66757813 -14.45703125 6.69140625 C-9.72037566 1.50292342 -7.18779923 -0.56374896 0 0 Z " fill="#656565" transform="translate(137,6)"/>
<path d="M0 0 C1.1875 1.5625 1.1875 1.5625 2 4 C1.30077561 5.63152359 0.59015941 7.25976545 -0.1953125 8.8515625 C-1.76411404 13.04011029 -1.76753609 17.5671537 -2 22 C-2.66 22 -3.32 22 -4 22 C-3.67 24.97 -3.34 27.94 -3 31 C-3.66 31.33 -4.32 31.66 -5 32 C-7 30 -7 30 -7.1171875 26.9453125 C-6.51244175 17.40593594 -5.4398262 8.15973929 0 0 Z " fill="#0A0B0A" transform="translate(91,51)"/>
<path d="M0 0 C2 1 2 1 3 2 C7.08276326 1.59841673 11.05208447 1.15147536 15 0 C14.875 1.875 14.875 1.875 14 4 C10.9375 5.25 10.9375 5.25 8 6 C8.99 6.66 9.98 7.32 11 8 C8.39555652 8.05394705 5.79223002 8.09364469 3.1875 8.125 C2.44951172 8.14175781 1.71152344 8.15851562 0.95117188 8.17578125 C-2.91246426 8.21074628 -4.70903668 8.19397555 -8 6 C-4.375 3 -4.375 3 -1 3 C-0.67 2.01 -0.34 1.02 0 0 Z " fill="#121212" transform="translate(62,18)"/>
<path d="M0 0 C0.33 0.66 0.66 1.32 1 2 C0.67 2.66 0.34 3.32 0 4 C1.65 4 3.3 4 5 4 C5.33 4.66 5.66 5.32 6 6 C7.32 6 8.64 6 10 6 C9.67 7.65 9.34 9.3 9 11 C4.05 11 -0.9 11 -6 11 C-6 10.01 -6 9.02 -6 8 C-4.68 7.67 -3.36 7.34 -2 7 C-3.65 6.67 -5.3 6.34 -7 6 C-6.401875 5.7525 -5.80375 5.505 -5.1875 5.25 C-2.71352479 3.83629988 -1.56629745 2.34944617 0 0 Z " fill="#212121" transform="translate(75,71)"/>
<path d="M0 0 C0.99 0 1.98 0 3 0 C4.5912689 4.873261 5.21192221 8.80790596 5 14 C4.01 14.33 3.02 14.66 2 15 C-3.55580866 7.88610478 -3.55580866 7.88610478 -4 3 C-2.68 3 -1.36 3 0 3 C0 2.01 0 1.02 0 0 Z " fill="#080807" transform="translate(137,9)"/>
<path d="M0 0 C0.33 0.66 0.66 1.32 1 2 C1.99 1.67 2.98 1.34 4 1 C4 2.32 4 3.64 4 5 C5.98 5 7.96 5 10 5 C9.34 5.66 8.68 6.32 8 7 C7.01 7 6.02 7 5 7 C4.67 7.66 4.34 8.32 4 9 C3.67 7.68 3.34 6.36 3 5 C2.41992188 5.23976563 1.83984375 5.47953125 1.2421875 5.7265625 C-5.21783877 8.17838765 -5.21783877 8.17838765 -9.5625 7.1875 C-10.366875 6.795625 -11.17125 6.40375 -12 6 C-11.67 5.01 -11.34 4.02 -11 3 C-7.6875 1.875 -7.6875 1.875 -4 1 C-3.195625 0.79375 -2.39125 0.5875 -1.5625 0.375 C-0.7890625 0.189375 -0.7890625 0.189375 0 0 Z " fill="#1C1C1C" transform="translate(136,24)"/>
<path d="M0 0 C2.5654594 2.5654594 2.54046087 4.47686668 3 8 C6.88006936 8.46168789 6.88006936 8.46168789 8.5625 6.5 C9.036875 6.005 9.51125 5.51 10 5 C10.99 5 11.98 5 13 5 C12 8 12 8 9.5 9.4375 C6.84127915 10.74552024 6.84127915 10.74552024 6.1875 13.1875 C6.125625 13.785625 6.06375 14.38375 6 15 C5.01 14.67 4.02 14.34 3 14 C3 13.34 3 12.68 3 12 C1.02 12.33 -0.96 12.66 -3 13 C-3 12.01 -3 11.02 -3 10 C-1.68 10 -0.36 10 1 10 C0.195625 8.9171875 0.195625 8.9171875 -0.625 7.8125 C-2 5 -2 5 -1.1875 2.1875 C-0.5996875 1.1046875 -0.5996875 1.1046875 0 0 Z " fill="#CFCAC9" transform="translate(93,54)"/>
<path d="M0 0 C1.9453125 -0.29296875 1.9453125 -0.29296875 4.125 -0.1875 C5.40375 -0.125625 6.6825 -0.06375 8 0 C8 0.66 8 1.32 8 2 C21.365 2.495 21.365 2.495 35 3 C35.495 3.99 35.495 3.99 36 5 C23.15831479 5.21757058 10.67737613 5.24307445 -2 3 C-1.34 2.01 -0.68 1.02 0 0 Z " fill="#1A1B1A" transform="translate(33,77)"/>
<path d="M0 0 C2.4375 2.3125 2.4375 2.3125 4 5 C4 5.99 4 6.98 4 8 C3.01 8 2.02 8 1 8 C1 7.34 1 6.68 1 6 C0.34 6 -0.32 6 -1 6 C-1.33 6.99 -1.66 7.98 -2 9 C-2.66 8.67 -3.32 8.34 -4 8 C-3.67 5.69 -3.34 3.38 -3 1 C-3.66 1 -4.32 1 -5 1 C-4.67 4.3 -4.34 7.6 -4 11 C-4.99 10.67 -5.98 10.34 -7 10 C-8.125 7.0625 -8.125 7.0625 -9 4 C-9.33 3.34 -9.66 2.68 -10 2 C-6.26744552 -0.48836965 -4.41559065 -0.54226552 0 0 Z " fill="#E7E3E1" transform="translate(104,50)"/>
<path d="M0 0 C0.99773437 0.02320313 1.99546875 0.04640625 3.0234375 0.0703125 C4.52777344 0.09738281 4.52777344 0.09738281 6.0625 0.125 C6.83335938 0.14820313 7.60421875 0.17140625 8.3984375 0.1953125 C5.12261413 4.72438648 2.11737312 8.10393021 -3.30078125 9.83984375 C-7.76714061 10.52989248 -12.16404551 9.87236013 -16.6015625 9.1953125 C-16.6015625 8.8653125 -16.6015625 8.5353125 -16.6015625 8.1953125 C-11.3215625 7.5353125 -6.0415625 6.8753125 -0.6015625 6.1953125 C-0.2715625 5.2053125 0.0584375 4.2153125 0.3984375 3.1953125 C-1.2515625 2.8653125 -2.9015625 2.5353125 -4.6015625 2.1953125 C-2.6015625 0.1953125 -2.6015625 0.1953125 0 0 Z " fill="#CFD0D5" transform="translate(73.6015625,44.8046875)"/>
<path d="M0 0 C3.96 0 7.92 0 12 0 C12 0.33 12 0.66 12 1 C14.475 1.495 14.475 1.495 17 2 C16.67 3.32 16.34 4.64 16 6 C13.06167355 5.88618103 10.1248935 5.75943449 7.1875 5.625 C5.93743164 5.57859375 5.93743164 5.57859375 4.66210938 5.53125 C3.85966797 5.49257812 3.05722656 5.45390625 2.23046875 5.4140625 C1.12288208 5.36693115 1.12288208 5.36693115 -0.00708008 5.31884766 C-2 5 -2 5 -5 3 C-3.35 2.67 -1.7 2.34 0 2 C0 1.34 0 0.68 0 0 Z " fill="#0C0C0B" transform="translate(110,2)"/>
<path d="M0 0 C13.16467209 0.42604117 13.16467209 0.42604117 18 5 C18.875 7.25 18.875 7.25 19 9 C15.25 12 15.25 12 13 12 C13 10.68 13 9.36 13 8 C11.54166642 6.37485532 11.54166642 6.37485532 10 5 C10 4.34 10 3.68 10 3 C6.7 2.67 3.4 2.34 0 2 C0 1.34 0 0.68 0 0 Z " fill="#242424" transform="translate(143,7)"/>
<path d="M0 0 C0.495 0.28875 0.99 0.5775 1.5 0.875 C4.91752035 2.41288416 8.3506202 3.14847805 12 4 C12 4.33 12 4.66 12 5 C5.46313616 5.98831156 -0.89577115 6.11883529 -7.5 6.0625 C-8.51320313 6.05798828 -9.52640625 6.05347656 -10.5703125 6.04882812 C-13.04693827 6.03714593 -15.52343657 6.02076582 -18 6 C-18 5.67 -18 5.34 -18 5 C-11.93184478 3.77100654 -6.20104812 2.72439786 0 3 C0 2.01 0 1.02 0 0 Z " fill="#464646" transform="translate(65,74)"/>
<path d="M0 0 C1.34354136 0.98624256 2.67844305 1.98448782 4 3 C1.87562788 3.19448477 -0.24953191 3.38038289 -2.375 3.5625 C-3.55835938 3.66691406 -4.74171875 3.77132812 -5.9609375 3.87890625 C-9 4 -9 4 -11 3 C-11 2.34 -11 1.68 -11 1 C-13.97 0.505 -13.97 0.505 -17 0 C-17 -0.33 -17 -0.66 -17 -1 C-11.05415638 -2.44141663 -5.55110614 -2.85056802 0 0 Z " fill="#141413" transform="translate(32,53)"/>
<path d="M0 0 C0.66 0 1.32 0 2 0 C2.391875 0.495 2.78375 0.99 3.1875 1.5 C5.96010717 3.79457145 8.5318126 3.19631249 12 3 C12.33 3.66 12.66 4.32 13 5 C11.35 5.66 9.7 6.32 8 7 C8.99 7.66 9.98 8.32 11 9 C9.02 9 7.04 9 5 9 C4.67 8.01 4.34 7.02 4 6 C3.34 6 2.68 6 2 6 C2 5.34 2 4.68 2 4 C-1.63 4 -5.26 4 -9 4 C-9 3.34 -9 2.68 -9 2 C-3.375 0.875 -3.375 0.875 0 2 C0 1.34 0 0.68 0 0 Z " fill="#323232" transform="translate(135,20)"/>
<path d="M0 0 C-0.33 0.66 -0.66 1.32 -1 2 C-0.34 2.33 0.32 2.66 1 3 C1 2.34 1 1.68 1 1 C2.8125 1.1875 2.8125 1.1875 5 2 C8 6.17857143 8 6.17857143 8 9 C7.34 9 6.68 9 6 9 C5.608125 8.34 5.21625 7.68 4.8125 7 C3.05479009 4.6060442 3.05479009 4.6060442 -0.5 4.6875 C-3.96935792 4.86167123 -3.96935792 4.86167123 -7 6 C-7 6.66 -7 7.32 -7 8 C-7.66 8 -8.32 8 -9 8 C-9.22223194 5.25913944 -9.34781139 3.56036279 -7.875 1.1875 C-5.22464043 -0.49106106 -3.06753576 -0.20450238 0 0 Z " fill="#181818" transform="translate(101,46)"/>
<path d="M0 0 C0 1.32 0 2.64 0 4 C-1 5 -1 5 -3.94140625 5.09765625 C-5.73384766 5.08025391 -5.73384766 5.08025391 -7.5625 5.0625 C-9.35880859 5.04896484 -9.35880859 5.04896484 -11.19140625 5.03515625 C-12.11824219 5.02355469 -13.04507813 5.01195312 -14 5 C-13 2 -13 2 -10.9375 0.8125 C-7.14524878 -0.23642055 -3.92937998 -0.13319932 0 0 Z " fill="#3C3C3C" transform="translate(110,21)"/>
<path d="M0 0 C6.15234375 0.5859375 6.15234375 0.5859375 8 1 C8.33 1.66 8.66 2.32 9 3 C8.01 3.33 7.02 3.66 6 4 C7.32 4.33 8.64 4.66 10 5 C10.33 6.32 10.66 7.64 11 9 C14.3 9.66 17.6 10.32 21 11 C21 11.33 21 11.66 21 12 C15.08739655 12.25706972 9.76081841 11.2982126 4 10 C4 9.67 4 9.34 4 9 C5.65 8.67 7.3 8.34 9 8 C9 7.34 9 6.68 9 6 C7.081875 5.814375 7.081875 5.814375 5.125 5.625 C1.25 5.25 1.25 5.25 -1 3 C-0.67 2.01 -0.34 1.02 0 0 Z " fill="#2C2C2D" transform="translate(11,49)"/>
<path d="M0 0 C0.33 0.66 0.66 1.32 1 2 C1.763125 2 2.52625 2 3.3125 2 C5.20833333 2 7.10416667 2 9 2 C8 4 8 4 6.1875 4.875 C3.61179002 6.19965085 1.96545196 7.89415861 0 10 C-0.33 9.01 -0.66 8.02 -1 7 C-2.65 7 -4.3 7 -6 7 C-4.02 4.69 -2.04 2.38 0 0 Z " fill="#3B3B3B" transform="translate(81,46)"/>
<path d="M0 0 C0.66 0.33 1.32 0.66 2 1 C2 1.66 2 2.32 2 3 C3.32 3.33 4.64 3.66 6 4 C3.54953627 7.13659357 2.47006326 7.94227293 -1.5625 8.4375 C-5 8 -5 8 -6.9375 6.5 C-7.4634375 5.7575 -7.4634375 5.7575 -8 5 C-6.74458443 2.48916886 -5.49936512 2.12874554 -3 1 C-3 2.65 -3 4.3 -3 6 C-2.01 6 -1.02 6 0 6 C0 4.02 0 2.04 0 0 Z " fill="#D9D7D6" transform="translate(99,74)"/>
<path d="M0 0 C1.32 0.66 2.64 1.32 4 2 C3.01 3.485 3.01 3.485 2 5 C1.34 5 0.68 5 0 5 C-0.268125 5.598125 -0.53625 6.19625 -0.8125 6.8125 C-1.98493467 8.97224808 -3.19369282 10.35790256 -5 12 C-5 11.01 -5 10.02 -5 9 C-5.99 8.67 -6.98 8.34 -8 8 C-5.6 3.2 -5.6 3.2 -2 2 C-1.34 1.34 -0.68 0.68 0 0 Z " fill="#474E49" transform="translate(18,32)"/>
<path d="M0 0 C1.98567708 0.26041667 3.97135417 0.52083333 5.95703125 0.78125 C8.15471706 1.053233 8.15471706 1.053233 11 1 C12.66666667 1 14.33333333 1 16 1 C16.33 1.66 16.66 2.32 17 3 C3.3667426 6.81321185 3.3667426 6.81321185 -3 4 C-2.01 3.34 -1.02 2.68 0 2 C0 1.34 0 0.68 0 0 Z " fill="#2F2F2F" transform="translate(33,53)"/>
<path d="M0 0 C0 3 0 3 -2 5.1875 C-2.66 5.785625 -3.32 6.38375 -4 7 C-3.67 7.66 -3.34 8.32 -3 9 C-7.29 9.66 -11.58 10.32 -16 11 C-15.67 10.01 -15.34 9.02 -15 8 C-14.01 7.67 -13.02 7.34 -12 7 C-10.1116811 6.0253838 -8.23789203 5.02237874 -6.375 4 C-4.90160156 3.195625 -4.90160156 3.195625 -3.3984375 2.375 C-1.12133096 1.20858579 -1.12133096 1.20858579 0 0 Z " fill="#969494" transform="translate(162,15)"/>
<path d="M0 0 C0.33 0.66 0.66 1.32 1 2 C0.67 2.66 0.34 3.32 0 4 C-3.56045177 5.18681726 -6.43808337 5.09689832 -10.1875 5.0625 C-11.45980469 5.05347656 -12.73210938 5.04445313 -14.04296875 5.03515625 C-15.50669922 5.01775391 -15.50669922 5.01775391 -17 5 C-17 4.67 -17 4.34 -17 4 C-14.36 3.67 -11.72 3.34 -9 3 C-11.31 3 -13.62 3 -16 3 C-10.85913339 -0.42724441 -5.99202204 -0.1015597 0 0 Z " fill="#050504" transform="translate(66,69)"/>
<path d="M0 0 C0.33 1.32 0.66 2.64 1 4 C-5.625 7 -5.625 7 -9 7 C-9 7.99 -9 8.98 -9 10 C-9.66 9.67 -10.32 9.34 -11 9 C-10.34 7.68 -9.68 6.36 -9 5 C-7.68 5 -6.36 5 -5 5 C-5 4.34 -5 3.68 -5 3 C-6.98 3.33 -8.96 3.66 -11 4 C-11.33 3.34 -11.66 2.68 -12 2 C-10.33333333 1.66666667 -8.66666667 1.33333333 -7 1 C-6.113125 0.814375 -5.22625 0.62875 -4.3125 0.4375 C-2 0 -2 0 0 0 Z " fill="#323231" transform="translate(139,29)"/>
<path d="M0 0 C0 0.99 0 1.98 0 3 C-2.40545638 4.20272819 -3.94996953 4.10071472 -6.625 4.0625 C-7.85089844 4.04896484 -7.85089844 4.04896484 -9.1015625 4.03515625 C-10.04128906 4.01775391 -10.04128906 4.01775391 -11 4 C-11 3.34 -11 2.68 -11 2 C-11.99 1.67 -12.98 1.34 -14 1 C-8.83955235 -0.512545 -5.34001821 -1.33500455 0 0 Z " fill="#444644" transform="translate(51,26)"/>
<path d="M0 0 C0.99 0.33 1.98 0.66 3 1 C2.01 1.495 2.01 1.495 1 2 C1.33 2.66 1.66 3.32 2 4 C0.63875 4.8353125 0.63875 4.8353125 -0.75 5.6875 C-3.84453391 7.8893799 -5.79281468 9.94389725 -8 13 C-8 12.34 -8 11.68 -8 11 C-8.99 10.67 -9.98 10.34 -11 10 C-10.01 9.67 -9.02 9.34 -8 9 C-6.90833725 7.06669397 -6.90833725 7.06669397 -6 5 C-5.34 4.34 -4.68 3.68 -4 3 C-3.01 3 -2.02 3 -1 3 C-0.67 2.01 -0.34 1.02 0 0 Z " fill="#2E2E2E" transform="translate(97,41)"/>
<path d="M0 0 C0.33 0.99 0.66 1.98 1 3 C2.98 3 4.96 3 7 3 C7 3.99 7 4.98 7 6 C5.02 6.33 3.04 6.66 1 7 C0.67 8.65 0.34 10.3 0 12 C-1.65 12.33 -3.3 12.66 -5 13 C-4.34 12.21625 -3.68 11.4325 -3 10.625 C-0.79798559 8.28487188 -0.79798559 8.28487188 -1 6 C-0.34 6 0.32 6 1 6 C1 5.34 1 4.68 1 4 C-0.32 3.67 -1.64 3.34 -3 3 C-2.01 2.67 -1.02 2.34 0 2 C0 1.34 0 0.68 0 0 Z " fill="#545454" transform="translate(145,24)"/>
<path d="M0 0 C1.32 0 2.64 0 4 0 C4.33 1.32 4.66 2.64 5 4 C-0.28 4.66 -5.56 5.32 -11 6 C-11 5.34 -11 4.68 -11 4 C-9.68 4 -8.36 4 -7 4 C-7 3.01 -7 2.02 -7 1 C-5.33388095 0.957279 -3.66617115 0.95936168 -2 1 C-1.67 1.33 -1.34 1.66 -1 2 C-0.67 1.34 -0.34 0.68 0 0 Z " fill="#595A61" transform="translate(65,48)"/>
<path d="M0 0 C1.32 0.66 2.64 1.32 4 2 C4 2.99 4 3.98 4 5 C2.68 5 1.36 5 0 5 C0 5.99 0 6.98 0 8 C1.32 8 2.64 8 4 8 C2.6975667 10.90542812 1.29113732 12.8092961 -1 15 C-1.02703381 13.06257659 -1.04641125 11.12504521 -1.0625 9.1875 C-1.07410156 8.10855469 -1.08570312 7.02960938 -1.09765625 5.91796875 C-1 3 -1 3 0 0 Z " fill="#5F5C5A" transform="translate(90,59)"/>
<path d="M0 0 C0.33 0 0.66 0 1 0 C1.34804151 6.4065419 1.3385357 11.39602937 -2 17 C-4.1875 17.9375 -4.1875 17.9375 -6 18 C-5.505 16.515 -5.505 16.515 -5 15 C-4.34 15.33 -3.68 15.66 -3 16 C-3.33 13.69 -3.66 11.38 -4 9 C-2.68 9 -1.36 9 0 9 C0 6.03 0 3.06 0 0 Z " fill="#8E8C8C" transform="translate(175,39)"/>
<path d="M0 0 C0.66 0 1.32 0 2 0 C2.22424141 7.36259293 1.90120099 13.87049629 0 21 C-0.33 21 -0.66 21 -1 21 C-1.02895976 17.87501937 -1.04678483 14.7500731 -1.0625 11.625 C-1.07087891 10.73554687 -1.07925781 9.84609375 -1.08789062 8.9296875 C-1.09111328 8.07890625 -1.09433594 7.228125 -1.09765625 6.3515625 C-1.10289307 5.56604004 -1.10812988 4.78051758 -1.11352539 3.97119141 C-1 2 -1 2 0 0 Z " fill="#424342" transform="translate(177,27)"/>
<path d="M0 0 C1.32 0.33 2.64 0.66 4 1 C3.67 1.66 3.34 2.32 3 3 C3.66 3.33 4.32 3.66 5 4 C4.34 4 3.68 4 3 4 C2.67 4.99 2.34 5.98 2 7 C0.4375 8.6875 0.4375 8.6875 -1 10 C-3 7 -3 7 -2.625 4.3125 C-2.41875 3.549375 -2.2125 2.78625 -2 2 C-1.34 2 -0.68 2 0 2 C0 1.34 0 0.68 0 0 Z " fill="#1E1E1E" transform="translate(161,25)"/>
<path d="M0 0 C5.61 0.66 11.22 1.32 17 2 C17 2.33 17 2.66 17 3 C12.38 3.66 7.76 4.32 3 5 C3 4.34 3 3.68 3 3 C2.01 3 1.02 3 0 3 C0 2.01 0 1.02 0 0 Z " fill="#4B4B4B" transform="translate(47,66)"/>
<path d="M0 0 C0.33 1.65 0.66 3.3 1 5 C-1.31 5.33 -3.62 5.66 -6 6 C-6 5.34 -6 4.68 -6 4 C-8.31 4.33 -10.62 4.66 -13 5 C-12.67 4.34 -12.34 3.68 -12 3 C-9.66842508 2.65458149 -7.33491639 2.32205743 -5 2 C-2 0 -2 0 0 0 Z " fill="#2C2C2B" transform="translate(123,34)"/>
<path d="M0 0 C0.33 0.66 0.66 1.32 1 2 C0.01 2.495 0.01 2.495 -1 3 C-0.67 3.99 -0.34 4.98 0 6 C-1.65 6 -3.3 6 -5 6 C-5.33 5.34 -5.66 4.68 -6 4 C-7.32 4.33 -8.64 4.66 -10 5 C-10 4.01 -10 3.02 -10 2 C-6.3558226 -0.4294516 -4.28758728 -0.16179575 0 0 Z " fill="#626262" transform="translate(137,6)"/>
<path d="M0 0 C8.66725664 -0.29380531 8.66725664 -0.29380531 13 2 C13.66 2.66 14.32 3.32 15 4 C15.66 4.33 16.32 4.66 17 5 C16.34 5.66 15.68 6.32 15 7 C14.44828125 6.69320313 13.8965625 6.38640625 13.328125 6.0703125 C10.79459879 4.90557059 8.48828238 4.37942044 5.75 3.875 C4.85796875 3.70742187 3.9659375 3.53984375 3.046875 3.3671875 C2.37140625 3.24601563 1.6959375 3.12484375 1 3 C0.67 2.01 0.34 1.02 0 0 Z " fill="#6F7373" transform="translate(144,4)"/>
<path d="M0 0 C0.33 0 0.66 0 1 0 C1 3.3 1 6.6 1 10 C-0.32 10 -1.64 10 -3 10 C-3.28875 10.78375 -3.5775 11.5675 -3.875 12.375 C-5 15 -5 15 -7 17 C-7 14.36 -7 11.72 -7 9 C-3.86650268 7.95550089 -3.01031744 8.06576355 0 9 C0 8.34 0 7.68 0 7 C-0.99 6.67 -1.98 6.34 -3 6 C-2.34 5.34 -1.68 4.68 -1 4 C-0.3574765 1.93125966 -0.3574765 1.93125966 0 0 Z " fill="#D4D1D1" transform="translate(174,38)"/>
<path d="M0 0 C-0.75 2.4375 -0.75 2.4375 -2 5 C-3.9375 5.9375 -3.9375 5.9375 -6 6 C-6.99 5.34 -7.98 4.68 -9 4 C-9 3.01 -9 2.02 -9 1 C-5.92677456 0.08941469 -3.19902639 -0.08886184 0 0 Z " fill="#7A7776" transform="translate(75,70)"/>
<path d="M0 0 C7.4057508 -0.36421725 7.4057508 -0.36421725 9.9375 1.1875 C11.24912987 3.42498625 11.65447612 5.44312331 12 8 C10.1875 7.8125 10.1875 7.8125 8 7 C6.25 4.4375 6.25 4.4375 5 2 C3.68 2.33 2.36 2.66 1 3 C0.67 2.01 0.34 1.02 0 0 Z " fill="#515151" transform="translate(143,9)"/>
<path d="M0 0 C0.99 0 1.98 0 3 0 C3 1.65 3 3.3 3 5 C3.969375 5.28875 4.93875 5.5775 5.9375 5.875 C9 7 9 7 10 9 C8.3125 9.75 8.3125 9.75 6 10 C3.3125 8.4375 3.3125 8.4375 1 6 C0.1875 2.75 0.1875 2.75 0 0 Z " fill="#272727" transform="translate(6,65)"/>
<path d="M0 0 C2.375 -0.1875 2.375 -0.1875 5 0 C7 3 7 3 7 6 C6.01 6 5.02 6 4 6 C4 5.34 4 4.68 4 4 C3.34 4 2.68 4 2 4 C1.67 4.99 1.34 5.98 1 7 C0.34 6.67 -0.32 6.34 -1 6 C-0.67 4.02 -0.34 2.04 0 0 Z " fill="#CAC7C6" transform="translate(101,52)"/>
<path d="M0 0 C0.66 0.99 1.32 1.98 2 3 C1.67 3.99 1.34 4.98 1 6 C1.66 6 2.32 6 3 6 C3 5.34 3 4.68 3 4 C6 5 6 5 8 6 C8 6.66 8 7.32 8 8 C5.69 8 3.38 8 1 8 C1.33 9.65 1.66 11.3 2 13 C1.34 13 0.68 13 0 13 C-0.19466332 11.20909747 -0.38051213 9.41723495 -0.5625 7.625 C-0.66691406 6.62726562 -0.77132812 5.62953125 -0.87890625 4.6015625 C-1 2 -1 2 0 0 Z " fill="#565453" transform="translate(166,39)"/>
<path d="M0 0 C-0.33 1.32 -0.66 2.64 -1 4 C-5.67201205 5.20568053 -10.21496292 5.09382426 -15 5 C-13.40473173 3.12968547 -12.45148085 2.10907062 -10.02734375 1.5234375 C-9.33769531 1.47445313 -8.64804688 1.42546875 -7.9375 1.375 C-4.99444772 1.09470931 -2.79782433 0 0 0 Z " fill="#080808" transform="translate(77,18)"/>
<path d="M0 0 C2 3 2 3 2 5 C1.34 5 0.68 5 0 5 C-0.33 5.66 -0.66 6.32 -1 7 C2.16115776 5.63016497 2.9927092 5.0109362 5 2 C4.25 6.75 4.25 6.75 2 9 C-0.625 9.125 -0.625 9.125 -3 9 C-3.33 7.68 -3.66 6.36 -4 5 C-3.34 5 -2.68 5 -2 5 C-1.34 3.35 -0.68 1.7 0 0 Z " fill="#414040" transform="translate(170,50)"/>
<path d="M0 0 C-0.33 2.31 -0.66 4.62 -1 7 C-1.78375 6.649375 -2.5675 6.29875 -3.375 5.9375 C-4.24125 5.628125 -5.1075 5.31875 -6 5 C-6.99 5.495 -6.99 5.495 -8 6 C-8 4.68 -8 3.36 -8 2 C-2.25 0 -2.25 0 0 0 Z " fill="#1B1B1B" transform="translate(154,29)"/>
<path d="M0 0 C0.33 0.66 0.66 1.32 1 2 C0.67 2.66 0.34 3.32 0 4 C1.65 4 3.3 4 5 4 C5.33 4.66 5.66 5.32 6 6 C5.34 6 4.68 6 4 6 C4 6.66 4 7.32 4 8 C0.37 7.34 -3.26 6.68 -7 6 C-5.68 5.34 -4.36 4.68 -3 4 C-1.26574227 1.96682993 -1.26574227 1.96682993 0 0 Z " fill="#323232" transform="translate(75,71)"/>
<path d="M0 0 C-0.99 1.485 -0.99 1.485 -2 3 C-5.625 3.1875 -5.625 3.1875 -9 3 C-9 3.66 -9 4.32 -9 5 C-12.3 5 -15.6 5 -19 5 C-19 4.67 -19 4.34 -19 4 C-17.35 3.67 -15.7 3.34 -14 3 C-14 2.67 -14 2.34 -14 2 C-4.58997722 -0.29612756 -4.58997722 -0.29612756 0 0 Z " fill="#3B3A3A" transform="translate(84,22)"/>
<path d="M0 0 C0.99 0.66 1.98 1.32 3 2 C1.52307692 6.67692308 1.52307692 6.67692308 -1.125 8.3125 C-2.053125 8.6528125 -2.053125 8.6528125 -3 9 C-3.144375 8.38125 -3.28875 7.7625 -3.4375 7.125 C-3.93152225 4.96741678 -3.93152225 4.96741678 -5 3 C-3.35 2.01 -1.7 1.02 0 0 Z " fill="#2A3631" transform="translate(66,13)"/>
<path d="M0 0 C4.62 0 9.24 0 14 0 C14 0.33 14 0.66 14 1 C12.35 1 10.7 1 9 1 C9 1.66 9 2.32 9 3 C5.04 3 1.08 3 -3 3 C-2.01 2.67 -1.02 2.34 0 2 C0 1.34 0 0.68 0 0 Z " fill="#0B0B0A" transform="translate(94,3)"/>
<path d="M0 0 C1 2 1 2 0.5625 5 C-1 8 -1 8 -2.91796875 8.8359375 C-4.92316531 9.32570232 -6.96219398 9.67132161 -9 10 C-8 7 -8 7 -5.4375 5.5 C-4.633125 5.005 -3.82875 4.51 -3 4 C-3 3.01 -3 2.02 -3 1 C-2.01 0.67 -1.02 0.34 0 0 Z " fill="#8C8280" transform="translate(108,57)"/>
<path d="M0 0 C2.09782787 2.09782787 2.6509396 3.3799207 3.625 6.125 C4.01558594 7.21167969 4.01558594 7.21167969 4.4140625 8.3203125 C4.70410156 9.15175781 4.70410156 9.15175781 5 10 C4.67 10.33 4.34 10.66 4 11 C4.66 11.66 5.32 12.32 6 13 C5.34 13 4.68 13 4 13 C3.67 14.32 3.34 15.64 3 17 C3 15.35 3 13.7 3 12 C2.34 11.67 1.68 11.34 1 11 C0.5859375 8.49609375 0.5859375 8.49609375 0.375 5.4375 C0.30023437 4.42558594 0.22546875 3.41367187 0.1484375 2.37109375 C0.09945313 1.58863281 0.05046875 0.80617187 0 0 Z " fill="#848483" transform="translate(6,53)"/>
<path d="M0 0 C1.51400391 0.01740234 1.51400391 0.01740234 3.05859375 0.03515625 C4.07050781 0.04417969 5.08242187 0.05320313 6.125 0.0625 C7.29869141 0.07990234 7.29869141 0.07990234 8.49609375 0.09765625 C7.50609375 1.58265625 7.50609375 1.58265625 6.49609375 3.09765625 C5.83609375 2.76765625 5.17609375 2.43765625 4.49609375 2.09765625 C4.27953125 3.52078125 4.27953125 3.52078125 4.05859375 4.97265625 C3.49609375 8.09765625 3.49609375 8.09765625 2.49609375 10.09765625 C2.06296875 8.98390625 1.62984375 7.87015625 1.18359375 6.72265625 C-0.20301744 2.92253291 -0.20301744 2.92253291 -3.50390625 1.09765625 C-2.50390625 0.09765625 -2.50390625 0.09765625 0 0 Z " fill="#454444" transform="translate(108.50390625,37.90234375)"/>
<path d="M0 0 C0.66 0.66 1.32 1.32 2 2 C1.01 2.33 0.02 2.66 -1 3 C-1.33 3.66 -1.66 4.32 -2 5 C-2.33 4.34 -2.66 3.68 -3 3 C-3.94875 3.04125 -4.8975 3.0825 -5.875 3.125 C-9 3 -9 3 -11 1 C-6.91543861 -0.6148266 -4.23493122 -1.41164374 0 0 Z " fill="#373737" transform="translate(144,4)"/>
<path d="M0 0 C2.86724686 0.57344937 3.8614515 0.8614515 6 3 C6.125 6.625 6.125 6.625 6 10 C4.5 8.75 4.5 8.75 3 7 C3 5.68 3 4.36 3 3 C1.35 3 -0.3 3 -2 3 C-1.34 2.01 -0.68 1.02 0 0 Z " fill="#0A0A09" transform="translate(171,30)"/>
<path d="M0 0 C0.66 0 1.32 0 2 0 C2.33 3.63 2.66 7.26 3 11 C2.01 11 1.02 11 0 11 C-1.28571429 3.57142857 -1.28571429 3.57142857 0 0 Z " fill="#2E302F" transform="translate(7,44)"/>
<path d="M0 0 C0.33 0 0.66 0 1 0 C1 2.97 1 5.94 1 9 C-1.97 8.67 -4.94 8.34 -8 8 C-7.67 7.34 -7.34 6.68 -7 6 C-3.9375 5.375 -3.9375 5.375 -1 5 C-0.67 3.35 -0.34 1.7 0 0 Z " fill="#E1E0DF" transform="translate(108,59)"/>
<path d="M0 0 C0.99 0 1.98 0 3 0 C2 3 2 3 -0.5 4.4375 C-3.15872085 5.74552024 -3.15872085 5.74552024 -3.8125 8.1875 C-3.9053125 9.0846875 -3.9053125 9.0846875 -4 10 C-4.66 9.67 -5.32 9.34 -6 9 C-6 7.02 -6 5.04 -6 3 C-5.01 3 -4.02 3 -3 3 C-2.505 2.505 -2.01 2.01 -1.5 1.5 C-1.005 1.005 -0.51 0.51 0 0 Z " fill="#F0EDEC" transform="translate(103,59)"/>
<path d="M0 0 C0.66 0 1.32 0 2 0 C0.56854369 5.01009707 -1.82951522 7.10619424 -6 10 C-6.99 9.67 -7.98 9.34 -9 9 C-9.33 8.34 -9.66 7.68 -10 7 C-8.906875 6.773125 -7.81375 6.54625 -6.6875 6.3125 C-2.49672376 4.82086778 -1.91792322 3.83584643 0 0 Z " fill="#363636" transform="translate(106,75)"/>
<path d="M0 0 C0.7425 0.433125 0.7425 0.433125 1.5 0.875 C4.91752035 2.41288416 8.3506202 3.14847805 12 4 C12 4.33 12 4.66 12 5 C10.39620659 5.05416188 8.79188594 5.09286638 7.1875 5.125 C6.29417969 5.14820312 5.40085937 5.17140625 4.48046875 5.1953125 C2 5 2 5 -1 3 C-0.67 2.01 -0.34 1.02 0 0 Z " fill="#5B5A5A" transform="translate(65,74)"/>
<path d="M0 0 C0.66 0 1.32 0 2 0 C1.67 1.32 1.34 2.64 1 4 C-2.3 4 -5.6 4 -9 4 C-9 3.34 -9 2.68 -9 2 C-3.375 0.875 -3.375 0.875 0 2 C0 1.34 0 0.68 0 0 Z " fill="#3D3D3D" transform="translate(135,20)"/>
<path d="M0 0 C-4.65042684 2.32521342 -7.31077871 3.11460021 -12.625 3.0625 C-13.81351562 3.05347656 -15.00203125 3.04445313 -16.2265625 3.03515625 C-17.14179687 3.02355469 -18.05703125 3.01195312 -19 3 C-19 2.67 -19 2.34 -19 2 C-12.6221448 0.82706111 -6.49678438 -0.29530838 0 0 Z " fill="#555555" transform="translate(83,21)"/>
<path d="M0 0 C3.96 0 7.92 0 12 0 C11.67 1.32 11.34 2.64 11 4 C7.04 3.67 3.08 3.34 -1 3 C-0.67 2.01 -0.34 1.02 0 0 Z " fill="#060606" transform="translate(115,4)"/>
<path d="M0 0 C0.99 0.33 1.98 0.66 3 1 C2.67 1.99 2.34 2.98 2 4 C3.32 4.33 4.64 4.66 6 5 C4.741875 5.04125 3.48375 5.0825 2.1875 5.125 C1.47980469 5.14820313 0.77210937 5.17140625 0.04296875 5.1953125 C-2 5 -2 5 -5 3 C-2.6875 1.4375 -2.6875 1.4375 0 0 Z " fill="#CFD0D4" transform="translate(51,50)"/>
<path d="M0 0 C0.66 0 1.32 0 2 0 C1.649375 1.11375 1.29875 2.2275 0.9375 3.375 C-0.37239331 6.80264476 -0.37239331 6.80264476 1 9 C-0.65 9 -2.3 9 -4 9 C-4 8.34 -4 7.68 -4 7 C-3.34 7 -2.68 7 -2 7 C-2.33 6.01 -2.66 5.02 -3 4 C-1.6875 1.8125 -1.6875 1.8125 0 0 Z " fill="#434343" transform="translate(118,21)"/>
<path d="M0 0 C2.2344598 4.03292745 2.54496743 7.44967434 3 12 C2.01 12.495 2.01 12.495 1 13 C0.34 12.34 -0.32 11.68 -1 11 C-0.9765625 8.3984375 -0.9765625 8.3984375 -0.625 5.375 C-0.51414062 4.37210937 -0.40328125 3.36921875 -0.2890625 2.3359375 C-0.19367188 1.56507812 -0.09828125 0.79421875 0 0 Z " fill="#0B0B0B" transform="translate(85,70)"/>
<path d="M0 0 C1.85776765 3.13498292 2.20140476 5.37471432 2 9 C1.01 9.33 0.02 9.66 -1 10 C-1.9765625 3.9453125 -1.9765625 3.9453125 -2 2 C-1.34 1.34 -0.68 0.68 0 0 Z " fill="#161616" transform="translate(87,64)"/>
<path d="M0 0 C1.8125 0.1875 1.8125 0.1875 4 1 C7 5.17857143 7 5.17857143 7 8 C6.34 8 5.68 8 5 8 C4.566875 7.360625 4.13375 6.72125 3.6875 6.0625 C1.59150148 3.50072404 0.21700528 3.34778436 -3 3 C-2.01 2.67 -1.02 2.34 0 2 C0 1.34 0 0.68 0 0 Z " fill="#2C2C2C" transform="translate(102,47)"/>
<path d="M0 0 C2.76223278 2.76223278 2.57856291 5.20706617 3 9 C1 9 1 9 -0.75 7.3125 C-2 5 -2 5 -1.1875 2.25 C-0.795625 1.5075 -0.40375 0.765 0 0 Z " fill="#EAE5E4" transform="translate(93,54)"/>
<path d="M0 0 C1.125 3.75 1.125 3.75 0 6 C1.65 6 3.3 6 5 6 C5 6.33 5 6.66 5 7 C-0.53846154 7.36923077 -0.53846154 7.36923077 -2.875 5.5 C-3.24625 5.005 -3.6175 4.51 -4 4 C-3 2 -3 2 0 0 Z " fill="#E5E3E3" transform="translate(95,75)"/>
<path d="M0 0 C2.3431213 0.25561323 4.67843403 0.59270772 7 1 C7.33 1.66 7.66 2.32 8 3 C4.7 3.66 1.4 4.32 -2 5 C-1.34 3.35 -0.68 1.7 0 0 Z " fill="#3C3C3C" transform="translate(42,53)"/>
<path d="M0 0 C3.63 0 7.26 0 11 0 C7.32326162 1.83836919 3.95007553 2.93651813 0 4 C0 2.68 0 1.36 0 0 Z " fill="#0A090A" transform="translate(128,3)"/>
<path d="M0 0 C-0.875 4.75 -0.875 4.75 -2 7 C-2.66 7 -3.32 7 -4 7 C-4.33 5.02 -4.66 3.04 -5 1 C-3 0 -3 0 0 0 Z " fill="#B1B1B7" transform="translate(13,41)"/>
<path d="M0 0 C1.9375 0.375 1.9375 0.375 4 1 C4.33 1.66 4.66 2.32 5 3 C4.0625 5.625 4.0625 5.625 3 8 C2.731875 7.360625 2.46375 6.72125 2.1875 6.0625 C1.11332248 3.66868314 1.11332248 3.66868314 -2 3 C-1.34 2.01 -0.68 1.02 0 0 Z " fill="#A1A0A0" transform="translate(170,35)"/>
<path d="M0 0 C0.99 0 1.98 0 3 0 C3.33 0.99 3.66 1.98 4 3 C2.71034824 4.37562854 1.37310707 5.70766393 0 7 C-0.66 7 -1.32 7 -2 7 C-1.125 1.125 -1.125 1.125 0 0 Z " fill="#313132" transform="translate(95,15)"/>
<path d="M0 0 C0.33 0.66 0.66 1.32 1 2 C4.02934491 2.65772428 4.02934491 2.65772428 7 3 C7 3.33 7 3.66 7 4 C5.54364629 4.22174933 4.08477044 4.42698698 2.625 4.625 C1.81289063 4.74101563 1.00078125 4.85703125 0.1640625 4.9765625 C-0.55007812 4.98429687 -1.26421875 4.99203125 -2 5 C-2.66 4.34 -3.32 3.68 -4 3 C-3.01 2.67 -2.02 2.34 -1 2 C-0.67 1.34 -0.34 0.68 0 0 Z " fill="#363636" transform="translate(45,75)"/>
<path d="M0 0 C1.32 0 2.64 0 4 0 C3.8125 1.875 3.8125 1.875 3 4 C0.4375 5.25 0.4375 5.25 -2 6 C-2.33 5.34 -2.66 4.68 -3 4 C-2.34 4 -1.68 4 -1 4 C-0.67 2.68 -0.34 1.36 0 0 Z " fill="#222222" transform="translate(100,14)"/>
<path d="M0 0 C1.9453125 -0.29296875 1.9453125 -0.29296875 4.125 -0.1875 C5.40375 -0.125625 6.6825 -0.06375 8 0 C7.67 0.99 7.34 1.98 7 3 C4.03 3 1.06 3 -2 3 C-1.34 2.01 -0.68 1.02 0 0 Z " fill="#212221" transform="translate(33,77)"/>
<path d="M0 0 C1.32 0.66 2.64 1.32 4 2 C4 2.99 4 3.98 4 5 C2.35 5.33 0.7 5.66 -1 6 C-0.67 4.02 -0.34 2.04 0 0 Z " fill="#414040" transform="translate(90,59)"/>
<path d="M0 0 C1.125 1.75 1.125 1.75 2 4 C1.125 6.25 1.125 6.25 0 8 C-0.66 8 -1.32 8 -2 8 C-2.33 7.01 -2.66 6.02 -3 5 C-1.5625 2.3125 -1.5625 2.3125 0 0 Z " fill="#111111" transform="translate(91,51)"/>
<path d="M0 0 C0.99 0.33 1.98 0.66 3 1 C2.67 2.98 2.34 4.96 2 7 C1.01 7 0.02 7 -1 7 C-1.04254356 5.00045254 -1.04080783 2.99958364 -1 1 C-0.67 0.67 -0.34 0.34 0 0 Z " fill="#393939" transform="translate(155,28)"/>
<path d="M0 0 C0.33 1.32 0.66 2.64 1 4 C-0.65 4.33 -2.3 4.66 -4 5 C-4.33 4.01 -4.66 3.02 -5 2 C-3.35 1.34 -1.7 0.68 0 0 Z " fill="#303030" transform="translate(84,77)"/>
<path d="M0 0 C0.99 0.33 1.98 0.66 3 1 C2.67 2.65 2.34 4.3 2 6 C0.68 6.33 -0.64 6.66 -2 7 C-1.67 6.01 -1.34 5.02 -1 4 C-0.34 4.33 0.32 4.66 1 5 C0.67 3.35 0.34 1.7 0 0 Z " fill="#D2D0D0" transform="translate(171,50)"/>
<path d="M0 0 C1.32 0 2.64 0 4 0 C4.33 1.32 4.66 2.64 5 4 C2.69 4 0.38 4 -2 4 C-1.34 2.68 -0.68 1.36 0 0 Z " fill="#35363F" transform="translate(65,48)"/>
<path d="M0 0 C2.475 0.495 2.475 0.495 5 1 C4.34 2.32 3.68 3.64 3 5 C2.34 5 1.68 5 1 5 C0.67 3.35 0.34 1.7 0 0 Z " fill="#353535" transform="translate(106,21)"/>
<path d="M0 0 C-2.52788007 2.79872437 -4.20411134 4.45773019 -8 5 C-8 4.01 -8 3.02 -8 2 C-4.77208445 -0.1519437 -3.71599191 -0.20086443 0 0 Z " fill="#565656" transform="translate(135,6)"/>
<path d="M0 0 C2.97 0 5.94 0 9 0 C9 0.99 9 1.98 9 3 C5.625 3.1875 5.625 3.1875 2 3 C1.34 2.01 0.68 1.02 0 0 Z " fill="#2A2D2A" transform="translate(101,2)"/>
<path d="M0 0 C2.375 0.3125 2.375 0.3125 5 1 C5.66 1.99 6.32 2.98 7 4 C3.7 3.67 0.4 3.34 -3 3 C-2.01 2.67 -1.02 2.34 0 2 C0 1.34 0 0.68 0 0 Z " fill="#1F1F1F" transform="translate(23,75)"/>
<path d="M0 0 C0.33 0.66 0.66 1.32 1 2 C0.22265625 3.7265625 0.22265625 3.7265625 -0.9375 5.625 C-1.618125 6.73875 -2.29875 7.8525 -3 9 C-3.33 9 -3.66 9 -4 9 C-4.25 6.75 -4.25 6.75 -4 4 C-2 1.6875 -2 1.6875 0 0 Z " fill="#EEECEB" transform="translate(94,68)"/>
<path d="M0 0 C0.66 0.99 1.32 1.98 2 3 C1.01 3.495 1.01 3.495 0 4 C0.66 4.66 1.32 5.32 2 6 C0.35 6.66 -1.3 7.32 -3 8 C-1.125 1.125 -1.125 1.125 0 0 Z " fill="#3C3C3C" transform="translate(114,64)"/>
<path d="M0 0 C-0.66 1.32 -1.32 2.64 -2 4 C-2 3.34 -2 2.68 -2 2 C-4.97 1.505 -4.97 1.505 -8 1 C-8 0.67 -8 0.34 -8 0 C-4.71303767 -0.79953138 -3.28976808 -1.09658936 0 0 Z " fill="#0D0D0D" transform="translate(23,52)"/>
<path d="M0 0 C0.33 0 0.66 0 1 0 C1 3.3 1 6.6 1 10 C0.01 9.67 -0.98 9.34 -2 9 C-1.34 9 -0.68 9 0 9 C0 8.34 0 7.68 0 7 C-0.99 6.67 -1.98 6.34 -3 6 C-2.34 5.34 -1.68 4.68 -1 4 C-0.3574765 1.93125966 -0.3574765 1.93125966 0 0 Z " fill="#E3E1E1" transform="translate(174,38)"/>
<path d="M0 0 C2.64 0 5.28 0 8 0 C5.50494038 2.49505962 4.32671112 2.35948376 0.875 2.625 C-0.03507813 2.69976563 -0.94515625 2.77453125 -1.8828125 2.8515625 C-2.93082031 2.92503906 -2.93082031 2.92503906 -4 3 C-2.68 2.67 -1.36 2.34 0 2 C0 1.34 0 0.68 0 0 Z " fill="#5B5B5A" transform="translate(164,17)"/>
<path d="M0 0 C1.32 0.33 2.64 0.66 4 1 C4.33 2.65 4.66 4.3 5 6 C3.68 5.67 2.36 5.34 1 5 C0.67 3.35 0.34 1.7 0 0 Z " fill="#949393" transform="translate(150,11)"/>
<path d="M0 0 C1.423125 0.2784375 1.423125 0.2784375 2.875 0.5625 C5.89868793 1.28686632 5.89868793 1.28686632 8 0 C7.34 1.32 6.68 2.64 6 4 C4.35 3.67 2.7 3.34 1 3 C0.67 2.01 0.34 1.02 0 0 Z " fill="#A9A6A5" transform="translate(66,72)"/>
<path d="M0 0 C1.5 1.3125 1.5 1.3125 3 3 C3 3.99 3 4.98 3 6 C2.01 6 1.02 6 0 6 C0 5.01 0 4.02 0 3 C-0.66 2.67 -1.32 2.34 -2 2 C-1.34 1.34 -0.68 0.68 0 0 Z " fill="#E3E1E0" transform="translate(105,52)"/>
<path d="M0 0 C0.66 0 1.32 0 2 0 C2 1.65 2 3.3 2 5 C0.35 5 -1.3 5 -3 5 C-3 4.34 -3 3.68 -3 3 C-2.34 3 -1.68 3 -1 3 C-0.67 2.01 -0.34 1.02 0 0 Z " fill="#555554" transform="translate(114,23)"/>
<path d="" fill="#555555" transform="translate(0,0)"/>
<path d="" fill="#FFFFFF" transform="translate(0,0)"/>
<path d="" fill="#407F40" transform="translate(0,0)"/>
<path d="" fill="#000000" transform="translate(0,0)"/>
<path d="" fill="#555555" transform="translate(0,0)"/>
<path d="" fill="#FFFFFF" transform="translate(0,0)"/>
<path d="" fill="#FFFFFF" transform="translate(0,0)"/>
<path d="" fill="#000000" transform="translate(0,0)"/>
<path d="" fill="#404040" transform="translate(0,0)"/>
<path d="" fill="#7F7F7F" transform="translate(0,0)"/>
<path d="" fill="#333333" transform="translate(0,0)"/>
<path d="" fill="#AAAAAA" transform="translate(0,0)"/>
<path d="" fill="#000000" transform="translate(0,0)"/>
</svg>
